<svg width="23" height="23" viewBox="0 0 23 23" fill="none" xmlns="http://www.w3.org/2000/svg">
<g opacity="0.7">
<path d="M10.6919 0.999619C5.11321 1.18204 0.418997 5.69383 0.0331565 11.2625C-0.374796 17.1541 3.8385 22.1324 9.40942 22.9693V14.9794H7.62504C6.82241 14.9794 6.17234 14.3294 6.17234 13.5267C6.17234 12.7241 6.82241 12.074 7.62504 12.074H9.40832V10.1404C9.40832 6.93869 10.9683 5.53352 13.6293 5.53352C14.024 5.53352 14.3612 5.54237 14.6476 5.55674C15.3507 5.59101 15.8957 6.17696 15.8957 6.8812C15.8957 7.61419 15.3021 8.20788 14.5691 8.20788H14.0804C12.9505 8.20788 12.5558 9.27917 12.5558 10.4864V12.0751H14.6232C15.2766 12.0751 15.7763 12.6578 15.6768 13.3034L15.5574 14.0784C15.4767 14.598 15.0301 14.9817 14.5038 14.9817H12.5558V22.9937C17.9543 22.2607 22.1167 17.6461 22.1167 12.0497C22.1167 5.82097 16.9659 0.796195 10.6919 0.999619Z" fill="white"/>
</g>
</svg>
