<svg width="27" height="23" viewBox="0 0 27 23" fill="none" xmlns="http://www.w3.org/2000/svg">
<g opacity="0.7">
<path d="M26.4913 1.03628C25.3993 1.55214 23.5408 2.51954 22.6069 2.70445C22.5707 2.71383 22.5413 2.72589 22.5064 2.73527C21.4171 1.66067 19.9245 0.994746 18.2724 0.994746C14.9427 0.994746 12.2429 3.69463 12.2429 7.02426C12.2429 7.19979 12.2281 7.5227 12.2429 7.69421C7.93108 7.69421 4.78233 5.44453 2.42546 2.55304C2.11058 2.16447 1.77561 2.3668 1.70593 2.64281C1.54917 3.2672 1.49557 4.31098 1.49557 5.05596C1.49557 6.93315 2.96275 8.77684 5.24727 9.91977C4.82654 10.0283 4.36294 10.106 3.88058 10.106C3.31247 10.106 2.6586 9.95729 2.08646 9.65715C1.87476 9.54594 1.41786 9.57676 1.55319 10.1181C2.09584 12.2874 4.57196 13.8108 6.78413 14.2543C6.28167 14.5504 5.20975 14.4901 4.71667 14.4901C4.53445 14.4901 3.90068 14.4473 3.49067 14.3964C3.11684 14.3508 2.54203 14.4473 3.02305 15.1762C4.05611 16.7398 6.39288 17.722 8.40406 17.7595C6.55233 19.2119 3.52417 19.7425 0.6233 19.7425C0.0364267 19.7291 0.0659043 20.3977 0.538887 20.6456C2.6787 21.7684 6.18386 22.433 8.68812 22.433C18.6435 22.433 24.3019 14.8452 24.3019 7.69287C24.3019 7.57764 24.2992 7.33646 24.2952 7.09394C24.2952 7.06982 24.3019 7.04704 24.3019 7.02292C24.3019 6.98675 24.2912 6.95191 24.2912 6.91573C24.2872 6.73351 24.2831 6.56334 24.2791 6.47491C25.0683 5.90545 26.2769 4.91661 26.8879 4.15957C27.0956 3.90231 26.9281 3.59012 26.6454 3.68793C25.9178 3.94117 24.6596 4.43157 23.8718 4.52536C25.4488 3.48159 26.2287 2.57314 26.8986 1.5642C27.1277 1.21985 26.841 0.870136 26.4913 1.03628Z" fill="white"/>
</g>
</svg>
