<svg width="23" height="23" viewBox="0 0 23 23" fill="none" xmlns="http://www.w3.org/2000/svg">
<g opacity="0.7">
<path d="M9.91164 1.07017C4.82606 1.62295 0.735485 5.71353 0.182704 10.6886C-0.370077 15.8847 2.61494 20.528 7.14774 22.2969C7.47941 22.4075 7.81108 22.1864 7.81108 21.7442V19.9753C7.81108 19.9753 7.36885 20.0858 6.81607 20.0858C5.26829 20.0858 4.60495 18.7592 4.49439 17.9853C4.38384 17.543 4.16272 17.2114 3.83106 16.8797C3.49939 16.7691 3.38883 16.7691 3.38883 16.6586C3.38883 16.4375 3.7205 16.4375 3.83106 16.4375C4.49439 16.4375 5.04717 17.2114 5.26829 17.543C5.82107 18.4275 6.4844 18.6486 6.81607 18.6486C7.2583 18.6486 7.58996 18.538 7.81108 18.4275C7.92163 17.6536 8.2533 16.8797 8.91664 16.4375C6.37385 15.8847 4.49439 14.4475 4.49439 12.0152C4.49439 10.7991 5.04717 9.58299 5.82107 8.69855C5.71051 8.47743 5.59995 7.92465 5.59995 7.15076C5.59995 6.70854 5.59995 6.15576 5.82107 5.71353C5.82107 5.49242 6.04218 5.38186 6.15273 5.38186H6.26329C6.81607 5.49242 7.92163 5.82409 8.91664 6.81909C9.57997 6.59798 10.3539 6.48742 11.1278 6.48742C11.9017 6.48742 12.6755 6.59798 13.3389 6.81909C14.3339 5.82409 15.55 5.49242 16.1028 5.38186H16.2133C16.4345 5.38186 16.545 5.49242 16.6556 5.71353C16.6556 6.15576 16.6556 6.70854 16.6556 7.15076C16.6556 8.03521 16.545 8.47743 16.4345 8.69855C17.2083 9.58299 17.7611 10.6886 17.7611 12.0152C17.7611 14.4475 15.8817 15.8847 13.3389 16.4375C14.0022 16.9903 14.4444 17.9853 14.4444 18.9803V21.8547C14.4444 22.1864 14.7761 22.5181 15.2183 22.4075C19.3089 20.7492 22.1834 16.7691 22.1834 12.1258C22.1834 5.49242 16.545 0.296281 9.91164 1.07017Z" fill="white"/>
</g>
</svg>
