<svg width="345" height="317" viewBox="0 0 345 317" fill="none" xmlns="http://www.w3.org/2000/svg">
<g filter="url(#filter0_f_93_1279)">
<path d="M13.2912 79.5741C14.686 81.9153 14.0705 84.7839 11.9136 85.9943C9.75672 87.2048 6.88808 86.2916 5.49329 83.9504C4.09849 81.6092 4.71402 78.7406 6.8709 77.5301C9.02777 76.3196 11.8964 77.2329 13.2912 79.5741Z" fill="white"/>
</g>
<g filter="url(#filter1_f_93_1279)">
<path d="M148.788 174.261C150.183 176.603 149.567 179.471 147.41 180.682C145.254 181.892 142.385 180.979 140.99 178.638C139.595 176.297 140.211 173.428 142.368 172.217C144.525 171.007 147.393 171.92 148.788 174.261Z" fill="white"/>
</g>
<g filter="url(#filter2_f_93_1279)">
<path d="M121 211.99C122.394 214.332 121.779 217.2 119.622 218.411C117.465 219.621 114.597 218.708 113.202 216.367C111.807 214.025 112.423 211.157 114.579 209.946C116.736 208.736 119.605 209.649 121 211.99Z" fill="white"/>
</g>
<path d="M117.277 222.325L115.962 232.326L115.76 222.083C115.687 218.207 112.851 214.692 109.093 213.809L99.1722 211.483L109.182 212.269C112.97 212.57 116.137 209.988 116.636 206.199L117.95 196.198L118.153 206.442C118.226 210.317 121.062 213.832 124.82 214.715L134.74 217.042L124.73 216.255C120.942 215.954 117.776 218.536 117.277 222.325Z" fill="white"/>
<path d="M307.915 232.228L298.767 235.992L307.086 230.871C310.235 228.936 311.213 224.919 309.393 221.422L304.584 212.191L310.725 220.75C313.046 223.99 317.325 225.328 320.791 223.903L329.938 220.138L321.62 225.259C318.47 227.194 317.492 231.211 319.313 234.709L324.122 243.939L317.981 235.381C315.66 232.14 311.381 230.802 307.915 232.228Z" fill="white"/>
<g filter="url(#filter3_f_93_1279)">
<path d="M170.886 198.396C172.281 200.737 171.665 203.606 169.508 204.816C167.351 206.027 164.483 205.113 163.088 202.772C161.693 200.431 162.309 197.562 164.466 196.352C166.622 195.141 169.491 196.055 170.886 198.396Z" fill="white"/>
</g>
<g filter="url(#filter4_f_93_1279)">
<path d="M219.366 214.065C220.76 216.406 220.145 219.275 217.988 220.486C215.831 221.696 212.963 220.783 211.568 218.442C210.173 216.1 210.788 213.232 212.945 212.021C215.102 210.811 217.971 211.724 219.366 214.065Z" fill="white"/>
</g>
<g filter="url(#filter5_f_93_1279)">
<path d="M318.953 227.536C320.348 229.877 319.733 232.746 317.576 233.957C315.419 235.167 312.55 234.254 311.155 231.913C309.761 229.571 310.376 226.703 312.533 225.492C314.69 224.282 317.559 225.195 318.953 227.536Z" fill="white"/>
</g>
<path d="M9.58704 81.4912L9.18628 82.0714L144.721 176.825L145.122 176.244L9.58704 81.4912Z" fill="white"/>
<path d="M144.515 176.249L116.782 213.912L117.479 214.421L145.211 176.758L144.515 176.249Z" fill="white"/>
<path d="M117.071 213.672L117.318 214.578L167.158 201.143L166.911 200.236L117.071 213.672Z" fill="white"/>
<path d="M167.072 200.206L166.873 200.848L215.384 216.613L215.584 215.97L167.072 200.206Z" fill="white"/>
<path d="M215.405 215.782L215.339 216.359L314.971 230.02L315.037 229.444L215.405 215.782Z" fill="white"/>
<defs>
<filter id="filter0_f_93_1279" x="0.746582" y="72.9953" width="17.2913" height="17.5339" filterUnits="userSpaceOnUse" color-interpolation-filters="sRGB">
<feFlood flood-opacity="0" result="BackgroundImageFix"/>
<feBlend mode="normal" in="SourceGraphic" in2="BackgroundImageFix" result="shape"/>
<feGaussianBlur stdDeviation="2" result="effect1_foregroundBlur_93_1279"/>
</filter>
<filter id="filter1_f_93_1279" x="136.243" y="167.683" width="17.2913" height="17.5339" filterUnits="userSpaceOnUse" color-interpolation-filters="sRGB">
<feFlood flood-opacity="0" result="BackgroundImageFix"/>
<feBlend mode="normal" in="SourceGraphic" in2="BackgroundImageFix" result="shape"/>
<feGaussianBlur stdDeviation="2" result="effect1_foregroundBlur_93_1279"/>
</filter>
<filter id="filter2_f_93_1279" x="108.455" y="205.412" width="17.2913" height="17.5339" filterUnits="userSpaceOnUse" color-interpolation-filters="sRGB">
<feFlood flood-opacity="0" result="BackgroundImageFix"/>
<feBlend mode="normal" in="SourceGraphic" in2="BackgroundImageFix" result="shape"/>
<feGaussianBlur stdDeviation="2" result="effect1_foregroundBlur_93_1279"/>
</filter>
<filter id="filter3_f_93_1279" x="158.341" y="191.817" width="17.2913" height="17.5339" filterUnits="userSpaceOnUse" color-interpolation-filters="sRGB">
<feFlood flood-opacity="0" result="BackgroundImageFix"/>
<feBlend mode="normal" in="SourceGraphic" in2="BackgroundImageFix" result="shape"/>
<feGaussianBlur stdDeviation="2" result="effect1_foregroundBlur_93_1279"/>
</filter>
<filter id="filter4_f_93_1279" x="206.821" y="207.487" width="17.2913" height="17.5339" filterUnits="userSpaceOnUse" color-interpolation-filters="sRGB">
<feFlood flood-opacity="0" result="BackgroundImageFix"/>
<feBlend mode="normal" in="SourceGraphic" in2="BackgroundImageFix" result="shape"/>
<feGaussianBlur stdDeviation="2" result="effect1_foregroundBlur_93_1279"/>
</filter>
<filter id="filter5_f_93_1279" x="306.409" y="220.958" width="17.2913" height="17.5339" filterUnits="userSpaceOnUse" color-interpolation-filters="sRGB">
<feFlood flood-opacity="0" result="BackgroundImageFix"/>
<feBlend mode="normal" in="SourceGraphic" in2="BackgroundImageFix" result="shape"/>
<feGaussianBlur stdDeviation="2" result="effect1_foregroundBlur_93_1279"/>
</filter>
</defs>
</svg>
