<svg width="154" height="175" viewBox="0 0 154 175" fill="none" xmlns="http://www.w3.org/2000/svg">
<g filter="url(#filter0_f_93_1364)">
<path d="M142.995 32.2095C140.695 31.3599 139.705 28.6344 140.779 26.1098C141.853 23.5851 144.579 22.2322 146.879 23.0818C149.179 23.9313 150.169 26.6567 149.095 29.1814C148.021 31.706 145.295 33.0591 142.995 32.2095Z" fill="white"/>
</g>
<g filter="url(#filter1_f_93_1364)">
<path d="M81.4957 119.354C79.1956 118.505 78.2054 115.779 79.2795 113.254C80.3537 110.73 83.0791 109.377 85.3792 110.226C87.6793 111.076 88.6695 113.801 87.5954 116.326C86.5212 118.851 83.7958 120.204 81.4957 119.354Z" fill="white"/>
</g>
<g filter="url(#filter2_f_93_1364)">
<path d="M46.5973 149.874C44.2971 149.025 43.307 146.299 44.3812 143.775C45.4553 141.25 48.1806 139.897 50.4807 140.747C52.7809 141.596 53.7711 144.321 52.697 146.846C51.6228 149.371 48.8974 150.724 46.5973 149.874Z" fill="white"/>
</g>
<g filter="url(#filter3_f_93_1364)">
<path d="M7.52207 151.189C5.22195 150.339 4.23171 147.614 5.30586 145.089C6.38001 142.564 9.10543 141.211 11.4056 142.061C13.7057 142.91 14.6959 145.636 13.6217 148.161C12.5476 150.685 9.82219 152.038 7.52207 151.189Z" fill="white"/>
</g>
<path d="M83.1214 115.877L144.688 26.1481L145.253 26.5589L83.6872 116.288L83.1214 115.877Z" fill="white"/>
<path d="M83.6638 115.026L83.2085 114.496L48.2526 145.072L48.7079 145.602L83.6638 115.026Z" fill="white"/>
<path d="M79.4479 108.595L75.3415 99.6963L80.7653 107.689C82.8147 110.715 86.8513 111.454 90.2605 109.432L99.258 104.092L90.9815 110.721C87.8477 113.226 86.6846 117.572 88.2391 120.944L92.3456 129.843L86.9217 121.851C84.8723 118.824 80.8356 118.086 77.4265 120.108L68.429 125.447L76.7055 118.819C79.8393 116.313 81.0024 111.967 79.4479 108.595Z" fill="white"/>
<path d="M9.48304 147.331L48.5304 143.787L48.5109 144.601L9.46345 148.145L9.48304 147.331Z" fill="white"/>
<defs>
<filter id="filter0_f_93_1364" x="136.346" y="18.828" width="17.1826" height="17.6353" filterUnits="userSpaceOnUse" color-interpolation-filters="sRGB">
<feFlood flood-opacity="0" result="BackgroundImageFix"/>
<feBlend mode="normal" in="SourceGraphic" in2="BackgroundImageFix" result="shape"/>
<feGaussianBlur stdDeviation="2" result="effect1_foregroundBlur_93_1364"/>
</filter>
<filter id="filter1_f_93_1364" x="74.8462" y="105.973" width="17.1826" height="17.6353" filterUnits="userSpaceOnUse" color-interpolation-filters="sRGB">
<feFlood flood-opacity="0" result="BackgroundImageFix"/>
<feBlend mode="normal" in="SourceGraphic" in2="BackgroundImageFix" result="shape"/>
<feGaussianBlur stdDeviation="2" result="effect1_foregroundBlur_93_1364"/>
</filter>
<filter id="filter2_f_93_1364" x="39.9478" y="136.493" width="17.1826" height="17.6353" filterUnits="userSpaceOnUse" color-interpolation-filters="sRGB">
<feFlood flood-opacity="0" result="BackgroundImageFix"/>
<feBlend mode="normal" in="SourceGraphic" in2="BackgroundImageFix" result="shape"/>
<feGaussianBlur stdDeviation="2" result="effect1_foregroundBlur_93_1364"/>
</filter>
<filter id="filter3_f_93_1364" x="0.872559" y="137.807" width="17.1826" height="17.6353" filterUnits="userSpaceOnUse" color-interpolation-filters="sRGB">
<feFlood flood-opacity="0" result="BackgroundImageFix"/>
<feBlend mode="normal" in="SourceGraphic" in2="BackgroundImageFix" result="shape"/>
<feGaussianBlur stdDeviation="2" result="effect1_foregroundBlur_93_1364"/>
</filter>
</defs>
</svg>
