<svg width="388" height="314" viewBox="0 0 388 314" fill="none" xmlns="http://www.w3.org/2000/svg">
<g filter="url(#filter0_f_93_1387)">
<path d="M13.9995 88.6962C13.3276 86.189 10.7505 84.7011 8.24317 85.3729C5.73588 86.0447 4.24794 88.6219 4.91976 91.1291C5.59159 93.6364 8.16879 95.1244 10.6761 94.4526C13.1834 93.7808 14.6713 91.2035 13.9995 88.6962Z" fill="white"/>
</g>
<g filter="url(#filter1_f_93_1387)">
<path d="M110.751 169.467C110.08 166.96 107.502 165.472 104.995 166.144C102.488 166.816 101 169.393 101.672 171.9C102.344 174.407 104.921 175.895 107.428 175.223C109.935 174.552 111.423 171.975 110.751 169.467Z" fill="white"/>
</g>
<g filter="url(#filter2_f_93_1387)">
<path d="M192.218 236.196C194.729 235.523 197.301 237.008 197.974 239.519C198.647 242.031 197.162 244.603 194.651 245.275C192.139 245.948 189.567 244.464 188.894 241.952C188.221 239.441 189.706 236.869 192.218 236.196Z" fill="white"/>
</g>
<g filter="url(#filter3_f_93_1387)">
<path d="M277.816 246.596C280.328 245.923 282.9 247.408 283.573 249.919C284.246 252.431 282.761 255.003 280.249 255.676C277.738 256.349 275.166 254.864 274.493 252.352C273.82 249.841 275.305 247.269 277.816 246.596Z" fill="white"/>
</g>
<g filter="url(#filter4_f_93_1387)">
<path d="M360.246 145.217C362.757 144.544 365.329 146.029 366.002 148.54C366.675 151.052 365.19 153.624 362.679 154.297C360.168 154.97 357.596 153.485 356.923 150.973C356.25 148.462 357.735 145.89 360.246 145.217Z" fill="white"/>
</g>
<g filter="url(#filter5_f_93_1387)">
<path d="M307.322 143.745C309.833 143.072 312.405 144.557 313.078 147.068C313.751 149.579 312.266 152.151 309.755 152.824C307.243 153.497 304.671 152.012 303.998 149.501C303.325 146.989 304.81 144.418 307.322 143.745Z" fill="white"/>
</g>
<g filter="url(#filter6_f_93_1387)">
<path d="M289.52 77.3083C292.031 76.6354 294.603 78.1203 295.276 80.6317C295.949 83.1431 294.464 85.7151 291.953 86.388C289.442 87.061 286.87 85.576 286.197 83.0646C285.524 80.5532 287.009 77.9812 289.52 77.3083Z" fill="white"/>
</g>
<g filter="url(#filter7_f_93_1387)">
<path d="M317.207 20.9107C319.718 20.2378 322.29 21.7228 322.963 24.2342C323.636 26.7456 322.151 29.3175 319.64 29.9905C317.129 30.6634 314.557 29.1785 313.884 26.6671C313.211 24.1557 314.696 21.5837 317.207 20.9107Z" fill="white"/>
</g>
<g filter="url(#filter8_f_93_1387)">
<path d="M183.826 82.3973C186.337 81.7244 188.909 83.2094 189.582 85.7208C190.255 88.2322 188.77 90.8041 186.259 91.477C183.747 92.15 181.175 90.6651 180.503 88.1537C179.83 85.6423 181.315 83.0702 183.826 82.3973Z" fill="white"/>
</g>
<g filter="url(#filter9_f_93_1387)">
<path d="M211.843 150.641C214.355 149.968 216.927 151.453 217.6 153.965C218.273 156.476 216.788 159.048 214.276 159.721C211.765 160.394 209.193 158.909 208.52 156.398C207.847 153.886 209.332 151.314 211.843 150.641Z" fill="white"/>
</g>
<path d="M9.27454 90.1657L106.059 170.889L106.559 170.29L9.77414 89.5667L9.27454 90.1657Z" fill="white"/>
<path d="M105.955 171.006L193.201 241.028L193.689 240.42L106.443 170.398L105.955 171.006Z" fill="white"/>
<path d="M298.686 83.4641L307.834 87.8147L298.128 84.8974C294.456 83.79 290.524 85.5371 288.875 89.002L284.524 98.1498L287.442 88.444C288.549 84.7723 286.802 80.8405 283.337 79.1911L274.189 74.8404L283.895 77.7578C287.567 78.8652 291.499 77.1181 293.148 73.6531L297.499 64.5054L294.581 74.2111C293.474 77.8829 295.221 81.8147 298.686 83.4641Z" fill="white"/>
<path d="M203.68 242.184L212.827 246.535L203.122 243.617C199.45 242.51 195.518 244.257 193.869 247.722L189.518 256.87L192.435 247.164C193.543 243.492 191.796 239.56 188.331 237.911L179.183 233.56L188.889 236.478C192.561 237.585 196.492 235.838 198.142 232.373L202.492 223.225L199.575 232.931C198.468 236.603 200.215 240.535 203.68 242.184Z" fill="white"/>
<path d="M193.425 241.031L279.025 251.436L279.119 250.661L193.519 240.257L193.425 241.031Z" fill="white"/>
<path d="M278.657 250.94L279.263 251.432L361.678 150.056L361.073 149.564L278.657 250.94Z" fill="white"/>
<path d="M308.531 148.653L361.45 150.122L361.472 149.343L308.552 147.874L308.531 148.653Z" fill="white"/>
<path d="M290.37 81.9464L308.171 148.383L308.925 148.181L291.123 81.7445L290.37 81.9464Z" fill="white"/>
<path d="M290.417 81.6316L291.118 81.9752L318.798 25.5715L318.098 25.2278L290.417 81.6316Z" fill="white"/>
<path d="M193.021 240.715L193.781 240.89L213.408 155.332L212.648 155.158L193.021 240.715Z" fill="white"/>
<path d="M184.548 87.1189L212.624 155.337L213.345 155.041L185.269 86.8221L184.548 87.1189Z" fill="white"/>
<defs>
<filter id="filter0_f_93_1387" x="0.758545" y="81.2115" width="17.4023" height="17.4023" filterUnits="userSpaceOnUse" color-interpolation-filters="sRGB">
<feFlood flood-opacity="0" result="BackgroundImageFix"/>
<feBlend mode="normal" in="SourceGraphic" in2="BackgroundImageFix" result="shape"/>
<feGaussianBlur stdDeviation="2" result="effect1_foregroundBlur_93_1387"/>
</filter>
<filter id="filter1_f_93_1387" x="97.5105" y="161.983" width="17.4023" height="17.4021" filterUnits="userSpaceOnUse" color-interpolation-filters="sRGB">
<feFlood flood-opacity="0" result="BackgroundImageFix"/>
<feBlend mode="normal" in="SourceGraphic" in2="BackgroundImageFix" result="shape"/>
<feGaussianBlur stdDeviation="2" result="effect1_foregroundBlur_93_1387"/>
</filter>
<filter id="filter2_f_93_1387" x="184.732" y="232.034" width="17.4036" height="17.4036" filterUnits="userSpaceOnUse" color-interpolation-filters="sRGB">
<feFlood flood-opacity="0" result="BackgroundImageFix"/>
<feBlend mode="normal" in="SourceGraphic" in2="BackgroundImageFix" result="shape"/>
<feGaussianBlur stdDeviation="2" result="effect1_foregroundBlur_93_1387"/>
</filter>
<filter id="filter3_f_93_1387" x="270.331" y="242.434" width="17.4038" height="17.4038" filterUnits="userSpaceOnUse" color-interpolation-filters="sRGB">
<feFlood flood-opacity="0" result="BackgroundImageFix"/>
<feBlend mode="normal" in="SourceGraphic" in2="BackgroundImageFix" result="shape"/>
<feGaussianBlur stdDeviation="2" result="effect1_foregroundBlur_93_1387"/>
</filter>
<filter id="filter4_f_93_1387" x="352.761" y="141.055" width="17.4038" height="17.4038" filterUnits="userSpaceOnUse" color-interpolation-filters="sRGB">
<feFlood flood-opacity="0" result="BackgroundImageFix"/>
<feBlend mode="normal" in="SourceGraphic" in2="BackgroundImageFix" result="shape"/>
<feGaussianBlur stdDeviation="2" result="effect1_foregroundBlur_93_1387"/>
</filter>
<filter id="filter5_f_93_1387" x="299.836" y="139.583" width="17.4038" height="17.4038" filterUnits="userSpaceOnUse" color-interpolation-filters="sRGB">
<feFlood flood-opacity="0" result="BackgroundImageFix"/>
<feBlend mode="normal" in="SourceGraphic" in2="BackgroundImageFix" result="shape"/>
<feGaussianBlur stdDeviation="2" result="effect1_foregroundBlur_93_1387"/>
</filter>
<filter id="filter6_f_93_1387" x="282.035" y="73.1464" width="17.4038" height="17.4037" filterUnits="userSpaceOnUse" color-interpolation-filters="sRGB">
<feFlood flood-opacity="0" result="BackgroundImageFix"/>
<feBlend mode="normal" in="SourceGraphic" in2="BackgroundImageFix" result="shape"/>
<feGaussianBlur stdDeviation="2" result="effect1_foregroundBlur_93_1387"/>
</filter>
<filter id="filter7_f_93_1387" x="309.722" y="16.7488" width="17.4038" height="17.4037" filterUnits="userSpaceOnUse" color-interpolation-filters="sRGB">
<feFlood flood-opacity="0" result="BackgroundImageFix"/>
<feBlend mode="normal" in="SourceGraphic" in2="BackgroundImageFix" result="shape"/>
<feGaussianBlur stdDeviation="2" result="effect1_foregroundBlur_93_1387"/>
</filter>
<filter id="filter8_f_93_1387" x="176.341" y="78.2354" width="17.4036" height="17.4037" filterUnits="userSpaceOnUse" color-interpolation-filters="sRGB">
<feFlood flood-opacity="0" result="BackgroundImageFix"/>
<feBlend mode="normal" in="SourceGraphic" in2="BackgroundImageFix" result="shape"/>
<feGaussianBlur stdDeviation="2" result="effect1_foregroundBlur_93_1387"/>
</filter>
<filter id="filter9_f_93_1387" x="204.358" y="146.479" width="17.4038" height="17.4038" filterUnits="userSpaceOnUse" color-interpolation-filters="sRGB">
<feFlood flood-opacity="0" result="BackgroundImageFix"/>
<feBlend mode="normal" in="SourceGraphic" in2="BackgroundImageFix" result="shape"/>
<feGaussianBlur stdDeviation="2" result="effect1_foregroundBlur_93_1387"/>
</filter>
</defs>
</svg>
