<svg width="351" height="236" viewBox="0 0 351 236" fill="none" xmlns="http://www.w3.org/2000/svg">
<g filter="url(#filter0_f_93_1313)">
<path d="M10.0406 46.2495C7.53638 46.5347 5.17555 44.6344 4.75682 41.9966C4.33809 39.3588 6.02251 36.9979 8.52677 36.7128C11.031 36.4276 13.3919 38.3278 13.8106 40.9656C14.2294 43.6035 12.5449 45.9643 10.0406 46.2495Z" fill="white"/>
</g>
<g filter="url(#filter1_f_93_1313)">
<path d="M109.431 42.3833C106.927 42.6685 104.566 40.7682 104.147 38.1304C103.728 35.4926 105.413 33.1317 107.917 32.8466C110.421 32.5614 112.782 34.4616 113.201 37.0994C113.62 39.7372 111.935 42.0981 109.431 42.3833Z" fill="white"/>
</g>
<path d="M205.458 198.19L196.974 192.37L206.135 196.832C209.6 198.524 213.586 197.378 215.514 194.143L220.6 185.6L216.855 194.93C215.434 198.459 216.764 202.697 219.977 204.903L228.462 210.723L219.301 206.261C215.835 204.569 211.85 205.715 209.922 208.95L204.835 217.493L208.581 208.163C210.001 204.634 208.672 200.396 205.458 198.19Z" fill="white"/>
<path d="M101.948 34.6646L93.4639 28.8447L102.625 33.3067C106.09 34.9985 110.076 33.8527 112.004 30.6171L117.09 22.0744L113.345 31.4043C111.924 34.9333 113.254 39.1717 116.467 41.3776L124.952 47.1976L115.791 42.7355C112.325 41.0436 108.34 42.1895 106.412 45.4251L101.325 53.9679L105.071 44.6379C106.491 41.1089 105.162 36.8706 101.948 34.6646Z" fill="white"/>
<g filter="url(#filter2_f_93_1313)">
<path d="M72.6398 86.6753C70.1451 86.9594 67.7746 85.0602 67.3559 82.4224C66.9372 79.7846 68.6216 77.4237 71.1259 77.1385C73.6301 76.8534 75.991 78.7536 76.4098 81.3914C76.8285 84.0292 75.144 86.3901 72.6398 86.6753Z" fill="white"/>
</g>
<g filter="url(#filter3_f_93_1313)">
<path d="M212.714 206.161C210.209 206.446 207.849 204.546 207.43 201.908C207.011 199.27 208.696 196.91 211.2 196.624C213.704 196.339 216.065 198.239 216.484 200.877C216.902 203.515 215.218 205.876 212.714 206.161Z" fill="white"/>
</g>
<g filter="url(#filter4_f_93_1313)">
<path d="M241.916 162.384C239.411 162.669 237.05 160.769 236.632 158.131C236.213 155.493 237.898 153.132 240.402 152.847C242.906 152.562 245.267 154.462 245.686 157.1C246.104 159.738 244.42 162.099 241.916 162.384Z" fill="white"/>
</g>
<g filter="url(#filter5_f_93_1313)">
<path d="M228.091 119.937C225.587 120.222 223.226 118.321 222.808 115.684C222.389 113.046 224.073 110.685 226.578 110.4C229.082 110.115 231.443 112.015 231.861 114.653C232.28 117.29 230.596 119.651 228.091 119.937Z" fill="white"/>
</g>
<g filter="url(#filter6_f_93_1313)">
<path d="M252.732 89.0713C250.228 89.3565 247.867 87.4562 247.448 84.8184C247.029 82.1806 248.714 79.8197 251.218 79.5345C253.722 79.2494 256.083 81.1496 256.502 83.7874C256.921 86.4252 255.236 88.7861 252.732 89.0713Z" fill="white"/>
</g>
<g filter="url(#filter7_f_93_1313)">
<path d="M323.458 84.3135C320.954 84.5986 318.593 82.6984 318.174 80.0606C317.756 77.4228 319.44 75.0619 321.944 74.7767C324.449 74.4916 326.809 76.3918 327.228 79.0296C327.647 81.6674 325.962 84.0283 323.458 84.3135Z" fill="white"/>
</g>
<g filter="url(#filter8_f_93_1313)">
<path d="M331.501 116.701C328.997 116.986 326.636 115.086 326.217 112.448C325.798 109.81 327.483 107.449 329.987 107.164C332.491 106.879 334.852 108.779 335.271 111.417C335.69 114.055 334.005 116.416 331.501 116.701Z" fill="white"/>
</g>
<path d="M72.1096 81.5872L9.45679 41.1787L9.06305 41.7989L71.7158 82.2075L72.1096 81.5872Z" fill="white"/>
<path d="M9.32098 40.719L9.27269 39.8517L108.638 38.3865L108.686 39.2538L9.32098 40.719Z" fill="white"/>
<path d="M227.531 114.875L108.849 37.2852L108.452 37.9028L227.133 115.492L227.531 114.875Z" fill="white"/>
<path d="M241.544 157.543L227.666 115.081L226.995 115.302L240.872 157.764L241.544 157.543Z" fill="white"/>
<path d="M241.457 157.852L240.761 157.395L211.612 201.148L212.307 201.605L241.457 157.852Z" fill="white"/>
<path d="M212.222 201.117L72.1072 81.6157L71.6329 82.1791L211.747 201.68L212.222 201.117Z" fill="white"/>
<path d="M252.304 84.5761L251.654 84.0635L227.051 114.908L227.701 115.42L252.304 84.5761Z" fill="white"/>
<path d="M322.693 79.1016L251.993 83.5552L252.072 84.7019L322.772 80.2484L322.693 79.1016Z" fill="white"/>
<path d="M331.12 111.868L323 79.4585L322.328 79.626L330.448 112.035L331.12 111.868Z" fill="white"/>
<defs>
<filter id="filter0_f_93_1313" x="0.692871" y="32.6846" width="17.1816" height="17.5933" filterUnits="userSpaceOnUse" color-interpolation-filters="sRGB">
<feFlood flood-opacity="0" result="BackgroundImageFix"/>
<feBlend mode="normal" in="SourceGraphic" in2="BackgroundImageFix" result="shape"/>
<feGaussianBlur stdDeviation="2" result="effect1_foregroundBlur_93_1313"/>
</filter>
<filter id="filter1_f_93_1313" x="100.083" y="28.8184" width="17.1816" height="17.5933" filterUnits="userSpaceOnUse" color-interpolation-filters="sRGB">
<feFlood flood-opacity="0" result="BackgroundImageFix"/>
<feBlend mode="normal" in="SourceGraphic" in2="BackgroundImageFix" result="shape"/>
<feGaussianBlur stdDeviation="2" result="effect1_foregroundBlur_93_1313"/>
</filter>
<filter id="filter2_f_93_1313" x="63.292" y="73.1104" width="17.1816" height="17.5933" filterUnits="userSpaceOnUse" color-interpolation-filters="sRGB">
<feFlood flood-opacity="0" result="BackgroundImageFix"/>
<feBlend mode="normal" in="SourceGraphic" in2="BackgroundImageFix" result="shape"/>
<feGaussianBlur stdDeviation="2" result="effect1_foregroundBlur_93_1313"/>
</filter>
<filter id="filter3_f_93_1313" x="203.366" y="192.596" width="17.1816" height="17.5933" filterUnits="userSpaceOnUse" color-interpolation-filters="sRGB">
<feFlood flood-opacity="0" result="BackgroundImageFix"/>
<feBlend mode="normal" in="SourceGraphic" in2="BackgroundImageFix" result="shape"/>
<feGaussianBlur stdDeviation="2" result="effect1_foregroundBlur_93_1313"/>
</filter>
<filter id="filter4_f_93_1313" x="232.568" y="148.819" width="17.1816" height="17.5933" filterUnits="userSpaceOnUse" color-interpolation-filters="sRGB">
<feFlood flood-opacity="0" result="BackgroundImageFix"/>
<feBlend mode="normal" in="SourceGraphic" in2="BackgroundImageFix" result="shape"/>
<feGaussianBlur stdDeviation="2" result="effect1_foregroundBlur_93_1313"/>
</filter>
<filter id="filter5_f_93_1313" x="218.744" y="106.372" width="17.1816" height="17.5933" filterUnits="userSpaceOnUse" color-interpolation-filters="sRGB">
<feFlood flood-opacity="0" result="BackgroundImageFix"/>
<feBlend mode="normal" in="SourceGraphic" in2="BackgroundImageFix" result="shape"/>
<feGaussianBlur stdDeviation="2" result="effect1_foregroundBlur_93_1313"/>
</filter>
<filter id="filter6_f_93_1313" x="243.384" y="75.5063" width="17.1816" height="17.5933" filterUnits="userSpaceOnUse" color-interpolation-filters="sRGB">
<feFlood flood-opacity="0" result="BackgroundImageFix"/>
<feBlend mode="normal" in="SourceGraphic" in2="BackgroundImageFix" result="shape"/>
<feGaussianBlur stdDeviation="2" result="effect1_foregroundBlur_93_1313"/>
</filter>
<filter id="filter7_f_93_1313" x="314.11" y="70.7485" width="17.1816" height="17.5933" filterUnits="userSpaceOnUse" color-interpolation-filters="sRGB">
<feFlood flood-opacity="0" result="BackgroundImageFix"/>
<feBlend mode="normal" in="SourceGraphic" in2="BackgroundImageFix" result="shape"/>
<feGaussianBlur stdDeviation="2" result="effect1_foregroundBlur_93_1313"/>
</filter>
<filter id="filter8_f_93_1313" x="322.153" y="103.136" width="17.1816" height="17.5933" filterUnits="userSpaceOnUse" color-interpolation-filters="sRGB">
<feFlood flood-opacity="0" result="BackgroundImageFix"/>
<feBlend mode="normal" in="SourceGraphic" in2="BackgroundImageFix" result="shape"/>
<feGaussianBlur stdDeviation="2" result="effect1_foregroundBlur_93_1313"/>
</filter>
</defs>
</svg>
