<svg width="345" height="278" viewBox="0 0 345 278" fill="none" xmlns="http://www.w3.org/2000/svg">
<g filter="url(#filter0_f_93_1247)">
<path d="M69.1539 8.73027C69.1539 11.3303 67.0539 13.4303 64.4539 13.4303C61.8539 13.4303 59.7539 11.3303 59.7539 8.73027C59.7539 6.13027 61.8539 4.03027 64.4539 4.03027C67.0539 4.03027 69.1539 6.13027 69.1539 8.73027Z" fill="white"/>
</g>
<g filter="url(#filter1_f_93_1247)">
<path d="M130.064 34.5203C130.064 37.1203 127.964 39.2203 125.364 39.2203C122.764 39.2203 120.664 37.1203 120.664 34.5203C120.664 31.9203 122.764 29.8203 125.364 29.8203C127.964 29.8203 130.064 31.9203 130.064 34.5203Z" fill="white"/>
</g>
<g filter="url(#filter2_f_93_1247)">
<path d="M161.954 82.7403C161.954 85.3403 159.854 87.4403 157.254 87.4403C154.654 87.4403 152.554 85.3403 152.554 82.7403C152.554 80.1403 154.654 78.0403 157.254 78.0403C159.854 78.0403 161.954 80.1403 161.954 82.7403Z" fill="white"/>
</g>
<g filter="url(#filter3_f_93_1247)">
<path d="M149.764 122.74C149.764 125.34 147.664 127.44 145.064 127.44C142.464 127.44 140.364 125.34 140.364 122.74C140.364 120.14 142.464 118.04 145.064 118.04C147.664 118.04 149.764 120.14 149.764 122.74Z" fill="white"/>
</g>
<path d="M141.014 129.722L134.444 137.432L139.774 128.812C141.794 125.552 141.124 121.302 138.204 118.812L130.494 112.242L139.114 117.572C142.374 119.592 146.624 118.922 149.114 116.002L155.684 108.292L150.354 116.912C148.334 120.172 149.004 124.422 151.924 126.912L159.634 133.482L151.014 128.152C147.754 126.132 143.504 126.802 141.014 129.722Z" fill="white"/>
<path d="M280.768 134.635L274.198 142.345L279.528 133.725C281.548 130.465 280.878 126.215 277.958 123.725L270.248 117.155L278.868 122.485C282.128 124.505 286.378 123.835 288.868 120.915L295.438 113.205L290.108 121.825C288.088 125.085 288.758 129.335 291.678 131.825L299.388 138.395L290.768 133.065C287.508 131.045 283.258 131.715 280.768 134.635Z" fill="white"/>
<g filter="url(#filter4_f_93_1247)">
<path d="M251.224 13.4302C251.224 16.0302 249.124 18.1302 246.524 18.1302C243.924 18.1302 241.824 16.0302 241.824 13.4302C241.824 10.8302 243.924 8.73022 246.524 8.73022C249.124 8.73022 251.224 10.8302 251.224 13.4302Z" fill="white"/>
</g>
<g filter="url(#filter5_f_93_1247)">
<path d="M227.324 71.0303C227.324 73.6303 225.224 75.7303 222.624 75.7303C220.024 75.7303 217.924 73.6303 217.924 71.0303C217.924 68.4303 220.024 66.3303 222.624 66.3303C225.224 66.3303 227.324 68.4303 227.324 71.0303Z" fill="white"/>
</g>
<g filter="url(#filter6_f_93_1247)">
<path d="M246.524 118.04C246.524 120.64 244.424 122.74 241.824 122.74C239.224 122.74 237.124 120.64 237.124 118.04C237.124 115.44 239.224 113.34 241.824 113.34C244.424 113.34 246.524 115.44 246.524 118.04Z" fill="white"/>
</g>
<g filter="url(#filter7_f_93_1247)">
<path d="M255.924 177.86C255.924 180.46 253.824 182.56 251.224 182.56C248.624 182.56 246.524 180.46 246.524 177.86C246.524 175.26 248.624 173.16 251.224 173.16C253.824 173.16 255.924 175.26 255.924 177.86Z" fill="white"/>
</g>
<g filter="url(#filter8_f_93_1247)">
<path d="M288.114 127.44C288.114 130.04 286.014 132.14 283.414 132.14C280.814 132.14 278.714 130.04 278.714 127.44C278.714 124.84 280.814 122.74 283.414 122.74C286.014 122.74 288.114 124.84 288.114 127.44Z" fill="white"/>
</g>
<g filter="url(#filter9_f_93_1247)">
<path d="M340.974 78.0403C340.974 80.6403 338.874 82.7403 336.274 82.7403C333.674 82.7403 331.574 80.6403 331.574 78.0403C331.574 75.4403 333.674 73.3403 336.274 73.3403C338.874 73.3403 340.974 75.4403 340.974 78.0403Z" fill="white"/>
</g>
<g filter="url(#filter10_f_93_1247)">
<path d="M64.454 84.5103C64.454 87.1103 62.354 89.2103 59.754 89.2103C57.154 89.2103 55.054 87.1103 55.054 84.5103C55.054 81.9103 57.154 79.8103 59.754 79.8103C62.354 79.8103 64.454 81.9103 64.454 84.5103Z" fill="white"/>
</g>
<g filter="url(#filter11_f_93_1247)">
<path d="M14.1539 136.84C14.1539 139.44 12.0539 141.54 9.45392 141.54C6.85392 141.54 4.75391 139.44 4.75391 136.84C4.75391 134.24 6.85392 132.14 9.45392 132.14C12.0539 132.14 14.1539 134.24 14.1539 136.84Z" fill="white"/>
</g>
<g filter="url(#filter12_f_93_1247)">
<path d="M86.3438 256.88C86.3438 259.48 84.2439 261.58 81.6439 261.58C79.0439 261.58 76.9438 259.48 76.9438 256.88C76.9438 254.28 79.0439 252.18 81.6439 252.18C84.2439 252.18 86.3438 254.28 86.3438 256.88Z" fill="white"/>
</g>
<g filter="url(#filter13_f_93_1247)">
<path d="M130.064 233.47C130.064 236.07 127.964 238.17 125.364 238.17C122.764 238.17 120.664 236.07 120.664 233.47C120.664 230.87 122.764 228.77 125.364 228.77C127.964 228.77 130.064 230.87 130.064 233.47Z" fill="white"/>
</g>
<g filter="url(#filter14_f_93_1247)">
<path d="M139.464 269.07C139.464 271.67 137.364 273.77 134.764 273.77C132.164 273.77 130.064 271.67 130.064 269.07C130.064 266.47 132.164 264.37 134.764 264.37C137.364 264.37 139.464 266.47 139.464 269.07Z" fill="white"/>
</g>
<path d="M64.6484 8.38682L64.3442 9.1051L125.249 34.8949L125.553 34.1766L64.6484 8.38682Z" fill="white"/>
<path d="M125.71 34.3315L125.06 34.7618L156.956 82.9883L157.606 82.558L125.71 34.3315Z" fill="white"/>
<path d="M156.924 82.637L144.711 122.634L145.457 122.862L157.67 82.8648L156.924 82.637Z" fill="white"/>
<path d="M222.368 70.6354L144.848 122.393L145.281 123.042L222.801 71.2841L222.368 70.6354Z" fill="white"/>
<path d="M246.213 13.3098L222.278 70.8937L222.999 71.193L246.933 13.6091L246.213 13.3098Z" fill="white"/>
<path d="M222.981 70.8875L222.259 71.1825L241.462 118.192L242.185 117.897L222.981 70.8875Z" fill="white"/>
<path d="M242.21 117.967L241.439 118.088L250.838 177.904L251.609 177.783L242.21 117.967Z" fill="white"/>
<path d="M241.84 117.618L241.668 118.379L283.26 127.775L283.432 127.014L241.84 117.618Z" fill="white"/>
<path d="M336.042 77.7813L283.137 127.133L283.669 127.703L336.574 78.3516L336.042 77.7813Z" fill="white"/>
<path d="M59.9381 84.1755L59.6145 84.8853L143.452 123.11L143.775 122.4L59.9381 84.1755Z" fill="white"/>
<path d="M59.4399 84.2069L9.17676 136.566L9.73945 137.106L60.0026 84.747L59.4399 84.2069Z" fill="white"/>
<path d="M9.80226 136.67L9.13379 137.072L81.3222 257.119L81.9907 256.717L9.80226 136.67Z" fill="white"/>
<path d="M125.167 233.065L81.4668 256.506L81.8355 257.193L125.535 233.752L125.167 233.065Z" fill="white"/>
<path d="M133.104 269.45L81.554 257.26L81.7339 256.5L133.284 268.7L133.104 269.45Z" fill="white"/>
<defs>
<filter id="filter0_f_93_1247" x="55.7539" y="0.0302734" width="17.3999" height="17.4" filterUnits="userSpaceOnUse" color-interpolation-filters="sRGB">
<feFlood flood-opacity="0" result="BackgroundImageFix"/>
<feBlend mode="normal" in="SourceGraphic" in2="BackgroundImageFix" result="shape"/>
<feGaussianBlur stdDeviation="2" result="effect1_foregroundBlur_93_1247"/>
</filter>
<filter id="filter1_f_93_1247" x="116.664" y="25.8203" width="17.3999" height="17.4" filterUnits="userSpaceOnUse" color-interpolation-filters="sRGB">
<feFlood flood-opacity="0" result="BackgroundImageFix"/>
<feBlend mode="normal" in="SourceGraphic" in2="BackgroundImageFix" result="shape"/>
<feGaussianBlur stdDeviation="2" result="effect1_foregroundBlur_93_1247"/>
</filter>
<filter id="filter2_f_93_1247" x="148.554" y="74.0403" width="17.3999" height="17.4" filterUnits="userSpaceOnUse" color-interpolation-filters="sRGB">
<feFlood flood-opacity="0" result="BackgroundImageFix"/>
<feBlend mode="normal" in="SourceGraphic" in2="BackgroundImageFix" result="shape"/>
<feGaussianBlur stdDeviation="2" result="effect1_foregroundBlur_93_1247"/>
</filter>
<filter id="filter3_f_93_1247" x="136.364" y="114.04" width="17.3999" height="17.4" filterUnits="userSpaceOnUse" color-interpolation-filters="sRGB">
<feFlood flood-opacity="0" result="BackgroundImageFix"/>
<feBlend mode="normal" in="SourceGraphic" in2="BackgroundImageFix" result="shape"/>
<feGaussianBlur stdDeviation="2" result="effect1_foregroundBlur_93_1247"/>
</filter>
<filter id="filter4_f_93_1247" x="237.824" y="4.73022" width="17.3999" height="17.4" filterUnits="userSpaceOnUse" color-interpolation-filters="sRGB">
<feFlood flood-opacity="0" result="BackgroundImageFix"/>
<feBlend mode="normal" in="SourceGraphic" in2="BackgroundImageFix" result="shape"/>
<feGaussianBlur stdDeviation="2" result="effect1_foregroundBlur_93_1247"/>
</filter>
<filter id="filter5_f_93_1247" x="213.924" y="62.3303" width="17.3999" height="17.4" filterUnits="userSpaceOnUse" color-interpolation-filters="sRGB">
<feFlood flood-opacity="0" result="BackgroundImageFix"/>
<feBlend mode="normal" in="SourceGraphic" in2="BackgroundImageFix" result="shape"/>
<feGaussianBlur stdDeviation="2" result="effect1_foregroundBlur_93_1247"/>
</filter>
<filter id="filter6_f_93_1247" x="233.124" y="109.34" width="17.3999" height="17.4" filterUnits="userSpaceOnUse" color-interpolation-filters="sRGB">
<feFlood flood-opacity="0" result="BackgroundImageFix"/>
<feBlend mode="normal" in="SourceGraphic" in2="BackgroundImageFix" result="shape"/>
<feGaussianBlur stdDeviation="2" result="effect1_foregroundBlur_93_1247"/>
</filter>
<filter id="filter7_f_93_1247" x="242.524" y="169.16" width="17.3999" height="17.4" filterUnits="userSpaceOnUse" color-interpolation-filters="sRGB">
<feFlood flood-opacity="0" result="BackgroundImageFix"/>
<feBlend mode="normal" in="SourceGraphic" in2="BackgroundImageFix" result="shape"/>
<feGaussianBlur stdDeviation="2" result="effect1_foregroundBlur_93_1247"/>
</filter>
<filter id="filter8_f_93_1247" x="274.714" y="118.74" width="17.3999" height="17.4" filterUnits="userSpaceOnUse" color-interpolation-filters="sRGB">
<feFlood flood-opacity="0" result="BackgroundImageFix"/>
<feBlend mode="normal" in="SourceGraphic" in2="BackgroundImageFix" result="shape"/>
<feGaussianBlur stdDeviation="2" result="effect1_foregroundBlur_93_1247"/>
</filter>
<filter id="filter9_f_93_1247" x="327.574" y="69.3403" width="17.3999" height="17.4" filterUnits="userSpaceOnUse" color-interpolation-filters="sRGB">
<feFlood flood-opacity="0" result="BackgroundImageFix"/>
<feBlend mode="normal" in="SourceGraphic" in2="BackgroundImageFix" result="shape"/>
<feGaussianBlur stdDeviation="2" result="effect1_foregroundBlur_93_1247"/>
</filter>
<filter id="filter10_f_93_1247" x="51.054" y="75.8103" width="17.4001" height="17.4" filterUnits="userSpaceOnUse" color-interpolation-filters="sRGB">
<feFlood flood-opacity="0" result="BackgroundImageFix"/>
<feBlend mode="normal" in="SourceGraphic" in2="BackgroundImageFix" result="shape"/>
<feGaussianBlur stdDeviation="2" result="effect1_foregroundBlur_93_1247"/>
</filter>
<filter id="filter11_f_93_1247" x="0.753906" y="128.14" width="17.3999" height="17.4" filterUnits="userSpaceOnUse" color-interpolation-filters="sRGB">
<feFlood flood-opacity="0" result="BackgroundImageFix"/>
<feBlend mode="normal" in="SourceGraphic" in2="BackgroundImageFix" result="shape"/>
<feGaussianBlur stdDeviation="2" result="effect1_foregroundBlur_93_1247"/>
</filter>
<filter id="filter12_f_93_1247" x="72.9438" y="248.18" width="17.3999" height="17.4" filterUnits="userSpaceOnUse" color-interpolation-filters="sRGB">
<feFlood flood-opacity="0" result="BackgroundImageFix"/>
<feBlend mode="normal" in="SourceGraphic" in2="BackgroundImageFix" result="shape"/>
<feGaussianBlur stdDeviation="2" result="effect1_foregroundBlur_93_1247"/>
</filter>
<filter id="filter13_f_93_1247" x="116.664" y="224.77" width="17.3999" height="17.4" filterUnits="userSpaceOnUse" color-interpolation-filters="sRGB">
<feFlood flood-opacity="0" result="BackgroundImageFix"/>
<feBlend mode="normal" in="SourceGraphic" in2="BackgroundImageFix" result="shape"/>
<feGaussianBlur stdDeviation="2" result="effect1_foregroundBlur_93_1247"/>
</filter>
<filter id="filter14_f_93_1247" x="126.064" y="260.37" width="17.3999" height="17.4" filterUnits="userSpaceOnUse" color-interpolation-filters="sRGB">
<feFlood flood-opacity="0" result="BackgroundImageFix"/>
<feBlend mode="normal" in="SourceGraphic" in2="BackgroundImageFix" result="shape"/>
<feGaussianBlur stdDeviation="2" result="effect1_foregroundBlur_93_1247"/>
</filter>
</defs>
</svg>
