<svg width="284" height="185" viewBox="0 0 284 185" fill="none" xmlns="http://www.w3.org/2000/svg">
<g filter="url(#filter0_f_93_1409)">
<path d="M9.20001 65.1454C11.8 65.1454 13.9 67.2453 13.9 69.8453C13.9 72.4453 11.8 74.5454 9.20001 74.5454C6.60001 74.5454 4.5 72.4453 4.5 69.8453C4.5 67.2453 6.60001 65.1454 9.20001 65.1454Z" fill="white"/>
</g>
<g filter="url(#filter1_f_93_1409)">
<path d="M37.6399 60.4453C40.2399 60.4453 42.3399 62.5453 42.3399 65.1453C42.3399 67.7453 40.2399 69.8452 37.6399 69.8452C35.0399 69.8452 32.9399 67.7453 32.9399 65.1453C32.9399 62.5453 35.0399 60.4453 37.6399 60.4453Z" fill="white"/>
</g>
<g filter="url(#filter2_f_93_1409)">
<path d="M203.49 4.17517C206.09 4.17517 208.19 6.27512 208.19 8.87512C208.19 11.4751 206.09 13.5752 203.49 13.5752C200.89 13.5752 198.79 11.4751 198.79 8.87512C198.79 6.27512 200.89 4.17517 203.49 4.17517Z" fill="white"/>
</g>
<g filter="url(#filter3_f_93_1409)">
<path d="M249.16 87.1053C251.76 87.1053 253.86 89.2054 253.86 91.8054C253.86 94.4054 251.76 96.5054 249.16 96.5054C246.56 96.5054 244.46 94.4054 244.46 91.8054C244.46 89.2054 246.56 87.1053 249.16 87.1053Z" fill="white"/>
</g>
<g filter="url(#filter4_f_93_1409)">
<path d="M274.7 171.005C277.3 171.005 279.4 173.105 279.4 175.705C279.4 178.305 277.3 180.405 274.7 180.405C272.1 180.405 270 178.305 270 175.705C270 173.105 272.1 171.005 274.7 171.005Z" fill="white"/>
</g>
<g filter="url(#filter5_f_93_1409)">
<path d="M184.44 116.185C184.44 113.59 182.336 111.485 179.74 111.485C177.144 111.485 175.04 113.59 175.04 116.185C175.04 118.781 177.144 120.885 179.74 120.885C182.336 120.885 184.44 118.781 184.44 116.185Z" fill="white"/>
</g>
<path d="M186.6 120.579L194.31 127.149L185.69 121.819C182.43 119.799 178.18 120.469 175.69 123.389L169.12 131.099L174.45 122.479C176.47 119.219 175.8 114.969 172.88 112.479L165.17 105.909L173.79 111.239C177.05 113.259 181.3 112.589 183.79 109.669L190.36 101.959L185.03 110.579C183.01 113.839 183.68 118.089 186.6 120.579Z" fill="white"/>
<path d="M43.296 69.5762L51.006 76.1462L42.386 70.8162C39.126 68.7962 34.876 69.4662 32.386 72.3862L25.816 80.0962L31.146 71.4762C33.166 68.2162 32.496 63.9662 29.576 61.4762L21.866 54.9062L30.486 60.2362C33.746 62.2562 37.996 61.5862 40.486 58.6662L47.056 50.9562L41.726 59.5762C39.706 62.8362 40.376 67.0862 43.296 69.5762Z" fill="white"/>
<path d="M9.06609 69.4492L9.19336 70.2188L37.6272 65.5167L37.4999 64.7471L9.06609 69.4492Z" fill="white"/>
<path d="M37.5629 64.7877L37.8135 65.5264L203.669 9.25841L203.418 8.51973L37.5629 64.7877Z" fill="white"/>
<path d="M203.021 9.08441L248.759 91.9727L249.442 91.5958L203.704 8.70758L203.021 9.08441Z" fill="white"/>
<path d="M248.756 91.9318L274.368 175.809L275.114 175.581L249.502 91.704L248.756 91.9318Z" fill="white"/>
<path d="M179.496 116.541L274.485 176.012L274.899 175.351L179.91 115.88L179.496 116.541Z" fill="white"/>
<path d="M9.04792 70.3436L179.626 116.529L179.83 115.776L9.25178 69.5907L9.04792 70.3436Z" fill="white"/>
<defs>
<filter id="filter0_f_93_1409" x="0.5" y="61.1455" width="17.3999" height="17.3999" filterUnits="userSpaceOnUse" color-interpolation-filters="sRGB">
<feFlood flood-opacity="0" result="BackgroundImageFix"/>
<feBlend mode="normal" in="SourceGraphic" in2="BackgroundImageFix" result="shape"/>
<feGaussianBlur stdDeviation="2" result="effect1_foregroundBlur_93_1409"/>
</filter>
<filter id="filter1_f_93_1409" x="28.9399" y="56.4453" width="17.3999" height="17.3999" filterUnits="userSpaceOnUse" color-interpolation-filters="sRGB">
<feFlood flood-opacity="0" result="BackgroundImageFix"/>
<feBlend mode="normal" in="SourceGraphic" in2="BackgroundImageFix" result="shape"/>
<feGaussianBlur stdDeviation="2" result="effect1_foregroundBlur_93_1409"/>
</filter>
<filter id="filter2_f_93_1409" x="194.79" y="0.175293" width="17.3999" height="17.3999" filterUnits="userSpaceOnUse" color-interpolation-filters="sRGB">
<feFlood flood-opacity="0" result="BackgroundImageFix"/>
<feBlend mode="normal" in="SourceGraphic" in2="BackgroundImageFix" result="shape"/>
<feGaussianBlur stdDeviation="2" result="effect1_foregroundBlur_93_1409"/>
</filter>
<filter id="filter3_f_93_1409" x="240.46" y="83.1055" width="17.3999" height="17.3999" filterUnits="userSpaceOnUse" color-interpolation-filters="sRGB">
<feFlood flood-opacity="0" result="BackgroundImageFix"/>
<feBlend mode="normal" in="SourceGraphic" in2="BackgroundImageFix" result="shape"/>
<feGaussianBlur stdDeviation="2" result="effect1_foregroundBlur_93_1409"/>
</filter>
<filter id="filter4_f_93_1409" x="266" y="167.005" width="17.3999" height="17.3999" filterUnits="userSpaceOnUse" color-interpolation-filters="sRGB">
<feFlood flood-opacity="0" result="BackgroundImageFix"/>
<feBlend mode="normal" in="SourceGraphic" in2="BackgroundImageFix" result="shape"/>
<feGaussianBlur stdDeviation="2" result="effect1_foregroundBlur_93_1409"/>
</filter>
<filter id="filter5_f_93_1409" x="171.04" y="107.485" width="17.3999" height="17.3999" filterUnits="userSpaceOnUse" color-interpolation-filters="sRGB">
<feFlood flood-opacity="0" result="BackgroundImageFix"/>
<feBlend mode="normal" in="SourceGraphic" in2="BackgroundImageFix" result="shape"/>
<feGaussianBlur stdDeviation="2" result="effect1_foregroundBlur_93_1409"/>
</filter>
</defs>
</svg>
