<svg width="171" height="190" viewBox="0 0 171 190" fill="none" xmlns="http://www.w3.org/2000/svg">
<g filter="url(#filter0_f_93_1373)">
<path d="M89.3714 9.6511C89.6151 7.02117 91.8689 5.02693 94.4157 5.18781C96.9625 5.34869 98.8227 7.60282 98.579 10.2327C98.3353 12.8627 96.0814 14.8569 93.5346 14.696C90.9878 14.5351 89.1276 12.281 89.3714 9.6511Z" fill="white"/>
</g>
<g filter="url(#filter1_f_93_1373)">
<path d="M36.9529 36.2219C37.1966 33.5919 39.4505 31.5977 41.9973 31.7586C44.5441 31.9195 46.4042 34.1736 46.1605 36.8035C45.9168 39.4334 43.663 41.4277 41.1162 41.2668C38.5694 41.1059 36.7092 38.8518 36.9529 36.2219Z" fill="white"/>
</g>
<g filter="url(#filter2_f_93_1373)">
<path d="M15.5708 128.029C15.8145 125.399 18.0684 123.405 20.6152 123.566C23.162 123.727 25.0222 125.981 24.7784 128.611C24.5347 131.241 22.2809 133.235 19.7341 133.074C17.1873 132.913 15.3271 130.659 15.5708 128.029Z" fill="white"/>
</g>
<g filter="url(#filter3_f_93_1373)">
<path d="M81.0211 180.492C81.2648 177.862 83.5186 175.868 86.0654 176.029C88.6122 176.189 90.4724 178.444 90.2286 181.074C89.9849 183.703 87.7311 185.698 85.1843 185.537C82.6375 185.376 80.7773 183.122 81.0211 180.492Z" fill="white"/>
</g>
<g filter="url(#filter4_f_93_1373)">
<path d="M106.847 121.068C107.091 118.438 109.345 116.444 111.892 116.605C114.438 116.766 116.299 119.02 116.055 121.65C115.811 124.28 113.557 126.274 111.01 126.113C108.464 125.952 106.604 123.698 106.847 121.068Z" fill="white"/>
</g>
<path d="M115.771 115.933L122.93 108.542L116.901 116.93C114.616 120.103 114.874 124.443 117.501 127.142L124.438 134.265L116.494 128.34C113.489 126.095 109.263 126.51 106.55 129.309L99.3916 136.701L105.421 128.312C107.705 125.14 107.447 120.8 104.82 118.1L97.8833 110.978L105.828 116.902C108.832 119.147 113.058 118.733 115.771 115.933Z" fill="white"/>
<path d="M24.3726 120.947L31.5313 113.556L25.5021 121.945C23.2177 125.117 23.4757 129.457 26.1027 132.156L33.0397 139.279L25.0951 133.354C22.0909 131.109 17.8648 131.524 15.1519 134.323L7.9932 141.715L14.0225 133.326C16.3068 130.154 16.0488 125.814 13.4218 123.114L6.48483 115.992L14.4294 121.917C17.4336 124.161 21.6597 123.747 24.3726 120.947Z" fill="white"/>
<g filter="url(#filter5_f_93_1373)">
<path d="M153.135 97.9401C153.379 95.3102 155.633 93.316 158.18 93.4769C160.726 93.6377 162.587 95.8918 162.343 98.5218C162.099 101.152 159.845 103.146 157.299 102.985C154.752 102.824 152.892 100.57 153.135 97.9401Z" fill="white"/>
</g>
<path d="M111.614 121.724L157.904 98.5498L157.571 97.8773L111.282 121.051L111.614 121.724Z" fill="white"/>
<path d="M85.9447 180.91L111.786 121.469L111.106 121.171L85.2642 180.612L85.9447 180.91Z" fill="white"/>
<path d="M85.3607 181.071L85.8677 180.443L20.4361 128.002L19.9291 128.63L85.3607 181.071Z" fill="white"/>
<path d="M20.4938 128.423L41.9534 36.6123L41.2526 36.4473L19.793 128.258L20.4938 128.423Z" fill="white"/>
<path d="M41.7064 36.8675L94.1582 10.3013L93.8223 9.63031L41.3705 36.1965L41.7064 36.8675Z" fill="white"/>
<defs>
<filter id="filter0_f_93_1373" x="85.3499" y="1.17871" width="17.2505" height="17.5264" filterUnits="userSpaceOnUse" color-interpolation-filters="sRGB">
<feFlood flood-opacity="0" result="BackgroundImageFix"/>
<feBlend mode="normal" in="SourceGraphic" in2="BackgroundImageFix" result="shape"/>
<feGaussianBlur stdDeviation="2" result="effect1_foregroundBlur_93_1373"/>
</filter>
<filter id="filter1_f_93_1373" x="32.9314" y="27.7495" width="17.2505" height="17.5264" filterUnits="userSpaceOnUse" color-interpolation-filters="sRGB">
<feFlood flood-opacity="0" result="BackgroundImageFix"/>
<feBlend mode="normal" in="SourceGraphic" in2="BackgroundImageFix" result="shape"/>
<feGaussianBlur stdDeviation="2" result="effect1_foregroundBlur_93_1373"/>
</filter>
<filter id="filter2_f_93_1373" x="11.5493" y="119.557" width="17.2505" height="17.5264" filterUnits="userSpaceOnUse" color-interpolation-filters="sRGB">
<feFlood flood-opacity="0" result="BackgroundImageFix"/>
<feBlend mode="normal" in="SourceGraphic" in2="BackgroundImageFix" result="shape"/>
<feGaussianBlur stdDeviation="2" result="effect1_foregroundBlur_93_1373"/>
</filter>
<filter id="filter3_f_93_1373" x="76.9995" y="172.02" width="17.2505" height="17.5264" filterUnits="userSpaceOnUse" color-interpolation-filters="sRGB">
<feFlood flood-opacity="0" result="BackgroundImageFix"/>
<feBlend mode="normal" in="SourceGraphic" in2="BackgroundImageFix" result="shape"/>
<feGaussianBlur stdDeviation="2" result="effect1_foregroundBlur_93_1373"/>
</filter>
<filter id="filter4_f_93_1373" x="102.826" y="112.596" width="17.2505" height="17.5264" filterUnits="userSpaceOnUse" color-interpolation-filters="sRGB">
<feFlood flood-opacity="0" result="BackgroundImageFix"/>
<feBlend mode="normal" in="SourceGraphic" in2="BackgroundImageFix" result="shape"/>
<feGaussianBlur stdDeviation="2" result="effect1_foregroundBlur_93_1373"/>
</filter>
<filter id="filter5_f_93_1373" x="149.114" y="89.4678" width="17.2505" height="17.5264" filterUnits="userSpaceOnUse" color-interpolation-filters="sRGB">
<feFlood flood-opacity="0" result="BackgroundImageFix"/>
<feBlend mode="normal" in="SourceGraphic" in2="BackgroundImageFix" result="shape"/>
<feGaussianBlur stdDeviation="2" result="effect1_foregroundBlur_93_1373"/>
</filter>
</defs>
</svg>
