<svg width="248" height="208" viewBox="0 0 248 208" fill="none" xmlns="http://www.w3.org/2000/svg">
<g filter="url(#filter0_f_93_704)">
<path d="M218.248 66.2281C218.248 63.9887 220.057 62.18 222.296 62.18C224.536 62.18 226.344 63.9887 226.344 66.2281C226.344 68.4674 224.536 70.2761 222.296 70.2761C220.057 70.2761 218.248 68.4674 218.248 66.2281Z" fill="white"/>
</g>
<g filter="url(#filter1_f_93_704)">
<path d="M224.966 8.24614C224.966 6.00679 226.775 4.19807 229.014 4.19807C231.254 4.19807 233.063 6.00679 233.063 8.24614C233.063 10.4855 231.254 12.2942 229.014 12.2942C226.775 12.2942 224.966 10.4855 224.966 8.24614Z" fill="white"/>
</g>
<g filter="url(#filter2_f_93_704)">
<path d="M137.579 46.8059C137.579 44.5666 139.388 42.7579 141.627 42.7579C143.867 42.7579 145.675 44.5666 145.675 46.8059C145.675 49.0453 143.867 50.854 141.627 50.854C139.388 50.854 137.579 49.0453 137.579 46.8059Z" fill="white"/>
</g>
<g filter="url(#filter3_f_93_704)">
<path d="M145.228 15.2066C145.228 12.9672 147.036 11.1585 149.276 11.1585C151.515 11.1585 153.324 12.9672 153.324 15.2066C153.324 17.4459 151.515 19.2546 149.276 19.2546C147.036 19.2546 145.228 17.4459 145.228 15.2066Z" fill="white"/>
</g>
<g filter="url(#filter4_f_93_704)">
<path d="M130.647 85.6675C130.647 83.4282 132.455 81.6195 134.695 81.6195C136.934 81.6195 138.743 83.4282 138.743 85.6675C138.743 87.9069 136.934 89.7156 134.695 89.7156C132.455 89.7156 130.647 87.9069 130.647 85.6675Z" fill="white"/>
</g>
<g filter="url(#filter5_f_93_704)">
<path d="M81.9149 148.895C81.9149 146.655 83.7236 144.847 85.9629 144.847C88.2023 144.847 90.011 146.655 90.011 148.895C90.011 151.134 88.2023 152.943 85.9629 152.943C83.7236 152.943 81.9149 151.134 81.9149 148.895Z" fill="white"/>
</g>
<g filter="url(#filter6_f_93_704)">
<path d="M22.8904 200.15C22.8904 197.911 24.6991 196.102 26.9385 196.102C29.1779 196.102 30.9866 197.911 30.9866 200.15C30.9866 202.389 29.1779 204.198 26.9385 204.198C24.6991 204.198 22.8904 202.389 22.8904 200.15Z" fill="white"/>
</g>
<g filter="url(#filter7_f_93_704)">
<path d="M13.8563 117.173C13.8563 114.934 15.665 113.125 17.9044 113.125C20.1437 113.125 21.9524 114.934 21.9524 117.173C21.9524 119.413 20.1437 121.221 17.9044 121.221C15.665 121.221 13.8563 119.413 13.8563 117.173Z" fill="white"/>
</g>
<g filter="url(#filter8_f_93_704)">
<path d="M8.50083 174.518C8.50084 172.279 10.3096 170.47 12.5489 170.47C14.7883 170.47 16.5969 172.279 16.5969 174.518C16.5969 176.757 14.7883 178.566 12.5489 178.566C10.3096 178.566 8.50083 176.757 8.50083 174.518Z" fill="white"/>
</g>
<path d="M222.612 66.2688L229.361 8.29077L228.694 8.21309L221.944 66.1911L222.612 66.2688Z" fill="white"/>
<path d="M148.804 14.4257L229.043 8.56152L228.994 7.89151L148.755 13.7557L148.804 14.4257Z" fill="white"/>
<path d="M141.989 46.8959L149.125 14.1692L148.468 14.0261L141.333 46.7528L141.989 46.8959Z" fill="white"/>
<path d="M134.99 85.6945L141.939 46.8381L141.278 46.7199L134.329 85.5762L134.99 85.6945Z" fill="white"/>
<path d="M86.2564 149.122L134.955 85.8625L134.423 85.4527L85.7241 148.712L86.2564 149.122Z" fill="white"/>
<path d="M12.7673 174.389L86.0684 149.149L85.8496 148.514L12.5486 173.754L12.7673 174.389Z" fill="white"/>
<path d="M16.0374 168.035L21.696 161.395L17.1054 168.819C15.3656 171.627 15.9426 175.288 18.4576 177.432L25.0981 183.091L17.6738 178.5C14.866 176.76 11.2056 177.337 9.06094 179.852L3.40226 186.493L7.99295 179.069C9.73275 176.261 9.15568 172.6 6.64072 170.456L0.000158299 164.797L7.42447 169.388C10.2323 171.127 13.8928 170.55 16.0374 168.035Z" fill="white"/>
<path d="M231.605 63.5327L243.212 59.7038L232.313 65.2483C228.187 67.3425 226.213 72.1437 227.662 76.5413L231.491 88.148L225.946 77.2491C223.852 73.1228 219.051 71.149 214.653 72.598L203.046 76.427L213.945 70.8825C218.072 68.7883 220.046 63.987 218.596 59.5894L214.767 47.9828L220.312 58.8816C222.406 63.0079 227.207 64.9817 231.605 63.5327Z" fill="white"/>
<path d="M152.48 12.558L157.091 10.9505L152.774 13.2387C151.14 14.103 150.384 16.0343 150.992 17.7815L152.6 22.3928L150.311 18.0758C149.447 16.4413 147.516 15.685 145.769 16.2934L141.157 17.9009L145.474 15.6127C147.109 14.7484 147.865 12.817 147.257 11.0699L145.649 6.45867L147.937 10.7756C148.802 12.41 150.733 13.1664 152.48 12.558Z" fill="white"/>
<path d="M136.437 87.7448L137.839 90.6701L136.009 87.9894C135.317 86.9744 133.986 86.6179 132.878 87.1489L129.953 88.5514L132.633 86.7213C133.648 86.0297 134.005 84.6987 133.474 83.5903L132.071 80.6649L133.901 83.3456C134.593 84.3607 135.924 84.7171 137.032 84.1862L139.958 82.7837L137.277 84.6137C136.262 85.3053 135.906 86.6364 136.437 87.7448Z" fill="white"/>
<path d="M26.6422 200.313L27.2312 199.99L12.9476 173.944L12.3585 174.267L26.6422 200.313Z" fill="white"/>
<path d="M12.9619 174.124L18.2131 117.193L17.5442 117.131L12.2929 174.062L12.9619 174.124Z" fill="white"/>
<defs>
<filter id="filter0_f_93_704" x="214.803" y="58.7348" width="14.9865" height="14.9865" filterUnits="userSpaceOnUse" color-interpolation-filters="sRGB">
<feFlood flood-opacity="0" result="BackgroundImageFix"/>
<feBlend mode="normal" in="SourceGraphic" in2="BackgroundImageFix" result="shape"/>
<feGaussianBlur stdDeviation="1.72258" result="effect1_foregroundBlur_93_704"/>
</filter>
<filter id="filter1_f_93_704" x="221.521" y="0.75284" width="14.9865" height="14.9865" filterUnits="userSpaceOnUse" color-interpolation-filters="sRGB">
<feFlood flood-opacity="0" result="BackgroundImageFix"/>
<feBlend mode="normal" in="SourceGraphic" in2="BackgroundImageFix" result="shape"/>
<feGaussianBlur stdDeviation="1.72258" result="effect1_foregroundBlur_93_704"/>
</filter>
<filter id="filter2_f_93_704" x="134.134" y="39.3127" width="14.9865" height="14.9865" filterUnits="userSpaceOnUse" color-interpolation-filters="sRGB">
<feFlood flood-opacity="0" result="BackgroundImageFix"/>
<feBlend mode="normal" in="SourceGraphic" in2="BackgroundImageFix" result="shape"/>
<feGaussianBlur stdDeviation="1.72258" result="effect1_foregroundBlur_93_704"/>
</filter>
<filter id="filter3_f_93_704" x="141.782" y="7.71329" width="14.9865" height="14.9865" filterUnits="userSpaceOnUse" color-interpolation-filters="sRGB">
<feFlood flood-opacity="0" result="BackgroundImageFix"/>
<feBlend mode="normal" in="SourceGraphic" in2="BackgroundImageFix" result="shape"/>
<feGaussianBlur stdDeviation="1.72258" result="effect1_foregroundBlur_93_704"/>
</filter>
<filter id="filter4_f_93_704" x="127.202" y="78.1742" width="14.9865" height="14.9865" filterUnits="userSpaceOnUse" color-interpolation-filters="sRGB">
<feFlood flood-opacity="0" result="BackgroundImageFix"/>
<feBlend mode="normal" in="SourceGraphic" in2="BackgroundImageFix" result="shape"/>
<feGaussianBlur stdDeviation="1.72258" result="effect1_foregroundBlur_93_704"/>
</filter>
<filter id="filter5_f_93_704" x="78.4696" y="141.402" width="14.9865" height="14.9865" filterUnits="userSpaceOnUse" color-interpolation-filters="sRGB">
<feFlood flood-opacity="0" result="BackgroundImageFix"/>
<feBlend mode="normal" in="SourceGraphic" in2="BackgroundImageFix" result="shape"/>
<feGaussianBlur stdDeviation="1.72258" result="effect1_foregroundBlur_93_704"/>
</filter>
<filter id="filter6_f_93_704" x="19.4452" y="192.657" width="14.9865" height="14.9865" filterUnits="userSpaceOnUse" color-interpolation-filters="sRGB">
<feFlood flood-opacity="0" result="BackgroundImageFix"/>
<feBlend mode="normal" in="SourceGraphic" in2="BackgroundImageFix" result="shape"/>
<feGaussianBlur stdDeviation="1.72258" result="effect1_foregroundBlur_93_704"/>
</filter>
<filter id="filter7_f_93_704" x="10.411" y="109.68" width="14.9865" height="14.9865" filterUnits="userSpaceOnUse" color-interpolation-filters="sRGB">
<feFlood flood-opacity="0" result="BackgroundImageFix"/>
<feBlend mode="normal" in="SourceGraphic" in2="BackgroundImageFix" result="shape"/>
<feGaussianBlur stdDeviation="1.72258" result="effect1_foregroundBlur_93_704"/>
</filter>
<filter id="filter8_f_93_704" x="5.05557" y="167.025" width="14.9865" height="14.9865" filterUnits="userSpaceOnUse" color-interpolation-filters="sRGB">
<feFlood flood-opacity="0" result="BackgroundImageFix"/>
<feBlend mode="normal" in="SourceGraphic" in2="BackgroundImageFix" result="shape"/>
<feGaussianBlur stdDeviation="1.72258" result="effect1_foregroundBlur_93_704"/>
</filter>
</defs>
</svg>
