<svg width="337" height="275" viewBox="0 0 337 275" fill="none" xmlns="http://www.w3.org/2000/svg">
<g filter="url(#filter0_f_93_1334)">
<path d="M92.3371 211.911C94.2959 213.542 94.502 216.5 92.7985 218.531C91.0949 220.562 88.137 220.884 86.1782 219.253C84.2195 217.621 84.0134 214.663 85.7169 212.633C87.4204 210.602 90.3784 210.279 92.3371 211.911Z" fill="white"/>
</g>
<g filter="url(#filter1_f_93_1334)">
<path d="M62.0095 194.199C63.9682 195.83 64.1744 198.788 62.4708 200.819C60.7673 202.85 57.8093 203.172 55.8506 201.541C53.8919 199.91 53.6857 196.952 55.3893 194.921C57.0928 192.89 60.0508 192.567 62.0095 194.199Z" fill="white"/>
</g>
<g filter="url(#filter2_f_93_1334)">
<path d="M46.239 141.935C48.1977 143.566 48.4038 146.524 46.7003 148.555C44.9968 150.586 42.0388 150.908 40.0801 149.277C38.1214 147.645 37.9152 144.687 39.6188 142.657C41.3223 140.626 44.2803 140.303 46.239 141.935Z" fill="white"/>
</g>
<g filter="url(#filter3_f_93_1334)">
<path d="M81.2834 114.646C83.2421 116.277 83.4482 119.235 81.7447 121.266C80.0411 123.297 77.0832 123.619 75.1245 121.988C73.1657 120.356 72.9596 117.398 74.6632 115.368C76.3667 113.337 79.3246 113.014 81.2834 114.646Z" fill="white"/>
</g>
<path d="M251.451 132.232L252.955 142.202L249.953 132.63C248.821 129.007 245.18 126.863 241.391 127.581L231.39 129.481L241.053 126.093C244.711 124.814 246.991 121.074 246.423 117.297L244.919 107.327L247.921 116.899C249.053 120.522 252.694 122.666 256.483 121.948L266.484 120.048L256.821 123.436C253.163 124.715 250.883 128.455 251.451 132.232Z" fill="white"/>
<path d="M45.401 153.4L46.9046 163.37L43.9029 153.798C42.7705 150.174 39.1298 148.031 35.3407 148.749L25.3395 150.649L35.0028 147.261C38.6605 145.982 40.9404 142.242 40.372 138.465L38.8683 128.495L41.87 138.067C43.0025 141.69 46.6432 143.834 50.4323 143.116L60.4334 141.216L50.7702 144.604C47.1125 145.883 44.8326 149.623 45.401 153.4Z" fill="white"/>
<g filter="url(#filter4_f_93_1334)">
<path d="M175.5 163.16C177.459 164.791 177.665 167.749 175.962 169.78C174.258 171.811 171.3 172.133 169.341 170.502C167.383 168.87 167.176 165.912 168.88 163.882C170.584 161.851 173.541 161.528 175.5 163.16Z" fill="white"/>
</g>
<g filter="url(#filter5_f_93_1334)">
<path d="M251.569 121.187C253.527 122.818 253.733 125.776 252.03 127.807C250.326 129.838 247.368 130.161 245.41 128.529C243.451 126.898 243.245 123.94 244.948 121.909C246.652 119.878 249.61 119.556 251.569 121.187Z" fill="white"/>
</g>
<g filter="url(#filter6_f_93_1334)">
<path d="M278.121 158.626C280.08 160.257 280.286 163.215 278.582 165.246C276.879 167.277 273.921 167.599 271.962 165.968C270.003 164.336 269.797 161.378 271.501 159.348C273.204 157.317 276.162 156.994 278.121 158.626Z" fill="white"/>
</g>
<g filter="url(#filter7_f_93_1334)">
<path d="M214.758 58.0308C216.717 59.6622 216.923 62.6202 215.219 64.651C213.516 66.6819 210.558 67.0044 208.599 65.373C206.64 63.7415 206.434 60.7835 208.138 58.7527C209.841 56.7219 212.799 56.3994 214.758 58.0308Z" fill="white"/>
</g>
<g filter="url(#filter8_f_93_1334)">
<path d="M222.244 34.4068C224.203 36.0382 224.409 38.9962 222.705 41.027C221.002 43.0578 218.044 43.3804 216.085 41.749C214.126 40.1175 213.92 37.1595 215.624 35.1287C217.327 33.0979 220.285 32.7753 222.244 34.4068Z" fill="white"/>
</g>
<path d="M88.2973 216.668L58.7246 198.333L59.1597 197.659L88.7324 215.994L88.2973 216.668Z" fill="white"/>
<path d="M42.7903 145.757L58.5471 197.991L59.348 197.75L43.5912 145.515L42.7903 145.757Z" fill="white"/>
<path d="M42.9733 145.336L43.4333 145.928L78.5 118.615L78.04 118.023L42.9733 145.336Z" fill="white"/>
<path d="M78.0199 117.965L78.3079 118.647L211.802 61.9912L211.514 61.3094L78.0199 117.965Z" fill="white"/>
<path d="M211.283 61.9127L248.107 125.025L248.811 124.614L211.988 61.502L211.283 61.9127Z" fill="white"/>
<path d="M248.147 125.106L274.719 162.507L275.382 162.037L248.81 124.636L248.147 125.106Z" fill="white"/>
<path d="M218.832 37.9512L211.31 61.5913L212.009 61.8113L219.532 38.1712L218.832 37.9512Z" fill="white"/>
<path d="M89.1225 215.297L89.4993 215.942L172.684 167.167L172.307 166.522L89.1225 215.297Z" fill="white"/>
<path d="M172.175 166.485L172.534 167.138L248.606 125.131L248.247 124.478L172.175 166.485Z" fill="white"/>
<defs>
<filter id="filter0_f_93_1334" x="80.5627" y="206.871" width="17.3899" height="17.4224" filterUnits="userSpaceOnUse" color-interpolation-filters="sRGB">
<feFlood flood-opacity="0" result="BackgroundImageFix"/>
<feBlend mode="normal" in="SourceGraphic" in2="BackgroundImageFix" result="shape"/>
<feGaussianBlur stdDeviation="2" result="effect1_foregroundBlur_93_1334"/>
</filter>
<filter id="filter1_f_93_1334" x="50.2351" y="189.159" width="17.3899" height="17.4224" filterUnits="userSpaceOnUse" color-interpolation-filters="sRGB">
<feFlood flood-opacity="0" result="BackgroundImageFix"/>
<feBlend mode="normal" in="SourceGraphic" in2="BackgroundImageFix" result="shape"/>
<feGaussianBlur stdDeviation="2" result="effect1_foregroundBlur_93_1334"/>
</filter>
<filter id="filter2_f_93_1334" x="34.4646" y="136.895" width="17.3899" height="17.4224" filterUnits="userSpaceOnUse" color-interpolation-filters="sRGB">
<feFlood flood-opacity="0" result="BackgroundImageFix"/>
<feBlend mode="normal" in="SourceGraphic" in2="BackgroundImageFix" result="shape"/>
<feGaussianBlur stdDeviation="2" result="effect1_foregroundBlur_93_1334"/>
</filter>
<filter id="filter3_f_93_1334" x="69.509" y="109.605" width="17.3896" height="17.4224" filterUnits="userSpaceOnUse" color-interpolation-filters="sRGB">
<feFlood flood-opacity="0" result="BackgroundImageFix"/>
<feBlend mode="normal" in="SourceGraphic" in2="BackgroundImageFix" result="shape"/>
<feGaussianBlur stdDeviation="2" result="effect1_foregroundBlur_93_1334"/>
</filter>
<filter id="filter4_f_93_1334" x="163.726" y="158.12" width="17.3899" height="17.4224" filterUnits="userSpaceOnUse" color-interpolation-filters="sRGB">
<feFlood flood-opacity="0" result="BackgroundImageFix"/>
<feBlend mode="normal" in="SourceGraphic" in2="BackgroundImageFix" result="shape"/>
<feGaussianBlur stdDeviation="2" result="effect1_foregroundBlur_93_1334"/>
</filter>
<filter id="filter5_f_93_1334" x="239.794" y="116.147" width="17.3896" height="17.4224" filterUnits="userSpaceOnUse" color-interpolation-filters="sRGB">
<feFlood flood-opacity="0" result="BackgroundImageFix"/>
<feBlend mode="normal" in="SourceGraphic" in2="BackgroundImageFix" result="shape"/>
<feGaussianBlur stdDeviation="2" result="effect1_foregroundBlur_93_1334"/>
</filter>
<filter id="filter6_f_93_1334" x="266.346" y="153.585" width="17.3896" height="17.4224" filterUnits="userSpaceOnUse" color-interpolation-filters="sRGB">
<feFlood flood-opacity="0" result="BackgroundImageFix"/>
<feBlend mode="normal" in="SourceGraphic" in2="BackgroundImageFix" result="shape"/>
<feGaussianBlur stdDeviation="2" result="effect1_foregroundBlur_93_1334"/>
</filter>
<filter id="filter7_f_93_1334" x="202.983" y="52.9907" width="17.3899" height="17.4224" filterUnits="userSpaceOnUse" color-interpolation-filters="sRGB">
<feFlood flood-opacity="0" result="BackgroundImageFix"/>
<feBlend mode="normal" in="SourceGraphic" in2="BackgroundImageFix" result="shape"/>
<feGaussianBlur stdDeviation="2" result="effect1_foregroundBlur_93_1334"/>
</filter>
<filter id="filter8_f_93_1334" x="210.47" y="29.3667" width="17.3896" height="17.4224" filterUnits="userSpaceOnUse" color-interpolation-filters="sRGB">
<feFlood flood-opacity="0" result="BackgroundImageFix"/>
<feBlend mode="normal" in="SourceGraphic" in2="BackgroundImageFix" result="shape"/>
<feGaussianBlur stdDeviation="2" result="effect1_foregroundBlur_93_1334"/>
</filter>
</defs>
</svg>
