<svg width="437" height="283" viewBox="0 0 437 283" fill="none" xmlns="http://www.w3.org/2000/svg">
<g filter="url(#filter0_f_93_1220)">
<path d="M31.8548 95.7071C29.4739 95.0756 28.2345 92.4691 29.0807 89.8734C29.927 87.2778 32.5335 85.6914 34.9144 86.323C37.2952 86.9545 38.5347 89.5611 37.6884 92.1567C36.8422 94.7523 34.2356 96.3386 31.8548 95.7071Z" fill="white"/>
</g>
<g filter="url(#filter1_f_93_1220)">
<path d="M54.8899 156.613C52.509 155.982 51.2696 153.375 52.1158 150.779C52.9621 148.184 55.5687 146.597 57.9495 147.229C60.3304 147.861 61.5699 150.467 60.7236 153.063C59.8773 155.658 57.2708 157.245 54.8899 156.613Z" fill="white"/>
</g>
<g filter="url(#filter2_f_93_1220)">
<path d="M119.893 225.265C117.512 224.634 116.272 222.027 117.119 219.432C117.965 216.836 120.571 215.25 122.952 215.881C125.333 216.513 126.573 219.119 125.726 221.715C124.88 224.311 122.273 225.897 119.893 225.265Z" fill="white"/>
</g>
<g filter="url(#filter3_f_93_1220)">
<path d="M170.85 142.613C168.479 141.984 167.23 139.375 168.076 136.779C168.923 134.184 171.529 132.597 173.91 133.229C176.291 133.861 177.53 136.467 176.684 139.063C175.838 141.658 173.231 143.245 170.85 142.613Z" fill="white"/>
</g>
<g filter="url(#filter4_f_93_1220)">
<path d="M256.112 172.544C253.731 171.913 252.491 169.306 253.338 166.71C254.184 164.115 256.79 162.528 259.171 163.16C261.552 163.792 262.792 166.398 261.945 168.994C261.099 171.589 258.492 173.176 256.112 172.544Z" fill="white"/>
</g>
<g filter="url(#filter5_f_93_1220)">
<path d="M295.043 111.791C292.662 111.159 291.423 108.553 292.269 105.957C293.115 103.362 295.722 101.775 298.103 102.407C300.483 103.038 301.723 105.645 300.877 108.241C300.03 110.836 297.424 112.423 295.043 111.791Z" fill="white"/>
</g>
<g filter="url(#filter6_f_93_1220)">
<path d="M175.153 211.057C172.772 210.426 171.533 207.819 172.379 205.224C173.225 202.628 175.832 201.042 178.213 201.673C180.594 202.305 181.833 204.911 180.987 207.507C180.141 210.102 177.534 211.689 175.153 211.057Z" fill="white"/>
</g>
<g filter="url(#filter7_f_93_1220)">
<path d="M250.82 223.935C248.439 223.303 247.2 220.697 248.046 218.101C248.892 215.506 251.499 213.919 253.88 214.551C256.261 215.182 257.5 217.789 256.654 220.384C255.808 222.98 253.201 224.566 250.82 223.935Z" fill="white"/>
</g>
<g filter="url(#filter8_f_93_1220)">
<path d="M293.986 254.399C291.605 253.767 290.366 251.161 291.212 248.565C292.058 245.97 294.665 244.383 297.046 245.015C299.427 245.646 300.666 248.253 299.82 250.849C298.974 253.444 296.367 255.031 293.986 254.399Z" fill="white"/>
</g>
<g filter="url(#filter9_f_93_1220)">
<path d="M362.197 277.479C359.816 276.848 358.576 274.241 359.423 271.646C360.269 269.05 362.876 267.464 365.256 268.095C367.637 268.727 368.877 271.333 368.03 273.929C367.184 276.524 364.578 278.111 362.197 277.479Z" fill="white"/>
</g>
<g filter="url(#filter10_f_93_1220)">
<path d="M148.301 95.1381C145.92 94.5066 144.681 91.9001 145.527 89.3045C146.373 86.7089 148.98 85.1225 151.361 85.754C153.742 86.3855 154.981 88.9921 154.135 91.5877C153.288 94.1833 150.682 95.7697 148.301 95.1381Z" fill="white"/>
</g>
<g filter="url(#filter11_f_93_1220)">
<path d="M86.2583 27.6572C83.8866 27.0281 82.638 24.4191 83.4843 21.8235C84.3305 19.2279 86.9462 17.6439 89.3179 18.2731C91.6897 18.9022 92.9383 21.5111 92.092 24.1067C91.2457 26.7023 88.6392 28.2887 86.2583 27.6572Z" fill="white"/>
</g>
<path d="M363.879 272.271L295.702 249.356L295.405 250.223L363.582 273.138L363.879 272.271Z" fill="white"/>
<path d="M295.747 249.333L252.644 218.93L252.139 219.634L295.242 250.037L295.747 249.333Z" fill="white"/>
<path d="M252.236 219.606L252.412 218.564L176.796 205.956L176.619 206.998L252.236 219.606Z" fill="white"/>
<path d="M176.778 206.612L176.627 205.977L121.321 220.305L121.471 220.94L176.778 206.612Z" fill="white"/>
<path d="M121.737 220.288L56.8127 151.682L56.1798 152.271L121.104 220.877L121.737 220.288Z" fill="white"/>
<path d="M56.814 151.79L33.9141 90.9215L33.0473 91.2376L55.9471 152.106L56.814 151.79Z" fill="white"/>
<path d="M150.135 90.1525L88.175 22.7203L87.5332 23.2999L149.494 90.7321L150.135 90.1525Z" fill="white"/>
<path d="M172.738 137.702L150.28 90.2753L149.466 90.6517L171.924 138.079L172.738 137.702Z" fill="white"/>
<path d="M172.729 138.095L172.14 137.727L121.116 220.416L121.704 220.784L172.729 138.095Z" fill="white"/>
<path d="M171.666 200.661L166.744 192.229L172.903 199.644C175.231 202.452 179.34 202.816 182.571 200.506L191.097 194.405L183.41 201.715C180.499 204.479 179.73 208.885 181.593 212.08L186.515 220.511L180.356 213.097C178.028 210.288 173.918 209.925 170.688 212.235L162.162 218.336L169.849 211.025C172.759 208.262 173.529 203.856 171.666 200.661Z" fill="white"/>
<path d="M82.9129 16.9546L77.9912 8.52291L84.1499 15.9376C86.4776 18.7461 90.5875 19.1096 93.818 16.7993L102.344 10.6981L94.6573 18.0089C91.7465 20.7728 90.9767 25.1784 92.8401 28.3734L97.7618 36.8051L91.6031 29.3903C89.2754 26.5818 85.1655 26.2184 81.9349 28.5287L73.4092 34.6298L81.0957 27.319C84.0065 24.5552 84.7763 20.1496 82.9129 16.9546Z" fill="white"/>
<path d="M257.772 167.356L172.549 137.581L172.243 138.441L257.466 168.215L257.772 167.356Z" fill="white"/>
<path d="M252.484 219.252L258.019 167.826L257.501 167.782L251.967 219.208L252.484 219.252Z" fill="white"/>
<path d="M296.912 107.274L296.328 106.895L257.322 167.693L257.905 168.072L296.912 107.274Z" fill="white"/>
<defs>
<filter id="filter0_f_93_1220" x="24.8147" y="82.1844" width="17.1396" height="17.6613" filterUnits="userSpaceOnUse" color-interpolation-filters="sRGB">
<feFlood flood-opacity="0" result="BackgroundImageFix"/>
<feBlend mode="normal" in="SourceGraphic" in2="BackgroundImageFix" result="shape"/>
<feGaussianBlur stdDeviation="2" result="effect1_foregroundBlur_93_1220"/>
</filter>
<filter id="filter1_f_93_1220" x="47.8499" y="143.09" width="17.1396" height="17.6613" filterUnits="userSpaceOnUse" color-interpolation-filters="sRGB">
<feFlood flood-opacity="0" result="BackgroundImageFix"/>
<feBlend mode="normal" in="SourceGraphic" in2="BackgroundImageFix" result="shape"/>
<feGaussianBlur stdDeviation="2" result="effect1_foregroundBlur_93_1220"/>
</filter>
<filter id="filter2_f_93_1220" x="112.853" y="211.743" width="17.1396" height="17.6613" filterUnits="userSpaceOnUse" color-interpolation-filters="sRGB">
<feFlood flood-opacity="0" result="BackgroundImageFix"/>
<feBlend mode="normal" in="SourceGraphic" in2="BackgroundImageFix" result="shape"/>
<feGaussianBlur stdDeviation="2" result="effect1_foregroundBlur_93_1220"/>
</filter>
<filter id="filter3_f_93_1220" x="163.811" y="129.09" width="17.1387" height="17.6613" filterUnits="userSpaceOnUse" color-interpolation-filters="sRGB">
<feFlood flood-opacity="0" result="BackgroundImageFix"/>
<feBlend mode="normal" in="SourceGraphic" in2="BackgroundImageFix" result="shape"/>
<feGaussianBlur stdDeviation="2" result="effect1_foregroundBlur_93_1220"/>
</filter>
<filter id="filter4_f_93_1220" x="249.072" y="159.021" width="17.1396" height="17.6613" filterUnits="userSpaceOnUse" color-interpolation-filters="sRGB">
<feFlood flood-opacity="0" result="BackgroundImageFix"/>
<feBlend mode="normal" in="SourceGraphic" in2="BackgroundImageFix" result="shape"/>
<feGaussianBlur stdDeviation="2" result="effect1_foregroundBlur_93_1220"/>
</filter>
<filter id="filter5_f_93_1220" x="288.003" y="98.2683" width="17.1396" height="17.6613" filterUnits="userSpaceOnUse" color-interpolation-filters="sRGB">
<feFlood flood-opacity="0" result="BackgroundImageFix"/>
<feBlend mode="normal" in="SourceGraphic" in2="BackgroundImageFix" result="shape"/>
<feGaussianBlur stdDeviation="2" result="effect1_foregroundBlur_93_1220"/>
</filter>
<filter id="filter6_f_93_1220" x="168.113" y="197.535" width="17.1399" height="17.6613" filterUnits="userSpaceOnUse" color-interpolation-filters="sRGB">
<feFlood flood-opacity="0" result="BackgroundImageFix"/>
<feBlend mode="normal" in="SourceGraphic" in2="BackgroundImageFix" result="shape"/>
<feGaussianBlur stdDeviation="2" result="effect1_foregroundBlur_93_1220"/>
</filter>
<filter id="filter7_f_93_1220" x="243.78" y="210.412" width="17.1396" height="17.6613" filterUnits="userSpaceOnUse" color-interpolation-filters="sRGB">
<feFlood flood-opacity="0" result="BackgroundImageFix"/>
<feBlend mode="normal" in="SourceGraphic" in2="BackgroundImageFix" result="shape"/>
<feGaussianBlur stdDeviation="2" result="effect1_foregroundBlur_93_1220"/>
</filter>
<filter id="filter8_f_93_1220" x="286.946" y="240.876" width="17.1396" height="17.6613" filterUnits="userSpaceOnUse" color-interpolation-filters="sRGB">
<feFlood flood-opacity="0" result="BackgroundImageFix"/>
<feBlend mode="normal" in="SourceGraphic" in2="BackgroundImageFix" result="shape"/>
<feGaussianBlur stdDeviation="2" result="effect1_foregroundBlur_93_1220"/>
</filter>
<filter id="filter9_f_93_1220" x="355.157" y="263.957" width="17.1396" height="17.6613" filterUnits="userSpaceOnUse" color-interpolation-filters="sRGB">
<feFlood flood-opacity="0" result="BackgroundImageFix"/>
<feBlend mode="normal" in="SourceGraphic" in2="BackgroundImageFix" result="shape"/>
<feGaussianBlur stdDeviation="2" result="effect1_foregroundBlur_93_1220"/>
</filter>
<filter id="filter10_f_93_1220" x="141.261" y="81.6155" width="17.1396" height="17.6613" filterUnits="userSpaceOnUse" color-interpolation-filters="sRGB">
<feFlood flood-opacity="0" result="BackgroundImageFix"/>
<feBlend mode="normal" in="SourceGraphic" in2="BackgroundImageFix" result="shape"/>
<feGaussianBlur stdDeviation="2" result="effect1_foregroundBlur_93_1220"/>
</filter>
<filter id="filter11_f_93_1220" x="79.2192" y="14.1353" width="17.1377" height="17.6605" filterUnits="userSpaceOnUse" color-interpolation-filters="sRGB">
<feFlood flood-opacity="0" result="BackgroundImageFix"/>
<feBlend mode="normal" in="SourceGraphic" in2="BackgroundImageFix" result="shape"/>
<feGaussianBlur stdDeviation="2" result="effect1_foregroundBlur_93_1220"/>
</filter>
</defs>
</svg>
