<svg width="209" height="193" viewBox="0 0 209 193" fill="none" xmlns="http://www.w3.org/2000/svg">
<g filter="url(#filter0_f_93_1355)">
<path d="M88.6098 181.393C89.0531 184.031 87.3937 186.407 84.8957 186.71C82.3978 187.014 80.0222 185.128 79.5788 182.49C79.1354 179.852 80.7949 177.477 83.2928 177.173C85.7908 176.87 88.1664 178.756 88.6098 181.393Z" fill="white"/>
</g>
<g filter="url(#filter1_f_93_1355)">
<path d="M13.9606 24.2744C14.4039 26.9123 12.7445 29.2879 10.2466 29.5913C7.74863 29.8947 5.373 28.009 4.92964 25.3711C4.48628 22.7332 6.14571 20.3575 8.64363 20.0542C11.1416 19.7508 13.5172 21.6364 13.9606 24.2744Z" fill="white"/>
</g>
<g filter="url(#filter2_f_93_1355)">
<path d="M201.03 128.397C201.473 131.035 199.814 133.411 197.316 133.714C194.818 134.018 192.442 132.132 191.999 129.494C191.556 126.856 193.215 124.481 195.713 124.177C198.211 123.874 200.587 125.759 201.03 128.397Z" fill="white"/>
</g>
<g filter="url(#filter3_f_93_1355)">
<path d="M76.4733 99.123C76.9167 101.761 75.2572 104.137 72.7593 104.44C70.2614 104.743 67.8857 102.858 67.4423 100.22C66.999 97.5818 68.6584 95.2062 71.1564 94.9028C73.6543 94.5994 76.0299 96.4851 76.4733 99.123Z" fill="white"/>
</g>
<path d="M9.71188 24.524L9.15405 24.999L72.1014 99.8041L72.6592 99.329L9.71188 24.524Z" fill="white"/>
<path d="M72.585 99.5609L71.958 99.6499L83.8548 182.007L84.4818 181.918L72.585 99.5609Z" fill="white"/>
<path d="M72.3804 99.1757L72.2278 99.853L196.429 129.259L196.582 128.582L72.3804 99.1757Z" fill="white"/>
<path d="M69.6087 108.081L64.6114 116.67L68.2622 107.302C69.647 103.759 68.2786 99.525 65.0486 97.3394L56.521 91.5731L65.7114 95.9751C69.1879 97.6442 73.1568 96.4686 75.0511 93.2155L80.0484 84.6264L76.3976 93.9941C75.0128 97.5373 76.3812 101.771 79.6112 103.957L88.1389 109.723L78.9484 105.321C75.4719 103.652 71.5031 104.828 69.6087 108.081Z" fill="white"/>
<defs>
<filter id="filter0_f_93_1355" x="75.5071" y="173.141" width="17.1743" height="17.6011" filterUnits="userSpaceOnUse" color-interpolation-filters="sRGB">
<feFlood flood-opacity="0" result="BackgroundImageFix"/>
<feBlend mode="normal" in="SourceGraphic" in2="BackgroundImageFix" result="shape"/>
<feGaussianBlur stdDeviation="2" result="effect1_foregroundBlur_93_1355"/>
</filter>
<filter id="filter1_f_93_1355" x="0.85791" y="16.022" width="17.1743" height="17.6016" filterUnits="userSpaceOnUse" color-interpolation-filters="sRGB">
<feFlood flood-opacity="0" result="BackgroundImageFix"/>
<feBlend mode="normal" in="SourceGraphic" in2="BackgroundImageFix" result="shape"/>
<feGaussianBlur stdDeviation="2" result="effect1_foregroundBlur_93_1355"/>
</filter>
<filter id="filter2_f_93_1355" x="187.927" y="120.145" width="17.1743" height="17.6011" filterUnits="userSpaceOnUse" color-interpolation-filters="sRGB">
<feFlood flood-opacity="0" result="BackgroundImageFix"/>
<feBlend mode="normal" in="SourceGraphic" in2="BackgroundImageFix" result="shape"/>
<feGaussianBlur stdDeviation="2" result="effect1_foregroundBlur_93_1355"/>
</filter>
<filter id="filter3_f_93_1355" x="63.3706" y="90.8706" width="17.1743" height="17.6011" filterUnits="userSpaceOnUse" color-interpolation-filters="sRGB">
<feFlood flood-opacity="0" result="BackgroundImageFix"/>
<feBlend mode="normal" in="SourceGraphic" in2="BackgroundImageFix" result="shape"/>
<feGaussianBlur stdDeviation="2" result="effect1_foregroundBlur_93_1355"/>
</filter>
</defs>
</svg>
