<svg width="432" height="299" viewBox="0 0 432 299" fill="none" xmlns="http://www.w3.org/2000/svg">
<g filter="url(#filter0_f_93_1293)">
<path d="M37.5061 224.554C40.0017 224.244 42.3827 226.124 42.8351 228.762C43.2875 231.399 41.6372 233.781 39.1416 234.091C36.646 234.401 34.265 232.52 33.8126 229.883C33.3602 227.245 35.0105 224.864 37.5061 224.554Z" fill="white"/>
</g>
<g filter="url(#filter1_f_93_1293)">
<path d="M43.1431 185.107C45.6387 184.797 48.0197 186.678 48.4721 189.315C48.9245 191.953 47.2742 194.334 44.7786 194.644C42.283 194.954 39.902 193.074 39.4496 190.436C38.9972 187.798 40.6475 185.417 43.1431 185.107Z" fill="white"/>
</g>
<g filter="url(#filter2_f_93_1293)">
<path d="M103.222 171.597C105.718 171.287 108.099 173.167 108.551 175.805C109.004 178.443 107.354 180.824 104.858 181.134C102.362 181.444 99.9813 179.564 99.5289 176.926C99.0766 174.288 100.727 171.907 103.222 171.597Z" fill="white"/>
</g>
<path d="M121.482 228.625L130.025 234.371L120.824 229.992C117.343 228.331 113.381 229.518 111.499 232.777L106.534 241.383L110.15 232.002C111.522 228.453 110.139 224.221 106.903 222.043L98.3599 216.297L107.561 220.677C111.042 222.337 115.004 221.151 116.886 217.891L121.851 209.285L118.235 218.667C116.863 222.215 118.246 226.447 121.482 228.625Z" fill="white"/>
<g filter="url(#filter3_f_93_1293)">
<path d="M113.043 220.926C115.539 220.616 117.92 222.496 118.372 225.134C118.825 227.772 117.174 230.153 114.679 230.463C112.183 230.773 109.802 228.893 109.35 226.255C108.897 223.617 110.548 221.236 113.043 220.926Z" fill="white"/>
</g>
<g filter="url(#filter4_f_93_1293)">
<path d="M87.5789 249.287C90.0745 248.977 92.4555 250.857 92.9079 253.495C93.3603 256.133 91.71 258.514 89.2144 258.824C86.7188 259.134 84.3378 257.254 83.8854 254.616C83.433 251.978 85.0833 249.597 87.5789 249.287Z" fill="white"/>
</g>
<g filter="url(#filter5_f_93_1293)">
<path d="M257.626 144.342C260.121 144.032 262.502 145.912 262.955 148.55C263.407 151.188 261.757 153.569 259.261 153.879C256.766 154.189 254.385 152.309 253.932 149.671C253.48 147.033 255.13 144.652 257.626 144.342Z" fill="white"/>
</g>
<g filter="url(#filter6_f_93_1293)">
<path d="M381.166 4.40174C383.662 4.09169 386.043 5.97182 386.495 8.60972C386.947 11.2476 385.297 13.6287 382.801 13.9388C380.306 14.2488 377.925 12.3686 377.473 9.73068C377.02 7.09277 378.67 4.71179 381.166 4.40174Z" fill="white"/>
</g>
<g filter="url(#filter7_f_93_1293)">
<path d="M394.884 150.249C397.38 149.938 399.761 151.819 400.213 154.457C400.666 157.094 399.015 159.475 396.52 159.785C394.024 160.096 391.643 158.215 391.191 155.577C390.738 152.94 392.398 150.557 394.884 150.249Z" fill="white"/>
</g>
<g filter="url(#filter8_f_93_1293)">
<path d="M408.962 246.787C411.457 246.477 413.838 248.358 414.291 250.995C414.743 253.633 413.093 256.014 410.597 256.325C408.102 256.635 405.721 254.754 405.268 252.116C404.816 249.479 406.476 247.096 408.962 246.787Z" fill="white"/>
</g>
<path d="M38.123 229.644L88.2327 254.433L88.549 253.779L38.4394 228.99L38.123 229.644Z" fill="white"/>
<path d="M88.1298 253.752L88.751 254.303L114.168 225.973L113.547 225.422L88.1298 253.752Z" fill="white"/>
<path d="M114.234 225.713L113.587 225.842L103.659 176.358L104.304 176.219L114.234 225.713Z" fill="white"/>
<path d="M43.493 189.933L39.5067 229.388L38.7905 229.255L42.7676 189.802L43.493 189.933Z" fill="white"/>
<path d="M43.7814 189.384L43.9805 190.251L104.032 176.843L103.832 175.976L43.7814 189.384Z" fill="white"/>
<path d="M113.804 225.29L114.2 226.028L258.763 149.497L258.367 148.76L113.804 225.29Z" fill="white"/>
<path d="M258.046 148.87L258.673 149.416L382.154 9.50211L381.527 8.95627L258.046 148.87Z" fill="white"/>
<path d="M395.514 155.069L396.085 155.017L382.153 9.13995L381.582 9.1916L395.514 155.069Z" fill="white"/>
<path d="M395.326 155.05L409.55 251.611L410.175 251.52L395.952 154.959L395.326 155.05Z" fill="white"/>
<defs>
<filter id="filter0_f_93_1293" x="29.738" y="220.52" width="17.1716" height="17.6038" filterUnits="userSpaceOnUse" color-interpolation-filters="sRGB">
<feFlood flood-opacity="0" result="BackgroundImageFix"/>
<feBlend mode="normal" in="SourceGraphic" in2="BackgroundImageFix" result="shape"/>
<feGaussianBlur stdDeviation="2" result="effect1_foregroundBlur_93_1293"/>
</filter>
<filter id="filter1_f_93_1293" x="35.375" y="181.074" width="17.1716" height="17.6038" filterUnits="userSpaceOnUse" color-interpolation-filters="sRGB">
<feFlood flood-opacity="0" result="BackgroundImageFix"/>
<feBlend mode="normal" in="SourceGraphic" in2="BackgroundImageFix" result="shape"/>
<feGaussianBlur stdDeviation="2" result="effect1_foregroundBlur_93_1293"/>
</filter>
<filter id="filter2_f_93_1293" x="95.4543" y="167.563" width="17.1716" height="17.604" filterUnits="userSpaceOnUse" color-interpolation-filters="sRGB">
<feFlood flood-opacity="0" result="BackgroundImageFix"/>
<feBlend mode="normal" in="SourceGraphic" in2="BackgroundImageFix" result="shape"/>
<feGaussianBlur stdDeviation="2" result="effect1_foregroundBlur_93_1293"/>
</filter>
<filter id="filter3_f_93_1293" x="105.275" y="216.893" width="17.1716" height="17.6038" filterUnits="userSpaceOnUse" color-interpolation-filters="sRGB">
<feFlood flood-opacity="0" result="BackgroundImageFix"/>
<feBlend mode="normal" in="SourceGraphic" in2="BackgroundImageFix" result="shape"/>
<feGaussianBlur stdDeviation="2" result="effect1_foregroundBlur_93_1293"/>
</filter>
<filter id="filter4_f_93_1293" x="79.8108" y="245.253" width="17.1716" height="17.604" filterUnits="userSpaceOnUse" color-interpolation-filters="sRGB">
<feFlood flood-opacity="0" result="BackgroundImageFix"/>
<feBlend mode="normal" in="SourceGraphic" in2="BackgroundImageFix" result="shape"/>
<feGaussianBlur stdDeviation="2" result="effect1_foregroundBlur_93_1293"/>
</filter>
<filter id="filter5_f_93_1293" x="249.858" y="140.309" width="17.1716" height="17.6038" filterUnits="userSpaceOnUse" color-interpolation-filters="sRGB">
<feFlood flood-opacity="0" result="BackgroundImageFix"/>
<feBlend mode="normal" in="SourceGraphic" in2="BackgroundImageFix" result="shape"/>
<feGaussianBlur stdDeviation="2" result="effect1_foregroundBlur_93_1293"/>
</filter>
<filter id="filter6_f_93_1293" x="373.398" y="0.368408" width="17.1716" height="17.6038" filterUnits="userSpaceOnUse" color-interpolation-filters="sRGB">
<feFlood flood-opacity="0" result="BackgroundImageFix"/>
<feBlend mode="normal" in="SourceGraphic" in2="BackgroundImageFix" result="shape"/>
<feGaussianBlur stdDeviation="2" result="effect1_foregroundBlur_93_1293"/>
</filter>
<filter id="filter7_f_93_1293" x="387.116" y="146.215" width="17.1714" height="17.6038" filterUnits="userSpaceOnUse" color-interpolation-filters="sRGB">
<feFlood flood-opacity="0" result="BackgroundImageFix"/>
<feBlend mode="normal" in="SourceGraphic" in2="BackgroundImageFix" result="shape"/>
<feGaussianBlur stdDeviation="2" result="effect1_foregroundBlur_93_1293"/>
</filter>
<filter id="filter8_f_93_1293" x="401.194" y="242.754" width="17.1714" height="17.604" filterUnits="userSpaceOnUse" color-interpolation-filters="sRGB">
<feFlood flood-opacity="0" result="BackgroundImageFix"/>
<feBlend mode="normal" in="SourceGraphic" in2="BackgroundImageFix" result="shape"/>
<feGaussianBlur stdDeviation="2" result="effect1_foregroundBlur_93_1293"/>
</filter>
</defs>
</svg>
