<svg width="588" height="136" viewBox="0 0 588 136" fill="none" xmlns="http://www.w3.org/2000/svg">
<path d="M573.63 57.3577C576.43 58.851 578.903 60.7177 581.05 62.9577C583.196 65.1977 584.83 67.7644 585.95 70.6577C587.163 73.4577 587.77 76.4444 587.77 79.6177H573.63V104.818C573.63 112.938 571.156 119.704 566.21 125.118C561.263 130.531 554.636 133.238 546.33 133.238V79.6177H526.73C524.303 79.6177 521.923 79.3377 519.59 78.7777C512.683 77.6577 507.176 74.531 503.07 69.3977C498.963 64.2644 496.91 58.151 496.91 51.0577V2.19769C505.403 2.19769 512.123 4.48436 517.07 9.05769C522.11 13.5377 524.63 19.651 524.63 27.3977V49.6577C524.63 50.871 525.05 51.8977 525.89 52.7377C526.823 53.5777 527.896 53.9977 529.11 53.9977H546.33V27.1177C546.33 19.1844 548.756 12.9777 553.61 8.4977C558.463 3.92436 565.136 1.6377 573.63 1.6377V57.3577Z" fill="white"/>
<path d="M444.432 107.338H485.452C485.452 114.431 483.118 120.544 478.452 125.678C473.785 130.718 468.138 133.238 461.512 133.238H412.372V74.0177C412.372 67.111 414.658 61.5577 419.232 57.3577C423.805 53.1577 429.498 51.0577 436.312 51.0577H449.472C450.965 51.0577 452.225 50.5444 453.252 49.5177C454.278 48.491 454.792 47.231 454.792 45.7377V33.1377C454.792 31.831 454.278 30.711 453.252 29.7777C452.318 28.8444 451.198 28.3777 449.892 28.3777H412.372C412.372 21.0977 414.705 14.8444 419.372 9.61769C424.132 4.29769 429.778 1.6377 436.312 1.6377H462.072C466.645 1.6377 470.705 2.94436 474.252 5.55769C477.892 8.17103 480.318 11.6244 481.532 15.9177C482.372 17.971 482.978 20.5844 483.352 23.7577V24.3177C483.445 24.971 483.492 25.6244 483.492 26.2777V48.1177C483.305 53.6244 481.578 58.571 478.312 62.9577C475.045 67.3444 470.938 70.6577 465.992 72.8977C461.045 75.1377 455.865 76.2577 450.452 76.2577H444.432C443.032 76.2577 441.865 76.7244 440.932 77.6577C439.998 78.591 439.532 79.7111 439.532 81.0177V102.438C439.532 103.744 439.998 104.911 440.932 105.938C441.865 106.871 443.032 107.338 444.432 107.338Z" fill="white"/>
<path d="M366.453 0.37793C375.693 0.37793 383.58 3.64461 390.113 10.1779C396.646 16.7113 399.913 24.5979 399.913 33.8379V99.638C399.913 108.878 396.646 116.765 390.113 123.298C383.58 129.831 375.693 133.098 366.453 133.098H353.293C344.053 133.098 336.12 129.831 329.493 123.298C322.96 116.765 319.693 108.878 319.693 99.638V33.8379C319.693 24.5979 322.96 16.7113 329.493 10.1779C336.12 3.64461 344.053 0.37793 353.293 0.37793H366.453ZM353.293 27.3979C351.52 27.3979 349.98 28.0513 348.673 29.3579C347.366 30.5713 346.713 32.0646 346.713 33.8379V69.5379L372.893 34.8179V33.8379C372.893 32.0646 372.24 30.5713 370.933 29.3579C369.72 28.0513 368.226 27.3979 366.453 27.3979H353.293ZM366.453 106.078C368.226 106.078 369.72 105.471 370.933 104.258C372.24 102.951 372.893 101.411 372.893 99.638V64.9179L346.713 99.638C346.713 101.411 347.366 102.951 348.673 104.258C349.98 105.471 351.52 106.078 353.293 106.078H366.453Z" fill="white"/>
<path d="M272.029 107.338H313.049C313.049 114.431 310.716 120.544 306.049 125.678C301.383 130.718 295.736 133.238 289.109 133.238H239.969V74.0177C239.969 67.111 242.256 61.5577 246.829 57.3577C251.403 53.1577 257.096 51.0577 263.909 51.0577H277.069C278.563 51.0577 279.823 50.5444 280.849 49.5177C281.876 48.491 282.389 47.231 282.389 45.7377V33.1377C282.389 31.831 281.876 30.711 280.849 29.7777C279.916 28.8444 278.796 28.3777 277.489 28.3777H239.969C239.969 21.0977 242.303 14.8444 246.969 9.61769C251.729 4.29769 257.376 1.6377 263.909 1.6377H289.669C294.243 1.6377 298.303 2.94436 301.849 5.55769C305.489 8.17103 307.916 11.6244 309.129 15.9177C309.969 17.971 310.576 20.5844 310.949 23.7577V24.3177C311.043 24.971 311.089 25.6244 311.089 26.2777V48.1177C310.903 53.6244 309.176 58.571 305.909 62.9577C302.643 67.3444 298.536 70.6577 293.589 72.8977C288.643 75.1377 283.463 76.2577 278.049 76.2577H272.029C270.629 76.2577 269.463 76.7244 268.529 77.6577C267.596 78.591 267.129 79.7111 267.129 81.0177V102.438C267.129 103.744 267.596 104.911 268.529 105.938C269.463 106.871 270.629 107.338 272.029 107.338Z" fill="white"/>
<path d="M172.033 30.3377C172.033 22.4044 175.067 15.6377 181.133 10.0377C187.293 4.43769 194.713 1.6377 203.393 1.6377V106.218C203.393 114.244 200.313 121.058 194.153 126.658C188.087 132.258 180.713 135.058 172.033 135.058V82.1377H135.773V106.218C135.773 114.244 132.693 121.058 126.533 126.658C120.373 132.258 113 135.058 104.413 135.058V57.9177C104.227 56.7977 104.133 55.6777 104.133 54.5577H104.413V30.3377C104.413 22.4044 107.447 15.6377 113.513 10.0377C119.673 4.43769 127.093 1.6377 135.773 1.6377V54.5577H172.033V30.3377Z" fill="white"/>
<path d="M83.8105 12.6979C88.0105 16.6179 91.2305 21.5179 93.4705 27.3979C95.7105 33.1846 96.8305 39.7179 96.8305 46.9979V47.4179C96.8305 55.2579 95.5705 62.1646 93.0505 68.1379C90.6238 74.0179 87.2171 79.0113 82.8305 83.1179C78.5371 87.1313 73.3571 90.1646 67.2905 92.2179C61.2238 94.1779 54.6438 95.1579 47.5505 95.1579H31.8705V96.2779C31.8705 106.451 28.7438 115.131 22.4905 122.318C16.3305 129.505 8.91047 133.098 0.230469 133.098V30.4779C0.230469 22.4513 3.35713 15.4513 9.61047 9.47795C15.8638 3.41128 22.7238 0.37793 30.1905 0.37793H49.2305C56.4171 0.37793 62.9505 1.45126 68.8305 3.59793C74.7105 5.65127 79.7038 8.6846 83.8105 12.6979ZM65.0505 48.9579V48.6779C65.0505 42.8913 63.4171 38.5046 60.1505 35.5179C56.9771 32.5313 52.4971 31.0379 46.7105 31.0379H31.8705V66.3179H46.9905C52.5905 66.3179 56.9771 64.7779 60.1505 61.6979C63.4171 58.6179 65.0505 54.3713 65.0505 48.9579Z" fill="white"/>
</svg>
