<svg width="526" height="138" viewBox="0 0 526 138" fill="none" xmlns="http://www.w3.org/2000/svg">
<path d="M496.186 31.9179C496.186 24.0779 499.08 17.3579 504.866 11.7579C510.653 6.15791 517.513 3.35791 525.446 3.35791V106.958C525.446 114.891 522.553 121.658 516.766 127.258C510.98 132.858 504.166 135.658 496.326 135.658V125.438L442.986 54.1779V107.238C442.986 115.078 440.186 121.798 434.586 127.398C429.08 132.905 422.36 135.658 414.426 135.658V31.9179C414.426 23.9846 417.226 17.2646 422.826 11.7579C428.426 6.15791 435.146 3.35791 442.986 3.35791L496.186 80.0779V31.9179Z" fill="white"/>
<path d="M399.812 15.2579C402.705 19.7379 404.152 24.5912 404.152 29.8179V108.498C404.152 116.151 401.305 122.638 395.612 127.958C390.012 133.185 383.105 136.171 374.892 136.918C369.758 137.385 361.545 137.618 350.252 137.618C345.585 137.618 340.545 137.385 335.132 136.918C326.265 136.171 319.358 133.371 314.412 128.518C312.358 126.838 310.958 125.065 310.212 123.198C307.318 118.625 305.872 113.725 305.872 108.498V29.8179C305.872 22.1646 308.672 15.7246 314.272 10.4979C319.965 5.27123 326.918 2.28456 335.132 1.53789C340.265 1.07122 345.538 0.837891 350.952 0.837891C361.498 0.837891 369.478 1.07122 374.892 1.53789C383.758 2.28456 390.665 5.08456 395.612 9.93789C397.665 11.6179 399.065 13.3912 399.812 15.2579ZM374.892 99.5379V38.0779C374.518 35.8379 373.632 34.0646 372.232 32.7579C370.832 31.3579 369.012 30.6579 366.772 30.6579L343.252 30.5179C341.012 30.5179 339.192 31.2179 337.792 32.6179C336.392 34.0179 335.505 35.8379 335.132 38.0779V99.5379C335.505 101.778 336.392 103.598 337.792 104.998C339.192 106.305 341.012 106.958 343.252 106.958L366.772 107.098V106.958C369.012 106.958 370.832 106.305 372.232 104.998C373.632 103.598 374.518 101.778 374.892 99.5379Z" fill="white"/>
<path d="M216.064 118.298C214.477 114.751 213.684 111.018 213.684 107.098V31.7781C213.684 31.6848 213.684 31.6381 213.684 31.6381C213.684 31.5448 213.684 31.4515 213.684 31.3581C213.684 23.1448 215.97 16.5181 220.544 11.4781C225.117 6.34479 231.184 3.59146 238.744 3.21812V3.07812H295.444V10.6381C295.444 17.6381 293.204 23.4248 288.724 27.9981C284.244 32.5715 278.317 34.8581 270.944 34.8581V31.3581H251.624C249.664 31.6381 247.89 32.4781 246.304 33.8781C244.717 35.2781 243.737 37.0048 243.364 39.0581C243.364 39.5248 243.364 39.9448 243.364 40.3181V49.4181C243.364 49.7915 243.364 50.2581 243.364 50.8181V100.238C243.737 102.478 244.624 104.251 246.024 105.558C247.424 106.865 249.197 107.518 251.344 107.518H296.144C296.144 115.918 293.39 122.731 287.884 127.958C282.377 133.185 275.564 135.798 267.444 135.798H242.244L242.104 135.658C235.757 135.191 230.11 133.091 225.164 129.358C221.057 126.278 218.024 122.591 216.064 118.298Z" fill="white"/>
<path d="M174.899 20.4379C178.446 12.9712 183.766 7.88453 190.859 5.17786C197.953 2.37786 205.513 2.79786 213.539 6.43786L158.799 120.538C155.159 128.005 149.793 133.091 142.699 135.798C135.699 138.505 128.139 138.038 120.019 134.398L140.459 91.9779L98.8794 6.15786C106.906 2.42453 114.933 2.00453 122.959 4.89786C131.079 7.79119 136.959 12.9712 140.599 20.4379L157.679 55.9979L174.899 20.4379Z" fill="white"/>
<path d="M83.6152 14.6979C87.8152 18.6179 91.0352 23.5179 93.2752 29.3979C95.5152 35.1846 96.6352 41.7179 96.6352 48.9979V49.4179C96.6352 57.2579 95.3752 64.1646 92.8552 70.1379C90.4285 76.0179 87.0218 81.0113 82.6352 85.1179C78.3418 89.1313 73.1618 92.1646 67.0952 94.2179C61.0285 96.1779 54.4485 97.1579 47.3552 97.1579H31.6752V98.2779C31.6752 108.451 28.5485 117.131 22.2952 124.318C16.1352 131.505 8.71516 135.098 0.0351562 135.098V32.4779C0.0351562 24.4513 3.16182 17.4513 9.41516 11.4779C15.6685 5.41127 22.5285 2.37793 29.9952 2.37793H49.0352C56.2218 2.37793 62.7552 3.45126 68.6352 5.59793C74.5152 7.65127 79.5085 10.6846 83.6152 14.6979ZM64.8552 50.9579V50.6779C64.8552 44.8913 63.2218 40.5046 59.9552 37.5179C56.7818 34.5313 52.3018 33.0379 46.5152 33.0379H31.6752V68.3179H46.7952C52.3952 68.3179 56.7818 66.7779 59.9552 63.6979C63.2218 60.6179 64.8552 56.3713 64.8552 50.9579Z" fill="white"/>
</svg>
