<svg width="788" height="508" viewBox="0 0 788 508" fill="none" xmlns="http://www.w3.org/2000/svg">
<g filter="url(#filter0_dif_310_34)">
<path d="M673.63 329.358C676.43 330.851 678.904 332.718 681.05 334.958C683.197 337.198 684.83 339.764 685.95 342.658C687.164 345.458 687.77 348.444 687.77 351.618H673.63V376.818C673.63 384.938 671.157 391.704 666.21 397.118C661.263 402.531 654.637 405.238 646.33 405.238V351.618H626.73C624.303 351.618 621.923 351.338 619.59 350.778C612.683 349.658 607.177 346.531 603.07 341.398C598.963 336.264 596.91 330.151 596.91 323.058V274.198C605.403 274.198 612.124 276.484 617.07 281.058C622.11 285.538 624.63 291.651 624.63 299.398V321.658C624.63 322.871 625.05 323.898 625.89 324.738C626.824 325.578 627.897 325.998 629.11 325.998H646.33V299.118C646.33 291.184 648.757 284.978 653.61 280.498C658.464 275.924 665.137 273.638 673.63 273.638V329.358Z" fill="white"/>
<path d="M544.431 379.338H585.451C585.451 386.431 583.118 392.544 578.451 397.678C573.784 402.718 568.138 405.238 561.511 405.238H512.371V346.018C512.371 339.111 514.658 333.558 519.231 329.358C523.804 325.158 529.498 323.058 536.311 323.058H549.471C550.964 323.058 552.224 322.544 553.251 321.518C554.278 320.491 554.791 319.231 554.791 317.738V305.138C554.791 303.831 554.278 302.711 553.251 301.778C552.318 300.844 551.198 300.378 549.891 300.378H512.371C512.371 293.098 514.704 286.844 519.371 281.618C524.131 276.298 529.778 273.638 536.311 273.638H562.071C566.644 273.638 570.704 274.944 574.251 277.558C577.891 280.171 580.318 283.624 581.531 287.918C582.371 289.971 582.978 292.584 583.351 295.758V296.318C583.444 296.971 583.491 297.624 583.491 298.278V320.118C583.304 325.624 581.578 330.571 578.311 334.958C575.044 339.344 570.938 342.658 565.991 344.898C561.044 347.138 555.864 348.258 550.451 348.258H544.431C543.031 348.258 541.864 348.724 540.931 349.658C539.998 350.591 539.531 351.711 539.531 353.018V374.438C539.531 375.744 539.998 376.911 540.931 377.938C541.864 378.871 543.031 379.338 544.431 379.338Z" fill="white"/>
<path d="M466.453 272.378C475.693 272.378 483.58 275.645 490.113 282.178C496.647 288.711 499.913 296.598 499.913 305.838V371.638C499.913 380.878 496.647 388.765 490.113 395.298C483.58 401.831 475.693 405.098 466.453 405.098H453.293C444.053 405.098 436.12 401.831 429.493 395.298C422.96 388.765 419.693 380.878 419.693 371.638V305.838C419.693 296.598 422.96 288.711 429.493 282.178C436.12 275.645 444.053 272.378 453.293 272.378H466.453ZM453.293 299.398C451.52 299.398 449.98 300.051 448.673 301.358C447.367 302.571 446.713 304.065 446.713 305.838V341.538L472.893 306.818V305.838C472.893 304.065 472.24 302.571 470.933 301.358C469.72 300.051 468.227 299.398 466.453 299.398H453.293ZM466.453 378.078C468.227 378.078 469.72 377.471 470.933 376.258C472.24 374.951 472.893 373.411 472.893 371.638V336.918L446.713 371.638C446.713 373.411 447.367 374.951 448.673 376.258C449.98 377.471 451.52 378.078 453.293 378.078H466.453Z" fill="white"/>
<path d="M372.029 379.338H413.049C413.049 386.431 410.715 392.544 406.049 397.678C401.382 402.718 395.735 405.238 389.109 405.238H339.969V346.018C339.969 339.111 342.255 333.558 346.829 329.358C351.402 325.158 357.095 323.058 363.909 323.058H377.069C378.562 323.058 379.822 322.544 380.849 321.518C381.875 320.491 382.389 319.231 382.389 317.738V305.138C382.389 303.831 381.875 302.711 380.849 301.778C379.915 300.844 378.795 300.378 377.489 300.378H339.969C339.969 293.098 342.302 286.844 346.969 281.618C351.729 276.298 357.375 273.638 363.909 273.638H389.669C394.242 273.638 398.302 274.944 401.849 277.558C405.489 280.171 407.915 283.624 409.129 287.918C409.969 289.971 410.575 292.584 410.949 295.758V296.318C411.042 296.971 411.089 297.624 411.089 298.278V320.118C410.902 325.624 409.175 330.571 405.909 334.958C402.642 339.344 398.535 342.658 393.589 344.898C388.642 347.138 383.462 348.258 378.049 348.258H372.029C370.629 348.258 369.462 348.724 368.529 349.658C367.595 350.591 367.129 351.711 367.129 353.018V374.438C367.129 375.744 367.595 376.911 368.529 377.938C369.462 378.871 370.629 379.338 372.029 379.338Z" fill="white"/>
<path d="M272.033 302.338C272.033 294.404 275.066 287.638 281.133 282.038C287.293 276.438 294.713 273.638 303.393 273.638V378.218C303.393 386.244 300.313 393.058 294.153 398.658C288.086 404.258 280.713 407.058 272.033 407.058V354.138H235.773V378.218C235.773 386.244 232.693 393.058 226.533 398.658C220.373 404.258 212.999 407.058 204.413 407.058V329.918C204.226 328.798 204.133 327.678 204.133 326.558H204.413V302.338C204.413 294.404 207.446 287.638 213.513 282.038C219.673 276.438 227.093 273.638 235.773 273.638V326.558H272.033V302.338Z" fill="white"/>
<path d="M183.81 284.698C188.01 288.618 191.23 293.518 193.47 299.398C195.71 305.185 196.83 311.718 196.83 318.998V319.418C196.83 327.258 195.57 334.165 193.05 340.138C190.624 346.018 187.217 351.011 182.83 355.118C178.537 359.131 173.357 362.165 167.29 364.218C161.224 366.178 154.644 367.158 147.55 367.158H131.87V368.278C131.87 378.451 128.744 387.131 122.49 394.318C116.33 401.505 108.91 405.098 100.23 405.098V302.478C100.23 294.451 103.357 287.451 109.61 281.478C115.864 275.411 122.724 272.378 130.19 272.378H149.23C156.417 272.378 162.95 273.451 168.83 275.598C174.71 277.651 179.704 280.685 183.81 284.698ZM165.05 320.958V320.678C165.05 314.891 163.417 310.505 160.15 307.518C156.977 304.531 152.497 303.038 146.71 303.038H131.87V338.318H146.99C152.59 338.318 156.977 336.778 160.15 333.698C163.417 330.618 165.05 326.371 165.05 320.958Z" fill="white"/>
<path d="M626.186 131.918C626.186 124.078 629.079 117.358 634.866 111.758C640.652 106.158 647.512 103.358 655.446 103.358V206.958C655.446 214.891 652.552 221.658 646.766 227.258C640.979 232.858 634.166 235.658 626.326 235.658V225.438L572.986 154.178V207.238C572.986 215.078 570.186 221.798 564.586 227.398C559.079 232.905 552.359 235.658 544.426 235.658V131.918C544.426 123.985 547.226 117.265 552.826 111.758C558.426 106.158 565.146 103.358 572.986 103.358L626.186 180.078V131.918Z" fill="white"/>
<path d="M529.811 115.258C532.704 119.738 534.151 124.591 534.151 129.818V208.498C534.151 216.151 531.304 222.638 525.611 227.958C520.011 233.185 513.104 236.171 504.891 236.918C499.758 237.385 491.544 237.618 480.251 237.618C475.584 237.618 470.544 237.385 465.131 236.918C456.264 236.171 449.358 233.371 444.411 228.518C442.358 226.838 440.958 225.065 440.211 223.198C437.318 218.625 435.871 213.725 435.871 208.498V129.818C435.871 122.165 438.671 115.725 444.271 110.498C449.964 105.271 456.918 102.285 465.131 101.538C470.264 101.071 475.538 100.838 480.951 100.838C491.498 100.838 499.478 101.071 504.891 101.538C513.758 102.285 520.664 105.085 525.611 109.938C527.664 111.618 529.064 113.391 529.811 115.258ZM504.891 199.538V138.078C504.518 135.838 503.631 134.065 502.231 132.758C500.831 131.358 499.011 130.658 496.771 130.658L473.251 130.518C471.011 130.518 469.191 131.218 467.791 132.618C466.391 134.018 465.504 135.838 465.131 138.078V199.538C465.504 201.778 466.391 203.598 467.791 204.998C469.191 206.305 471.011 206.958 473.251 206.958L496.771 207.098V206.958C499.011 206.958 500.831 206.305 502.231 204.998C503.631 203.598 504.518 201.778 504.891 199.538Z" fill="white"/>
<path d="M346.064 218.298C344.477 214.751 343.684 211.018 343.684 207.098V131.778C343.684 131.685 343.684 131.638 343.684 131.638C343.684 131.545 343.684 131.451 343.684 131.358C343.684 123.145 345.97 116.518 350.544 111.478C355.117 106.345 361.184 103.591 368.744 103.218V103.078H425.444V110.638C425.444 117.638 423.204 123.425 418.724 127.998C414.244 132.571 408.317 134.858 400.944 134.858V131.358H381.624C379.664 131.638 377.89 132.478 376.304 133.878C374.717 135.278 373.737 137.005 373.364 139.058C373.364 139.525 373.364 139.945 373.364 140.318V149.418C373.364 149.791 373.364 150.258 373.364 150.818V200.238C373.737 202.478 374.624 204.251 376.024 205.558C377.424 206.865 379.197 207.518 381.344 207.518H426.144C426.144 215.918 423.39 222.731 417.884 227.958C412.377 233.185 405.564 235.798 397.444 235.798H372.244L372.104 235.658C365.757 235.191 360.11 233.091 355.164 229.358C351.057 226.278 348.024 222.591 346.064 218.298Z" fill="white"/>
<path d="M304.899 120.438C308.446 112.971 313.766 107.885 320.859 105.178C327.952 102.378 335.512 102.798 343.539 106.438L288.799 220.538C285.159 228.005 279.792 233.091 272.699 235.798C265.699 238.505 258.139 238.038 250.019 234.398L270.459 191.978L228.879 106.158C236.906 102.425 244.932 102.005 252.959 104.898C261.079 107.791 266.959 112.971 270.599 120.438L287.679 155.998L304.899 120.438Z" fill="white"/>
<path d="M213.615 114.698C217.815 118.618 221.035 123.518 223.275 129.398C225.515 135.185 226.635 141.718 226.635 148.998V149.418C226.635 157.258 225.375 164.165 222.855 170.138C220.428 176.018 217.022 181.011 212.635 185.118C208.342 189.131 203.162 192.165 197.095 194.218C191.028 196.178 184.448 197.158 177.355 197.158H161.675V198.278C161.675 208.451 158.548 217.131 152.295 224.318C146.135 231.505 138.715 235.098 130.035 235.098V132.478C130.035 124.451 133.162 117.451 139.415 111.478C145.668 105.411 152.528 102.378 159.995 102.378H179.035C186.222 102.378 192.755 103.451 198.635 105.598C204.515 107.651 209.508 110.685 213.615 114.698ZM194.855 150.958V150.678C194.855 144.891 193.222 140.505 189.955 137.518C186.782 134.531 182.302 133.038 176.515 133.038H161.675V168.318H176.795C182.395 168.318 186.782 166.778 189.955 163.698C193.222 160.618 194.855 156.371 194.855 150.958Z" fill="white"/>
</g>
<defs>
<filter id="filter0_dif_310_34" x="0.230469" y="0.837891" width="787.54" height="506.22" filterUnits="userSpaceOnUse" color-interpolation-filters="sRGB">
<feFlood flood-opacity="0" result="BackgroundImageFix"/>
<feColorMatrix in="SourceAlpha" type="matrix" values="0 0 0 0 0 0 0 0 0 0 0 0 0 0 0 0 0 0 127 0" result="hardAlpha"/>
<feOffset/>
<feGaussianBlur stdDeviation="50"/>
<feComposite in2="hardAlpha" operator="out"/>
<feColorMatrix type="matrix" values="0 0 0 0 1 0 0 0 0 1 0 0 0 0 1 0 0 0 0.3 0"/>
<feBlend mode="normal" in2="BackgroundImageFix" result="effect1_dropShadow_310_34"/>
<feBlend mode="normal" in="SourceGraphic" in2="effect1_dropShadow_310_34" result="shape"/>
<feColorMatrix in="SourceAlpha" type="matrix" values="0 0 0 0 0 0 0 0 0 0 0 0 0 0 0 0 0 0 127 0" result="hardAlpha"/>
<feOffset dy="4"/>
<feGaussianBlur stdDeviation="2"/>
<feComposite in2="hardAlpha" operator="arithmetic" k2="-1" k3="1"/>
<feColorMatrix type="matrix" values="0 0 0 0 0 0 0 0 0 0 0 0 0 0 0 0 0 0 0.15 0"/>
<feBlend mode="normal" in2="shape" result="effect2_innerShadow_310_34"/>
<feGaussianBlur stdDeviation="0.4" result="effect3_foregroundBlur_310_34"/>
</filter>
</defs>
</svg>
