<svg width="300" height="41" viewBox="0 0 300 41" fill="none" xmlns="http://www.w3.org/2000/svg">
<path d="M15.0658 12.7042H15.7018C22.3246 12.7042 27.5146 14.5536 31.2719 18.2524C33.2749 20.6939 34.2763 23.3182 34.2763 26.1252V26.498C34.2763 30.6647 32.1199 34.4074 27.807 37.7261C25.731 39.0711 23.9327 39.7437 22.4123 39.7437H22.1053C19.6199 39.7437 17.6535 38.2524 16.2061 35.27H16.1404C14.8392 36.9366 13.5161 38.1939 12.1711 39.0419C10.826 39.8021 9.6345 40.1823 8.59649 40.1823H8.42105C6.54971 40.1823 4.49561 39.1077 2.25877 36.9586C0.752924 35.2627 0 33.3767 0 31.3007V31.0375C0 27.5726 1.9883 23.8153 5.96491 19.7656C5.1462 19.9703 4.37135 20.0726 3.64035 20.0726H3.13596C2.30263 20.0726 1.88596 19.8241 1.88596 19.327V19.1296C1.88596 18.0624 3.22368 16.6369 5.89912 14.8533C8.42836 13.4206 11.4839 12.7042 15.0658 12.7042ZM6.49123 30.0945V30.2919C6.49123 31.9001 7.19298 33.0258 8.59649 33.6691L9.36403 33.7787C11.2792 33.7787 13.4649 30.8255 15.9211 24.9191C16.155 24.3928 16.8202 24.1296 17.9167 24.1296C18.8085 24.1296 19.3056 24.1077 19.4079 24.0638C21.2646 24.0638 22.193 24.4878 22.193 25.3358C21.3889 28.6691 20.9868 30.7232 20.9868 31.498V31.9147C20.9868 32.8796 21.345 33.3621 22.0614 33.3621H22.6096C23.5746 33.3621 24.8538 32.3972 26.4474 30.4673C27.3392 29.1515 27.7851 27.8211 27.7851 26.4761C27.7851 24.4439 26.981 22.7992 25.3728 21.5419C24.5541 20.9279 23.1506 20.3211 21.1623 19.7217C18.6769 19.2393 16.9518 18.998 15.9868 18.998C14.481 18.998 12.5146 20.3869 10.0877 23.1647C7.77778 26.498 6.57895 28.808 6.49123 30.0945Z" fill="white"/>
<path d="M89.057 8.42786C91.9225 8.42786 94.2105 9.31968 95.921 11.1033C97.1491 12.1998 97.7632 13.0112 97.7632 13.5375C97.7339 13.6545 97.5877 13.7495 97.3246 13.8226C94.6053 13.5156 92.6535 13.3621 91.4693 13.3621C84.3348 13.3621 78.2602 16.5053 73.2456 22.7919C71.4328 25.1457 69.8904 28.2013 68.6184 31.9586C66.5716 37.3387 63.4211 40.0287 59.1667 40.0287H58.7719C55.9942 40.0287 53.4795 38.501 51.2281 35.4454C50.8041 34.7437 50.5702 34.3928 50.5263 34.3928C49.1374 35.0653 47.9313 35.4015 46.9079 35.4015H46.6447C45.5629 35.4015 43.7646 34.6706 41.25 33.2086L41.1842 32.9015C41.1842 32.4045 42.4781 31.8124 45.0658 31.1252C47.6681 30.248 48.9766 29.634 48.9912 29.2831C49.1082 29.2831 49.2398 29.0419 49.386 28.5594V28.2086C49.386 27.6238 49.4079 26.8343 49.4518 25.8401H49.386C47.3392 27.0975 45.7675 27.7261 44.6711 27.7261C43.9693 27.7261 42.3246 26.7393 39.7368 24.7656C39.1813 24.6925 38.9035 24.4951 38.9035 24.1735C38.9035 23.9103 39.3713 23.7495 40.307 23.691C43.0117 23.1501 44.9781 22.5799 46.2061 21.9805C46.9956 21.6004 47.7997 20.9425 48.6184 20.0068C50.9722 16.9659 52.6243 15.4454 53.5746 15.4454C54.5395 15.2846 55.2559 15.0068 55.7237 14.6121C56.3816 13.9688 56.9371 13.6472 57.3904 13.6472C57.7705 13.6472 57.9605 13.8884 57.9605 14.3708C57.0249 21.8562 56.557 26.6077 56.557 28.6252C56.557 31.6369 57.3611 33.1428 58.9693 33.1428C60.0073 33.1428 60.8333 32.5653 61.4474 31.4103C62.2515 28.998 63.2237 26.6662 64.364 24.4147C65.0366 22.8504 66.3304 20.8694 68.2456 18.4717C69.9415 16.5858 71.5059 15.1384 72.9386 14.1296C75.117 12.6091 77.617 11.3007 80.4386 10.2042C83.6257 9.01997 86.4985 8.42786 89.057 8.42786Z" fill="white"/>
<path d="M118.991 12.2437H119.561C121.433 12.2437 122.997 12.7773 124.254 13.8445C125.132 14.7802 125.57 15.8255 125.57 16.9805V17.5726C125.57 18.9761 124.934 20.3431 123.662 21.6735C123.355 21.7758 123.136 21.827 123.004 21.827H122.939C122.31 21.827 121.944 21.0448 121.842 19.4805C121.462 18.4132 120.804 17.8796 119.868 17.8796C118.611 17.8796 117.215 18.8518 115.68 20.7963C113.194 23.501 111.221 27.2071 109.759 31.9147C107.785 37.2363 104.883 39.8972 101.053 39.8972L100.68 39.8314H100.175C98.3041 39.8314 96.3304 38.6325 94.2544 36.2349C92.6901 34.2612 91.9079 31.7246 91.9079 28.6252C91.9518 26.2276 92.076 23.4206 92.2807 20.2042C90.3655 19.8972 89.4079 19.3416 89.4079 18.5375C88.4576 15.9498 87.7997 14.6559 87.4342 14.6559C87.2441 14.2758 87.1491 14.0273 87.1491 13.9103V13.7787C87.1637 13.6764 87.2149 13.6252 87.3026 13.6252C90.095 14.6925 92.288 15.2261 93.8816 15.2261C95.636 15.2261 97.3684 14.7144 99.0789 13.691H99.5175C99.7661 13.8226 99.8904 14.0419 99.8904 14.3489C99.2032 20.3577 98.7646 24.8972 98.5746 27.9673C98.5746 31.2861 99.2544 32.9454 100.614 32.9454H100.987C101.908 32.9454 102.639 32.3094 103.18 31.0375C104.013 28.2305 105.351 25.0872 107.193 21.6077C111.272 15.365 115.205 12.2437 118.991 12.2437Z" fill="white"/>
<path d="M144.846 12.7042H145.482C152.105 12.7042 157.295 14.5536 161.053 18.2524C163.056 20.6939 164.057 23.3182 164.057 26.1252V26.498C164.057 30.6647 161.901 34.4074 157.588 37.7261C155.512 39.0711 153.713 39.7437 152.193 39.7437H151.886C149.401 39.7437 147.434 38.2524 145.987 35.27H145.921C144.62 36.9366 143.297 38.1939 141.952 39.0419C140.607 39.8021 139.415 40.1823 138.377 40.1823H138.202C136.33 40.1823 134.276 39.1077 132.039 36.9586C130.534 35.2627 129.781 33.3767 129.781 31.3007V31.0375C129.781 27.5726 131.769 23.8153 135.746 19.7656C134.927 19.9703 134.152 20.0726 133.421 20.0726H132.917C132.083 20.0726 131.667 19.8241 131.667 19.327V19.1296C131.667 18.0624 133.004 16.6369 135.68 14.8533C138.209 13.4206 141.265 12.7042 144.846 12.7042ZM136.272 30.0945V30.2919C136.272 31.9001 136.974 33.0258 138.377 33.6691L139.145 33.7787C141.06 33.7787 143.246 30.8255 145.702 24.9191C145.936 24.3928 146.601 24.1296 147.697 24.1296C148.589 24.1296 149.086 24.1077 149.189 24.0638C151.045 24.0638 151.974 24.4878 151.974 25.3358C151.17 28.6691 150.768 30.7232 150.768 31.498V31.9147C150.768 32.8796 151.126 33.3621 151.842 33.3621H152.39C153.355 33.3621 154.635 32.3972 156.228 30.4673C157.12 29.1515 157.566 27.8211 157.566 26.4761C157.566 24.4439 156.762 22.7992 155.154 21.5419C154.335 20.9279 152.931 20.3211 150.943 19.7217C148.458 19.2393 146.732 18.998 145.768 18.998C144.262 18.998 142.295 20.3869 139.868 23.1647C137.558 26.498 136.36 28.808 136.272 30.0945Z" fill="white"/>
<path d="M218.838 8.42786C221.703 8.42786 223.991 9.31968 225.702 11.1033C226.93 12.1998 227.544 13.0112 227.544 13.5375C227.515 13.6545 227.368 13.7495 227.105 13.8226C224.386 13.5156 222.434 13.3621 221.25 13.3621C214.115 13.3621 208.041 16.5053 203.026 22.7919C201.213 25.1457 199.671 28.2013 198.399 31.9586C196.352 37.3387 193.202 40.0287 188.947 40.0287H188.553C185.775 40.0287 183.26 38.501 181.009 35.4454C180.585 34.7437 180.351 34.3928 180.307 34.3928C178.918 35.0653 177.712 35.4015 176.689 35.4015H176.425C175.344 35.4015 173.545 34.6706 171.031 33.2086L170.965 32.9015C170.965 32.4045 172.259 31.8124 174.846 31.1252C177.449 30.248 178.757 29.634 178.772 29.2831C178.889 29.2831 179.02 29.0419 179.167 28.5594V28.2086C179.167 27.6238 179.189 26.8343 179.232 25.8401H179.167C177.12 27.0975 175.548 27.7261 174.452 27.7261C173.75 27.7261 172.105 26.7393 169.518 24.7656C168.962 24.6925 168.684 24.4951 168.684 24.1735C168.684 23.9103 169.152 23.7495 170.088 23.691C172.792 23.1501 174.759 22.5799 175.987 21.9805C176.776 21.6004 177.58 20.9425 178.399 20.0068C180.753 16.9659 182.405 15.4454 183.355 15.4454C184.32 15.2846 185.037 15.0068 185.504 14.6121C186.162 13.9688 186.718 13.6472 187.171 13.6472C187.551 13.6472 187.741 13.8884 187.741 14.3708C186.806 21.8562 186.338 26.6077 186.338 28.6252C186.338 31.6369 187.142 33.1428 188.75 33.1428C189.788 33.1428 190.614 32.5653 191.228 31.4103C192.032 28.998 193.004 26.6662 194.145 24.4147C194.817 22.8504 196.111 20.8694 198.026 18.4717C199.722 16.5858 201.287 15.1384 202.719 14.1296C204.898 12.6091 207.398 11.3007 210.219 10.2042C213.406 9.01997 216.279 8.42786 218.838 8.42786Z" fill="white"/>
<path d="M248.772 12.2437H249.342C251.213 12.2437 252.778 12.7773 254.035 13.8445C254.912 14.7802 255.351 15.8255 255.351 16.9805V17.5726C255.351 18.9761 254.715 20.3431 253.443 21.6735C253.136 21.7758 252.917 21.827 252.785 21.827H252.719C252.091 21.827 251.725 21.0448 251.623 19.4805C251.243 18.4132 250.585 17.8796 249.649 17.8796C248.392 17.8796 246.996 18.8518 245.461 20.7963C242.975 23.501 241.001 27.2071 239.539 31.9147C237.566 37.2363 234.664 39.8972 230.833 39.8972L230.461 39.8314H229.956C228.085 39.8314 226.111 38.6325 224.035 36.2349C222.471 34.2612 221.689 31.7246 221.689 28.6252C221.732 26.2276 221.857 23.4206 222.061 20.2042C220.146 19.8972 219.189 19.3416 219.189 18.5375C218.238 15.9498 217.58 14.6559 217.215 14.6559C217.025 14.2758 216.93 14.0273 216.93 13.9103V13.7787C216.944 13.6764 216.996 13.6252 217.083 13.6252C219.876 14.6925 222.069 15.2261 223.662 15.2261C225.417 15.2261 227.149 14.7144 228.86 13.691H229.298C229.547 13.8226 229.671 14.0419 229.671 14.3489C228.984 20.3577 228.545 24.8972 228.355 27.9673C228.355 31.2861 229.035 32.9454 230.395 32.9454H230.768C231.689 32.9454 232.42 32.3094 232.961 31.0375C233.794 28.2305 235.132 25.0872 236.974 21.6077C241.053 15.365 244.985 12.2437 248.772 12.2437Z" fill="white"/>
<path d="M237.763 0.993652H238.202C238.523 0.993652 240.044 1.08137 242.763 1.25681H243.026C243.275 1.25681 243.421 1.66617 243.465 2.48488V2.74804C243.465 5.0726 241.681 6.71003 238.114 7.66032C235.629 8.0112 234.225 8.18663 233.904 8.18663H233.465C232.544 8.18663 231.959 7.36792 231.711 5.73049V4.8533C231.711 2.92348 233.143 1.66617 236.009 1.08137C236.798 1.02289 237.383 0.993652 237.763 0.993652Z" fill="white"/>
<path d="M280.899 9.23927H281.513C287.975 9.23927 293.063 12.463 296.776 18.9103C298.925 23.3401 300 28.2305 300 33.5814C300 36.9439 299.262 38.9834 297.785 39.6998C297.346 40.0068 296.652 40.1603 295.702 40.1603C293.947 40.1603 292.873 38.8518 292.478 36.2349C292.273 27.4045 291.996 22.9893 291.645 22.9893C290.826 20.4308 289.262 18.4206 286.952 16.9586C286.323 16.5492 285.943 16.3445 285.811 16.3445V16.4322C285.914 16.9147 285.965 17.1852 285.965 17.2437C285.95 17.7115 285.665 18.2159 285.11 18.7568V18.8445C286.747 19.7363 287.566 21.0229 287.566 22.7042V23.2963C287.566 25.0507 285.958 27.4703 282.741 30.5551C280.022 33.5521 278.662 35.9498 278.662 37.748C278.662 38.3767 279.152 39.0053 280.132 39.634V39.6998C279.81 40.5624 279.064 40.9937 277.895 40.9937H277.215C275.373 40.9937 274.247 40.058 273.838 38.1866C273.779 37.6749 273.75 37.2729 273.75 36.9805V36.827C273.75 32.8942 275.387 29.3197 278.662 26.1033C280.914 23.8811 282.039 22.6165 282.039 22.3094H281.974C281.769 22.3094 279.898 23.5448 276.36 26.0156C276.272 26.0741 276.17 26.1033 276.053 26.1033H275.987C275.577 26.001 274.708 24.4659 273.377 21.498V21.4103C273.406 21.2641 274.094 21.0375 275.439 20.7305C276.228 20.3358 277.507 19.1515 279.276 17.1779V17.1121C279.072 16.8051 278.64 16.6515 277.982 16.6515C276.462 16.7685 274.518 17.8284 272.149 19.8314C269.62 22.5653 267.953 25.2846 267.149 27.9893C266.637 29.8168 266.104 32.4629 265.548 35.9279C264.569 38.6472 263.75 40.0068 263.092 40.0068H262.697C262.317 40.0068 261.886 39.4001 261.404 38.1866C260.219 36.8855 259.627 35.9571 259.627 35.4015C259.525 35.036 259.474 34.6048 259.474 34.1077C259.474 29.9118 260.395 25.7086 262.237 21.498C263.056 19.8899 264.386 18.0697 266.228 16.0375C269.064 13.3767 271.776 11.5931 274.364 10.6866C276.674 9.72172 278.852 9.23927 280.899 9.23927Z" fill="white"/>
</svg>
