<svg width="80" height="81" viewBox="0 0 80 81" fill="none" xmlns="http://www.w3.org/2000/svg">
<g opacity="0.3">
<path d="M40 7.66016C21.6146 7.66016 6.66669 22.6081 6.66669 40.9935C6.66669 59.3789 21.6146 74.3268 40 74.3268C58.3854 74.3268 73.3333 59.3789 73.3333 40.9935C73.3333 22.6081 58.3854 7.66016 40 7.66016ZM48.6285 40.9935L43.3334 35.6984V54.3268C43.3334 56.1671 41.8403 57.6602 40 57.6602C38.1597 57.6602 36.6667 56.1671 36.6667 54.3268V35.6984L31.3715 40.9935C30.0868 42.2956 27.9688 42.2956 26.6667 40.9935C25.3646 39.6914 25.3646 37.5733 26.6667 36.2886L37.6389 25.299C38.941 23.997 41.059 23.997 42.3611 25.299L53.3334 36.2886C54.6354 37.5733 54.6354 39.6914 53.3334 40.9935C52.0313 42.2956 49.9132 42.2956 48.6285 40.9935Z" fill="black"/>
</g>
</svg>
