<svg width="1052" height="141" viewBox="0 0 1052 141" fill="none" xmlns="http://www.w3.org/2000/svg">
<path d="M31.2899 9.45577C46.631 9.45577 58.409 12.1776 66.624 17.6212C74.8389 22.9659 78.9464 31.7746 78.9464 44.0475C78.9464 56.4194 74.7894 65.3767 66.4755 70.9193C58.1616 76.3629 46.2846 79.0847 30.8445 79.0847H23.5698V113.528H0.409668V12.1281C5.4574 11.1383 10.802 10.4455 16.4436 10.0496C22.0852 9.65372 27.0339 9.45577 31.2899 9.45577ZM32.7745 29.2013C31.0919 29.2013 29.4094 29.2508 27.7268 29.3498C26.1432 29.4487 24.7575 29.5477 23.5698 29.6467V59.3392H30.8445C38.8615 59.3392 44.8989 58.2505 48.9569 56.073C53.0149 53.8956 55.0439 49.8376 55.0439 43.8991C55.0439 41.0288 54.4995 38.6534 53.4108 36.7729C52.421 34.8924 50.9364 33.4077 48.9569 32.319C47.0764 31.1313 44.7505 30.3395 41.9792 29.9436C39.2079 29.4487 36.1397 29.2013 32.7745 29.2013Z" fill="#1A2851"/>
<path d="M166.7 35.4367C162.247 50.4809 157.595 64.5849 152.745 77.7485C147.895 90.9122 142.6 103.68 136.86 116.052C134.781 120.506 132.703 124.267 130.624 127.335C128.546 130.502 126.269 133.076 123.795 135.055C121.32 137.134 118.5 138.618 115.332 139.509C112.264 140.499 108.652 140.994 104.495 140.994C101.031 140.994 97.8139 140.647 94.8446 139.954C91.9743 139.361 89.5989 138.668 87.7184 137.876L91.5784 120.209C93.8549 121.001 95.8838 121.545 97.6654 121.842C99.4469 122.139 101.327 122.287 103.307 122.287C107.266 122.287 110.285 121.199 112.363 119.021C114.541 116.943 116.372 114.023 117.856 110.262C112.809 100.364 107.761 89.2791 102.713 77.0062C97.6654 64.6343 92.9146 50.7778 88.4607 35.4367H111.918C112.908 39.2967 114.046 43.5032 115.332 48.056C116.718 52.5099 118.153 57.0628 119.638 61.7146C121.122 66.2674 122.607 70.7213 124.092 75.0762C125.675 79.4311 127.16 83.3901 128.546 86.9532C129.832 83.3901 131.168 79.4311 132.554 75.0762C133.94 70.7213 135.276 66.2674 136.563 61.7146C137.948 57.0628 139.235 52.5099 140.423 48.056C141.709 43.5032 142.847 39.2967 143.837 35.4367H166.7Z" fill="#1A2851"/>
<path d="M226.958 115.606C210.231 115.606 197.463 110.955 188.654 101.651C179.945 92.3474 175.59 79.1342 175.59 62.0115C175.59 53.4997 176.926 45.9281 179.598 39.2967C182.27 32.5664 185.933 26.9249 190.584 22.372C195.236 17.7202 200.779 14.2066 207.212 11.8312C213.646 9.45577 220.623 8.26807 228.145 8.26807C232.5 8.26807 236.459 8.61448 240.022 9.30731C243.586 9.90116 246.703 10.6435 249.376 11.5342C252.048 12.326 254.275 13.1673 256.056 14.0581C257.838 14.9489 259.125 15.6417 259.916 16.1366L253.236 34.8429C250.068 33.1603 246.357 31.7251 242.101 30.5375C237.944 29.3498 233.193 28.7559 227.848 28.7559C224.285 28.7559 220.772 29.3498 217.308 30.5375C213.942 31.7251 210.924 33.6552 208.251 36.3275C205.678 38.9008 203.6 42.266 202.016 46.4229C200.432 50.5799 199.641 55.6276 199.641 61.5661C199.641 66.3169 200.135 70.7708 201.125 74.9277C202.214 78.9857 203.897 82.4993 206.173 85.4686C208.548 88.4378 211.617 90.8132 215.378 92.5948C219.139 94.2774 223.692 95.1187 229.036 95.1187C232.401 95.1187 235.42 94.9207 238.092 94.5248C240.765 94.1289 243.14 93.6835 245.219 93.1886C247.297 92.5948 249.128 91.9515 250.712 91.2586C252.295 90.5658 253.73 89.9225 255.017 89.3286L261.401 107.886C258.135 109.866 253.533 111.647 247.594 113.231C241.656 114.815 234.777 115.606 226.958 115.606Z" fill="#1A2851"/>
<path d="M346.131 74.3339C346.131 80.4704 345.241 86.1119 343.459 91.2586C341.677 96.3064 339.104 100.661 335.739 104.323C332.374 107.886 328.316 110.658 323.565 112.637C318.913 114.617 313.668 115.606 307.828 115.606C302.087 115.606 296.842 114.617 292.091 112.637C287.439 110.658 283.431 107.886 280.066 104.323C276.7 100.661 274.078 96.3064 272.197 91.2586C270.316 86.1119 269.376 80.4704 269.376 74.3339C269.376 68.1975 270.316 62.6054 272.197 57.5576C274.177 52.5099 276.849 48.2045 280.214 44.6414C283.678 41.0783 287.736 38.307 292.388 36.3275C297.139 34.348 302.285 33.3582 307.828 33.3582C313.47 33.3582 318.616 34.348 323.268 36.3275C328.019 38.307 332.077 41.0783 335.442 44.6414C338.807 48.2045 341.43 52.5099 343.311 57.5576C345.191 62.6054 346.131 68.1975 346.131 74.3339ZM323.565 74.3339C323.565 67.5046 322.179 62.16 319.408 58.2999C316.736 54.3409 312.876 52.3614 307.828 52.3614C302.78 52.3614 298.871 54.3409 296.099 58.2999C293.328 62.16 291.943 67.5046 291.943 74.3339C291.943 81.1632 293.328 86.6068 296.099 90.6648C298.871 94.6238 302.78 96.6033 307.828 96.6033C312.876 96.6033 316.736 94.6238 319.408 90.6648C322.179 86.6068 323.565 81.1632 323.565 74.3339Z" fill="#1A2851"/>
<path d="M363.267 38.109C367.028 37.0203 371.878 36.0306 377.817 35.1398C383.755 34.15 389.99 33.6552 396.523 33.6552C403.154 33.6552 408.647 34.5459 413.002 36.3275C417.456 38.0101 420.97 40.435 423.543 43.6022C426.116 46.7694 427.947 50.5304 429.036 54.8853C430.125 59.2402 430.669 64.09 430.669 69.4346V113.528H408.548V72.107C408.548 64.9808 407.608 59.933 405.727 56.9638C403.847 53.9945 400.333 52.5099 395.187 52.5099C393.603 52.5099 391.92 52.6089 390.139 52.8068C388.357 52.9058 386.774 53.0543 385.388 53.2522V113.528H363.267V38.109Z" fill="#1A2851"/>
<path d="M518.723 9.45577C534.064 9.45577 545.842 12.1776 554.057 17.6212C562.272 22.9659 566.379 31.7746 566.379 44.0475C566.379 56.4194 562.222 65.3767 553.908 70.9193C545.594 76.3629 533.717 79.0847 518.277 79.0847H511.002V113.528H487.842V12.1281C492.89 11.1383 498.235 10.4455 503.876 10.0496C509.518 9.65372 514.467 9.45577 518.723 9.45577ZM520.207 29.2013C518.525 29.2013 516.842 29.2508 515.159 29.3498C513.576 29.4487 512.19 29.5477 511.002 29.6467V59.3392H518.277C526.294 59.3392 532.332 58.2505 536.39 56.073C540.448 53.8956 542.477 49.8376 542.477 43.8991C542.477 41.0288 541.932 38.6534 540.844 36.7729C539.854 34.8924 538.369 33.4077 536.39 32.319C534.509 31.1313 532.183 30.3395 529.412 29.9436C526.641 29.4487 523.572 29.2013 520.207 29.2013Z" fill="#1A2851"/>
<path d="M645.443 10.6435H668.604V113.528H645.443V69.88H606.546V113.528H583.386V10.6435H606.546V49.986H645.443V10.6435Z" fill="#1A2851"/>
<path d="M789.839 37.6637C789.839 41.4247 789.097 45.0373 787.613 48.5014C786.128 51.9655 784.198 55.3307 781.823 58.5969C779.447 61.7641 776.775 64.8323 773.806 67.8015C770.836 70.7708 767.917 73.5916 765.046 76.2639C763.562 77.6496 761.929 79.2332 760.147 81.0147C758.464 82.6973 756.831 84.4294 755.248 86.2109C753.664 87.9925 752.229 89.675 750.942 91.2586C749.755 92.7433 749.012 93.9804 748.715 94.9702H792.957V113.528H724.367C724.17 112.439 724.071 111.054 724.071 109.371C724.071 107.688 724.071 106.501 724.071 105.808C724.071 101.057 724.813 96.7023 726.298 92.7433C727.881 88.7843 729.91 85.1222 732.384 81.757C734.859 78.2929 737.63 75.0762 740.698 72.107C743.866 69.1377 746.983 66.1685 750.052 63.1992C752.427 60.9228 754.654 58.7948 756.732 56.8153C758.811 54.7368 760.642 52.7573 762.225 50.8768C763.809 48.8973 765.046 46.9673 765.937 45.0868C766.828 43.1073 767.273 41.1278 767.273 39.1483C767.273 34.7934 766.036 31.7252 763.562 29.9436C761.087 28.1621 758.019 27.2713 754.357 27.2713C751.685 27.2713 749.161 27.7167 746.785 28.6074C744.509 29.3992 742.381 30.389 740.401 31.5767C738.521 32.6654 736.888 33.8036 735.502 34.9913C734.117 36.0801 733.077 36.9708 732.384 37.6637L721.398 22.2236C725.753 18.1656 730.801 14.8499 736.542 12.2766C742.381 9.60423 748.616 8.26807 755.248 8.26807C761.285 8.26807 766.481 8.96089 770.836 10.3465C775.191 11.7322 778.754 13.7117 781.526 16.285C784.396 18.7594 786.474 21.8276 787.761 25.4897C789.147 29.0528 789.839 33.1108 789.839 37.6637Z" fill="#1A2851"/>
<path d="M879.861 61.863C879.861 79.1837 876.546 92.4958 869.914 101.799C863.382 111.004 854.326 115.606 842.746 115.606C831.165 115.606 822.06 111.004 815.428 101.799C808.896 92.4958 805.63 79.1837 805.63 61.863C805.63 53.2522 806.471 45.6311 808.154 38.9998C809.935 32.3685 812.459 26.7764 815.725 22.2236C818.992 17.6707 822.901 14.2066 827.454 11.8312C832.007 9.45577 837.104 8.26807 842.746 8.26807C854.326 8.26807 863.382 12.9199 869.914 22.2236C876.546 31.4282 879.861 44.6414 879.861 61.863ZM857.295 61.863C857.295 56.7163 857.047 52.0645 856.553 47.9076C856.058 43.6516 855.266 39.9896 854.177 36.9213C853.088 33.8531 851.604 31.4777 849.723 29.7951C847.843 28.1126 845.517 27.2713 842.746 27.2713C839.974 27.2713 837.648 28.1126 835.768 29.7951C833.986 31.4777 832.502 33.8531 831.314 36.9213C830.225 39.9896 829.433 43.6516 828.939 47.9076C828.444 52.0645 828.196 56.7163 828.196 61.863C828.196 67.0098 828.444 71.7111 828.939 75.967C829.433 80.2229 830.225 83.885 831.314 86.9532C832.502 90.0214 833.986 92.3969 835.768 94.0794C837.648 95.762 839.974 96.6033 842.746 96.6033C845.517 96.6033 847.843 95.762 849.723 94.0794C851.604 92.3969 853.088 90.0214 854.177 86.9532C855.266 83.885 856.058 80.2229 856.553 75.967C857.047 71.7111 857.295 67.0098 857.295 61.863Z" fill="#1A2851"/>
<path d="M958.6 37.6637C958.6 41.4247 957.857 45.0373 956.373 48.5014C954.888 51.9655 952.958 55.3307 950.583 58.5969C948.207 61.7641 945.535 64.8323 942.566 67.8015C939.596 70.7708 936.677 73.5916 933.806 76.2639C932.322 77.6496 930.689 79.2332 928.907 81.0147C927.225 82.6973 925.591 84.4294 924.008 86.2109C922.424 87.9925 920.989 89.675 919.702 91.2586C918.515 92.7433 917.772 93.9804 917.476 94.9702H961.717V113.528H893.128C892.93 112.439 892.831 111.054 892.831 109.371C892.831 107.688 892.831 106.501 892.831 105.808C892.831 101.057 893.573 96.7023 895.058 92.7433C896.641 88.7843 898.67 85.1222 901.145 81.757C903.619 78.2929 906.39 75.0762 909.459 72.107C912.626 69.1377 915.744 66.1685 918.812 63.1992C921.187 60.9228 923.414 58.7948 925.492 56.8153C927.571 54.7368 929.402 52.7573 930.986 50.8768C932.569 48.8973 933.806 46.9673 934.697 45.0868C935.588 43.1073 936.033 41.1278 936.033 39.1483C936.033 34.7934 934.796 31.7252 932.322 29.9436C929.847 28.1621 926.779 27.2713 923.117 27.2713C920.445 27.2713 917.921 27.7167 915.546 28.6074C913.269 29.3992 911.141 30.389 909.162 31.5767C907.281 32.6654 905.648 33.8036 904.262 34.9913C902.877 36.0801 901.837 36.9708 901.145 37.6637L890.158 22.2236C894.513 18.1656 899.561 14.8499 905.302 12.2766C911.141 9.60423 917.377 8.26807 924.008 8.26807C930.045 8.26807 935.242 8.96089 939.596 10.3465C943.951 11.7322 947.514 13.7117 950.286 16.285C953.156 18.7594 955.234 21.8276 956.521 25.4897C957.907 29.0528 958.6 33.1108 958.6 37.6637Z" fill="#1A2851"/>
<path d="M1003.19 115.755C1000.52 115.755 997.699 115.557 994.729 115.161C991.76 114.864 988.89 114.419 986.119 113.825C983.347 113.231 980.823 112.588 978.547 111.895C976.271 111.202 974.489 110.559 973.202 109.965L977.508 91.5556C980.081 92.6443 983.347 93.832 987.306 95.1187C991.364 96.3064 996.363 96.9002 1002.3 96.9002C1009.13 96.9002 1014.13 95.6135 1017.3 93.0402C1020.46 90.4668 1022.05 87.0027 1022.05 82.6478C1022.05 79.9755 1021.45 77.7485 1020.26 75.967C1019.18 74.0865 1017.64 72.6018 1015.66 71.5131C1013.68 70.3254 1011.31 69.5336 1008.54 69.1377C1005.86 68.6428 1002.99 68.3954 999.926 68.3954H991.315V50.5799H1001.11C1003.29 50.5799 1005.37 50.3819 1007.35 49.986C1009.43 49.5901 1011.26 48.9468 1012.84 48.056C1014.43 47.0663 1015.66 45.7796 1016.55 44.196C1017.54 42.5134 1018.04 40.435 1018.04 37.9606C1018.04 36.0801 1017.64 34.447 1016.85 33.0613C1016.06 31.6757 1015.02 30.5374 1013.73 29.6467C1012.54 28.7559 1011.11 28.1126 1009.43 27.7167C1007.84 27.2218 1006.21 26.9744 1004.53 26.9744C1000.27 26.9744 996.313 27.6177 992.651 28.9044C989.088 30.191 985.822 31.7746 982.852 33.6552L974.984 17.4727C976.568 16.483 978.398 15.4438 980.477 14.355C982.654 13.2663 985.03 12.2766 987.603 11.3858C990.177 10.495 992.898 9.7527 995.769 9.15885C998.738 8.56499 1001.86 8.26807 1005.12 8.26807C1011.16 8.26807 1016.36 9.01038 1020.71 10.495C1025.16 11.8807 1028.83 13.9096 1031.7 16.582C1034.57 19.1553 1036.69 22.2235 1038.08 25.7866C1039.47 29.2508 1040.16 33.0613 1040.16 37.2183C1040.16 41.2762 1039.02 45.2352 1036.74 49.0953C1034.47 52.8563 1031.4 55.7266 1027.54 57.7061C1032.88 59.8835 1036.99 63.1497 1039.86 67.5046C1042.83 71.7606 1044.32 76.9072 1044.32 82.9447C1044.32 87.6955 1043.52 92.0999 1041.94 96.1579C1040.36 100.117 1037.88 103.581 1034.52 106.55C1031.15 109.421 1026.85 111.697 1021.6 113.38C1016.45 114.963 1010.32 115.755 1003.19 115.755Z" fill="#1A2851"/>
<path d="M38.5639 2.18136C53.9051 2.18136 65.6831 4.90317 73.898 10.3468C82.1129 15.6914 86.2204 24.5002 86.2204 36.7731C86.2204 49.145 82.0635 58.1022 73.7495 63.6449C65.4356 69.0885 53.5586 71.8103 38.1185 71.8103H30.8439V106.254H7.68372V4.85368C12.7314 3.86393 18.0761 3.17111 23.7177 2.77521C29.3592 2.37931 34.308 2.18136 38.5639 2.18136ZM40.0485 21.9269C38.366 21.9269 36.6834 21.9764 35.0008 22.0753C33.4172 22.1743 32.0316 22.2733 30.8439 22.3723V52.0648H38.1185C46.1355 52.0648 52.173 50.976 56.231 48.7986C60.2889 46.6211 62.3179 42.5632 62.3179 36.6247C62.3179 33.7544 61.7736 31.379 60.6848 29.4985C59.6951 27.6179 58.2105 26.1333 56.231 25.0446C54.3504 23.8569 52.0245 23.0651 49.2532 22.6692C46.4819 22.1743 43.4137 21.9269 40.0485 21.9269Z" fill="white"/>
<path d="M173.975 28.1623C169.521 43.2065 164.869 57.3105 160.019 70.4741C155.169 83.6378 149.874 96.4056 144.134 108.777C142.055 113.231 139.977 116.992 137.898 120.061C135.82 123.228 133.543 125.801 131.069 127.781C128.594 129.859 125.774 131.344 122.606 132.235C119.538 133.224 115.926 133.719 111.769 133.719C108.305 133.719 105.088 133.373 102.119 132.68C99.2484 132.086 96.873 131.393 94.9924 130.601L98.8525 112.934C101.129 113.726 103.158 114.271 104.939 114.568C106.721 114.864 108.602 115.013 110.581 115.013C114.54 115.013 117.559 113.924 119.637 111.747C121.815 109.668 123.646 106.748 125.13 102.987C120.083 93.0899 115.035 82.0047 109.987 69.7318C104.939 57.3599 100.189 43.5034 95.7348 28.1623H119.192C120.182 32.0223 121.32 36.2288 122.606 40.7816C123.992 45.2355 125.427 49.7883 126.912 54.4402C128.397 58.993 129.881 63.4469 131.366 67.8018C132.949 72.1567 134.434 76.1157 135.82 79.6788C137.106 76.1157 138.442 72.1567 139.828 67.8018C141.214 63.4469 142.55 58.993 143.837 54.4402C145.222 49.7883 146.509 45.2355 147.697 40.7816C148.983 36.2288 150.122 32.0223 151.111 28.1623H173.975Z" fill="white"/>
<path d="M234.232 108.332C217.505 108.332 204.737 103.68 195.928 94.3766C187.219 85.0729 182.864 71.8598 182.864 54.7371C182.864 46.2252 184.2 38.6537 186.872 32.0223C189.545 25.292 193.207 19.6504 197.858 15.0976C202.51 10.4458 208.053 6.93216 214.486 4.55675C220.92 2.18135 227.897 0.993652 235.419 0.993652C239.774 0.993652 243.733 1.34007 247.296 2.03289C250.86 2.62674 253.977 3.36905 256.65 4.25983C259.322 5.05163 261.549 5.89292 263.33 6.7837C265.112 7.67447 266.399 8.3673 267.19 8.86217L260.51 27.5684C257.342 25.8859 253.631 24.4507 249.375 23.263C245.218 22.0753 240.467 21.4815 235.123 21.4815C231.559 21.4815 228.046 22.0753 224.582 23.263C221.217 24.4507 218.198 26.3807 215.525 29.0531C212.952 31.6264 210.874 34.9916 209.29 39.1485C207.706 43.3055 206.915 48.3532 206.915 54.2917C206.915 59.0425 207.41 63.4964 208.399 67.6533C209.488 71.7113 211.171 75.2249 213.447 78.1942C215.822 81.1634 218.891 83.5388 222.652 85.3204C226.413 87.003 230.966 87.8442 236.31 87.8442C239.675 87.8442 242.694 87.6463 245.366 87.2504C248.039 86.8545 250.414 86.4091 252.493 85.9142C254.571 85.3204 256.402 84.677 257.986 83.9842C259.569 83.2914 261.005 82.6481 262.291 82.0542L268.675 100.612C265.409 102.592 260.807 104.373 254.868 105.957C248.93 107.54 242.051 108.332 234.232 108.332Z" fill="white"/>
<path d="M353.405 67.0595C353.405 73.1959 352.515 78.8375 350.733 83.9842C348.952 89.0319 346.378 93.3868 343.013 97.0489C339.648 100.612 335.59 103.383 330.839 105.363C326.187 107.342 320.942 108.332 315.102 108.332C309.362 108.332 304.116 107.342 299.365 105.363C294.713 103.383 290.705 100.612 287.34 97.0489C283.974 93.3868 281.352 89.0319 279.471 83.9842C277.591 78.8375 276.65 73.1959 276.65 67.0595C276.65 60.923 277.591 55.3309 279.471 50.2832C281.451 45.2355 284.123 40.9301 287.488 37.367C290.952 33.8039 295.01 31.0326 299.662 29.0531C304.413 27.0736 309.559 26.0838 315.102 26.0838C320.744 26.0838 325.89 27.0736 330.542 29.0531C335.293 31.0326 339.351 33.8039 342.716 37.367C346.081 40.9301 348.704 45.2355 350.585 50.2832C352.465 55.3309 353.405 60.923 353.405 67.0595ZM330.839 67.0595C330.839 60.2302 329.453 54.8856 326.682 51.0255C324.01 47.0665 320.15 45.087 315.102 45.087C310.054 45.087 306.145 47.0665 303.374 51.0255C300.602 54.8856 299.217 60.2302 299.217 67.0595C299.217 73.8888 300.602 79.3324 303.374 83.3904C306.145 87.3494 310.054 89.3289 315.102 89.3289C320.15 89.3289 324.01 87.3494 326.682 83.3904C329.453 79.3324 330.839 73.8888 330.839 67.0595Z" fill="white"/>
<path d="M370.541 30.8346C374.302 29.7459 379.152 28.7561 385.091 27.8654C391.029 26.8756 397.264 26.3807 403.797 26.3807C410.428 26.3807 415.921 27.2715 420.276 29.0531C424.73 30.7357 428.244 33.1605 430.817 36.3277C433.39 39.4949 435.221 43.256 436.31 47.6109C437.399 51.9658 437.943 56.8156 437.943 62.1602V106.254H415.822V64.8326C415.822 57.7063 414.882 52.6586 413.002 49.6894C411.121 46.7201 407.607 45.2355 402.461 45.2355C400.877 45.2355 399.195 45.3345 397.413 45.5324C395.631 45.6314 394.048 45.7799 392.662 45.9778V106.254H370.541V30.8346Z" fill="white"/>
<path d="M525.997 2.18136C541.338 2.18136 553.116 4.90317 561.331 10.3468C569.546 15.6914 573.653 24.5002 573.653 36.7731C573.653 49.145 569.496 58.1022 561.182 63.6449C552.868 69.0885 540.991 71.8103 525.551 71.8103H518.277V106.254H495.116V4.85368C500.164 3.86393 505.509 3.17111 511.15 2.77521C516.792 2.37931 521.741 2.18136 525.997 2.18136ZM527.481 21.9269C525.799 21.9269 524.116 21.9764 522.433 22.0753C520.85 22.1743 519.464 22.2733 518.277 22.3723V52.0648H525.551C533.568 52.0648 539.606 50.976 543.664 48.7986C547.722 46.6211 549.751 42.5632 549.751 36.6247C549.751 33.7544 549.206 31.379 548.118 29.4985C547.128 27.6179 545.643 26.1333 543.664 25.0446C541.783 23.8569 539.457 23.0651 536.686 22.6692C533.915 22.1743 530.846 21.9269 527.481 21.9269Z" fill="white"/>
<path d="M652.718 3.36906H675.878V106.254H652.718V62.6056H613.82V106.254H590.66V3.36906H613.82V42.7116H652.718V3.36906Z" fill="white"/>
<path d="M797.114 30.3892C797.114 34.1503 796.371 37.7629 794.887 41.227C793.402 44.6911 791.472 48.0563 789.097 51.3225C786.721 54.4897 784.049 57.5579 781.08 60.5271C778.11 63.4964 775.191 66.3172 772.32 68.9895C770.836 70.3752 769.203 71.9587 767.421 73.7403C765.738 75.4229 764.105 77.1549 762.522 78.9365C760.938 80.718 759.503 82.4006 758.216 83.9842C757.029 85.4688 756.286 86.706 755.989 87.6958H800.231V106.254H731.642C731.444 105.165 731.345 103.779 731.345 102.097C731.345 100.414 731.345 99.2264 731.345 98.5336C731.345 93.7827 732.087 89.4278 733.572 85.4688C735.155 81.5098 737.184 77.8478 739.659 74.4826C742.133 71.0185 744.904 67.8018 747.972 64.8326C751.14 61.8633 754.257 58.894 757.326 55.9248C759.701 53.6484 761.928 51.5204 764.006 49.5409C766.085 47.4624 767.916 45.4829 769.5 43.6024C771.083 41.6229 772.32 39.6929 773.211 37.8124C774.102 35.8329 774.547 33.8534 774.547 31.8739C774.547 27.519 773.31 24.4507 770.836 22.6692C768.361 20.8876 765.293 19.9969 761.631 19.9969C758.959 19.9969 756.435 20.4422 754.059 21.333C751.783 22.1248 749.655 23.1146 747.676 24.3023C745.795 25.391 744.162 26.5292 742.776 27.7169C741.391 28.8056 740.351 29.6964 739.659 30.3892L728.672 14.9491C733.027 10.8912 738.075 7.5755 743.816 5.00214C749.655 2.32982 755.89 0.993652 762.522 0.993652C768.559 0.993652 773.755 1.68648 778.11 3.07213C782.465 4.45778 786.028 6.43728 788.8 9.01063C791.67 11.485 793.748 14.5532 795.035 18.2153C796.421 21.7784 797.114 25.8364 797.114 30.3892Z" fill="white"/>
<path d="M887.135 54.5886C887.135 71.9093 883.82 85.2214 877.188 94.5251C870.656 103.73 861.6 108.332 850.02 108.332C838.44 108.332 829.334 103.73 822.702 94.5251C816.17 85.2214 812.904 71.9093 812.904 54.5886C812.904 45.9778 813.745 38.3567 815.428 31.7254C817.209 25.0941 819.733 19.502 822.999 14.9491C826.266 10.3963 830.175 6.93216 834.728 4.55675C839.281 2.18135 844.378 0.993652 850.02 0.993652C861.6 0.993652 870.656 5.64548 877.188 14.9491C883.82 24.1538 887.135 37.367 887.135 54.5886ZM864.569 54.5886C864.569 49.4419 864.321 44.7901 863.827 40.6332C863.332 36.3772 862.54 32.7152 861.451 29.6469C860.362 26.5787 858.878 24.2033 856.997 22.5207C855.117 20.8382 852.791 19.9969 850.02 19.9969C847.248 19.9969 844.922 20.8382 843.042 22.5207C841.26 24.2033 839.776 26.5787 838.588 29.6469C837.499 32.7152 836.707 36.3772 836.213 40.6332C835.718 44.7901 835.47 49.4419 835.47 54.5886C835.47 59.7353 835.718 64.4366 836.213 68.6926C836.707 72.9485 837.499 76.6106 838.588 79.6788C839.776 82.747 841.26 85.1224 843.042 86.805C844.922 88.4876 847.248 89.3289 850.02 89.3289C852.791 89.3289 855.117 88.4876 856.997 86.805C858.878 85.1224 860.362 82.747 861.451 79.6788C862.54 76.6106 863.332 72.9485 863.827 68.6926C864.321 64.4366 864.569 59.7353 864.569 54.5886Z" fill="white"/>
<path d="M965.874 30.3892C965.874 34.1503 965.131 37.7629 963.647 41.227C962.162 44.6911 960.232 48.0563 957.857 51.3225C955.481 54.4897 952.809 57.5579 949.84 60.5271C946.87 63.4964 943.951 66.3172 941.08 68.9895C939.596 70.3752 937.963 71.9587 936.181 73.7403C934.499 75.4229 932.866 77.1549 931.282 78.9365C929.698 80.718 928.263 82.4006 926.977 83.9842C925.789 85.4688 925.047 86.706 924.75 87.6958H968.991V106.254H900.402C900.204 105.165 900.105 103.779 900.105 102.097C900.105 100.414 900.105 99.2264 900.105 98.5336C900.105 93.7827 900.847 89.4278 902.332 85.4688C903.915 81.5098 905.944 77.8478 908.419 74.4826C910.893 71.0185 913.664 67.8018 916.733 64.8326C919.9 61.8633 923.018 58.894 926.086 55.9248C928.461 53.6484 930.688 51.5204 932.767 49.5409C934.845 47.4624 936.676 45.4829 938.26 43.6024C939.843 41.6229 941.081 39.6929 941.971 37.8124C942.862 35.8329 943.307 33.8534 943.307 31.8739C943.307 27.519 942.07 24.4507 939.596 22.6692C937.121 20.8876 934.053 19.9969 930.391 19.9969C927.719 19.9969 925.195 20.4422 922.82 21.333C920.543 22.1248 918.415 23.1146 916.436 24.3023C914.555 25.391 912.922 26.5292 911.536 27.7169C910.151 28.8056 909.112 29.6964 908.419 30.3892L897.432 14.9491C901.787 10.8912 906.835 7.5755 912.576 5.00214C918.415 2.32982 924.651 0.993652 931.282 0.993652C937.319 0.993652 942.516 1.68648 946.871 3.07213C951.225 4.45778 954.789 6.43728 957.56 9.01063C960.43 11.485 962.509 14.5532 963.795 18.2153C965.181 21.7784 965.874 25.8364 965.874 30.3892Z" fill="white"/>
<path d="M1010.47 108.481C1007.79 108.481 1004.97 108.283 1002 107.887C999.034 107.59 996.164 107.144 993.393 106.551C990.621 105.957 988.097 105.313 985.821 104.621C983.545 103.928 981.763 103.284 980.476 102.69L984.782 84.2811C987.355 85.3699 990.621 86.5576 994.58 87.8442C998.638 89.0319 1003.64 89.6258 1009.58 89.6258C1016.4 89.6258 1021.4 88.3391 1024.57 85.7658C1027.74 83.1924 1029.32 79.7283 1029.32 75.3734C1029.32 72.7011 1028.73 70.4741 1027.54 68.6926C1026.45 66.812 1024.92 65.3274 1022.94 64.2387C1020.96 63.051 1018.58 62.2592 1015.81 61.8633C1013.14 61.3684 1010.27 61.121 1007.2 61.121H998.589V43.3055H1008.39C1010.56 43.3055 1012.64 43.1075 1014.62 42.7116C1016.7 42.3157 1018.53 41.6724 1020.12 40.7816C1021.7 39.7919 1022.94 38.5052 1023.83 36.9216C1024.82 35.239 1025.31 33.1605 1025.31 30.6862C1025.31 28.8056 1024.92 27.1726 1024.12 25.7869C1023.33 24.4012 1022.29 23.263 1021.01 22.3723C1019.82 21.4815 1018.38 20.8382 1016.7 20.4423C1015.12 19.9474 1013.48 19.6999 1011.8 19.6999C1007.55 19.6999 1003.59 20.3433 999.925 21.6299C996.362 22.9166 993.096 24.5002 990.126 26.3807L982.258 10.1983C983.842 9.20859 985.673 8.16935 987.751 7.08062C989.928 5.99189 992.304 5.00215 994.877 4.11137C997.451 3.22059 1000.17 2.47828 1003.04 1.88443C1006.01 1.29058 1009.13 0.993652 1012.4 0.993652C1018.43 0.993652 1023.63 1.73597 1027.98 3.2206C1032.44 4.60625 1036.1 6.63523 1038.97 9.30755C1041.84 11.8809 1043.97 14.9491 1045.35 18.5122C1046.74 21.9764 1047.43 25.7869 1047.43 29.9439C1047.43 34.0018 1046.29 37.9608 1044.02 41.8209C1041.74 45.5819 1038.67 48.4522 1034.81 50.4317C1040.16 52.6091 1044.27 55.8753 1047.14 60.2302C1050.11 64.4861 1051.59 69.6328 1051.59 75.6703C1051.59 80.4211 1050.8 84.8255 1049.21 88.8835C1047.63 92.8425 1045.16 96.3066 1041.79 99.2759C1038.43 102.146 1034.12 104.423 1028.88 106.105C1023.73 107.689 1017.59 108.481 1010.47 108.481Z" fill="white"/>
</svg>
