<svg width="37" height="39" viewBox="0 0 37 39" fill="none" xmlns="http://www.w3.org/2000/svg">
<path d="M0.898682 24.2146C0.898682 26.4232 4.04058 28.2138 8.90123 28.2138C13.7619 28.2138 16.8996 26.4232 16.8996 24.2146" stroke="white" stroke-width="1.6" stroke-miterlimit="10" stroke-linejoin="round"/>
<path d="M0.898682 29.0119C0.898682 31.2247 4.04058 33.0111 8.90123 33.0111C13.7619 33.0111 16.8996 31.2247 16.8996 29.0119" stroke="white" stroke-width="1.6" stroke-miterlimit="10" stroke-linejoin="round"/>
<path d="M0.898682 19.4131V33.8134C0.898682 36.022 4.04058 37.8126 8.90123 37.8126C13.7619 37.8126 16.8996 36.022 16.8996 33.8134V19.4131" stroke="white" stroke-width="1.6" stroke-miterlimit="10" stroke-linejoin="round"/>
<path d="M8.90123 15.4139C4.04058 15.4139 0.898682 17.2045 0.898682 19.4131C0.898682 21.6217 4.04058 23.4123 8.90123 23.4123C13.7619 23.4123 16.8996 21.6217 16.8996 19.4131C16.8996 17.2045 13.7619 15.4139 8.90123 15.4139Z" stroke="white" stroke-width="1.6" stroke-miterlimit="10" stroke-linejoin="round"/>
<path d="M28.0989 15.4139C23.2383 15.4139 20.1006 17.2045 20.1006 19.4131C20.1006 21.6217 23.2383 23.4123 28.0989 23.4123C32.9596 23.4123 36.1015 21.6217 36.1015 19.4131C36.1015 17.2045 32.9596 15.4139 28.0989 15.4139Z" stroke="white" stroke-width="1.6" stroke-miterlimit="10" stroke-linejoin="round"/>
<path d="M20.1006 24.2146C20.1006 26.4232 23.2383 28.2138 28.0989 28.2138C32.9596 28.2138 36.1015 26.4232 36.1015 24.2146" stroke="white" stroke-width="1.6" stroke-miterlimit="10" stroke-linejoin="round"/>
<path d="M20.1006 29.0119C20.1006 31.2247 23.2383 33.0111 28.0989 33.0111C32.9596 33.0111 36.1015 31.2247 36.1015 29.0119" stroke="white" stroke-width="1.6" stroke-miterlimit="10" stroke-linejoin="round"/>
<path d="M20.1006 19.4131V33.8134C20.1006 36.022 23.2383 37.8126 28.0989 37.8126C32.9596 37.8126 36.1015 36.022 36.1015 33.8134V19.4131" stroke="white" stroke-width="1.6" stroke-miterlimit="10" stroke-linejoin="round"/>
<path d="M18.5 1.01361C13.6394 1.01361 10.5017 2.80415 10.5017 5.01277C10.5017 7.22561 13.6394 9.01192 18.5 9.01192C23.3607 9.01192 26.4984 7.22561 26.4984 5.01277C26.4984 2.80415 23.3607 1.01361 18.5 1.01361Z" stroke="white" stroke-width="1.6" stroke-miterlimit="10" stroke-linejoin="round"/>
<path d="M10.5017 9.81427C10.5017 12.0229 13.6394 13.8134 18.5 13.8134C23.3607 13.8134 26.4984 12.0229 26.4984 9.81427" stroke="white" stroke-width="1.6" stroke-miterlimit="10" stroke-linejoin="round"/>
<path d="M10.5017 5.01276V13.0111" stroke="white" stroke-width="1.6" stroke-miterlimit="10"/>
<path d="M26.4983 5.01276V13.0111" stroke="white" stroke-width="1.6" stroke-miterlimit="10"/>
</svg>
