<svg width="24" height="24" viewBox="0 0 24 24" fill="none" xmlns="http://www.w3.org/2000/svg">
<path fill-rule="evenodd" clip-rule="evenodd" d="M10.9893 4.94265V3.2626C10.9893 2.06136 10.168 0.946953 8.98245 0.753983C7.47125 0.509151 6.16508 1.66818 6.16508 3.13355C6.16508 4.46626 7.24451 5.54569 8.57722 5.54569H10.3899C10.7228 5.54569 10.9893 5.27553 10.9893 4.94265ZM2.54689 6.75209H8.57722C9.90992 6.75209 10.9894 7.83152 10.9894 9.16422C10.9894 10.4969 9.90992 11.5764 8.57722 11.5764H2.54689C1.21418 11.5764 0.134755 10.4969 0.134755 9.16422C0.134755 7.83152 1.21418 6.75209 2.54689 6.75209ZM6.16508 15.1942V21.2246C6.16508 22.5573 7.24451 23.6367 8.57722 23.6367C9.90992 23.6367 10.9893 22.5573 10.9893 21.2246V15.1942C10.9893 13.8615 9.90992 12.7821 8.57722 12.7821C7.24451 12.7821 6.16508 13.8615 6.16508 15.1942ZM4.35598 12.7821H2.67593C1.47348 12.7821 0.360284 13.6022 0.167313 14.789C-0.0775186 16.3002 1.08151 17.6064 2.54688 17.6064C3.87959 17.6064 4.95902 16.5269 4.95902 15.1942V13.3815C4.95902 13.0486 4.68886 12.7821 4.35598 12.7821ZM14.6075 17.6064H20.6379C21.9706 17.6064 23.05 16.5269 23.05 15.1942C23.05 13.8615 21.9706 12.7821 20.6379 12.7821H14.6075C13.2748 12.7821 12.1954 13.8615 12.1954 15.1942C12.1954 16.5257 13.2748 17.6064 14.6075 17.6064ZM12.1954 19.4158V21.0959C12.1954 22.2971 13.0155 23.4103 14.2023 23.6045C15.7135 23.8493 17.0197 22.6903 17.0197 21.2249C17.0197 19.8922 15.9402 18.8128 14.6075 18.8128H12.7948C12.462 18.8128 12.1954 19.083 12.1954 19.4158ZM17.0197 9.16389V3.13355C17.0197 1.80085 15.9402 0.721419 14.6075 0.721419C13.2748 0.721419 12.1954 1.80085 12.1954 3.13355V9.16389C12.1954 10.4966 13.2748 11.576 14.6075 11.576C15.939 11.576 17.0197 10.4954 17.0197 9.16389ZM18.8288 11.5764H20.5088C21.7101 11.5764 22.8233 10.755 23.0174 9.56946C23.2623 8.05826 22.1032 6.75209 20.6379 6.75209C19.3052 6.75209 18.2257 7.83152 18.2257 9.16422V10.9769C18.2257 11.3098 18.4959 11.5764 18.8288 11.5764Z" fill="white"/>
</svg>
