<svg width="25" height="25" viewBox="0 0 25 25" fill="none" xmlns="http://www.w3.org/2000/svg">
<path d="M11.7078 0.7277C5.62195 0.926701 0.500989 5.84866 0.0800717 11.9236C-0.364967 18.3507 4.23135 23.7817 10.3087 24.6947V15.9784H8.36213C7.48653 15.9784 6.77736 15.2692 6.77736 14.3936C6.77736 13.518 7.48653 12.8089 8.36213 12.8089H10.3075V10.6995C10.3075 7.20669 12.0093 5.67378 14.9123 5.67378C15.3428 5.67378 15.7107 5.68343 16.0231 5.69911C16.7901 5.7365 17.3847 6.37571 17.3847 7.14398C17.3847 7.9436 16.7371 8.59126 15.9374 8.59126H15.4044C14.1718 8.59126 13.7412 9.75993 13.7412 11.077V12.8101H15.9965C16.7093 12.8101 17.2545 13.4457 17.1459 14.15L17.0157 14.9955C16.9276 15.5623 16.4404 15.9808 15.8663 15.9808H13.7412V24.7212C19.6304 23.9216 24.1713 18.8874 24.1713 12.7823C24.1713 5.98736 18.5522 0.505784 11.7078 0.7277Z" fill="white"/>
</svg>
