<svg width="41" height="41" viewBox="0 0 41 41" fill="none" xmlns="http://www.w3.org/2000/svg">
<g clip-path="url(#clip0_93_851)">
<path d="M39.7018 18.8126C39.7018 19.6952 38.9838 20.4131 38.1012 20.4131C37.2144 20.4131 36.5007 19.6952 36.5007 18.8126C36.5007 17.93 37.2144 17.2121 38.1012 17.2121C38.9838 17.2121 39.7018 17.93 39.7018 18.8126Z" stroke="white" stroke-width="1.6" stroke-linecap="round"/>
<path d="M37.7001 20.9663L33.8741 24.9655C33.7263 25.1217 33.5194 25.2147 33.2998 25.2147H31.7542C32.0751 24.6995 32.3792 24.1631 32.6832 23.6141H32.9577L36.5388 19.8599L37.7001 20.9663Z" fill="white"/>
<path d="M4.49911 18.8126C4.49911 19.6952 3.78543 20.4131 2.89861 20.4131C2.016 20.4131 1.2981 19.6952 1.2981 18.8126C1.2981 17.93 2.016 17.2121 2.89861 17.2121C3.78543 17.2121 4.49911 17.93 4.49911 18.8126Z" stroke="white" stroke-width="1.6" stroke-linecap="round"/>
<path d="M9.24576 25.2147H7.70015C7.48055 25.2147 7.27363 25.1217 7.12582 24.9655L3.2998 20.9663L4.46112 19.8599L8.04221 23.6141H8.3167C8.62076 24.1631 8.92481 24.6995 9.24576 25.2147Z" fill="white"/>
<path d="M38.8995 28.4114C38.8995 29.2982 38.1816 30.0119 37.299 30.0119C36.4164 30.0119 35.6985 29.2982 35.6985 28.4114C35.6985 27.5288 36.4164 26.8151 37.299 26.8151C38.1816 26.8151 38.8995 27.5288 38.8995 28.4114Z" stroke="white" stroke-width="1.6" stroke-linecap="round"/>
<path d="M36.5008 37.2121C36.5008 38.0947 35.7829 38.8126 34.9003 38.8126C34.0177 38.8126 33.2998 38.0947 33.2998 37.2121C33.2998 36.3295 34.0177 35.6116 34.9003 35.6116C35.7829 35.6116 36.5008 36.3295 36.5008 37.2121Z" stroke="white" stroke-width="1.6" stroke-linecap="round"/>
<path d="M35.6985 27.6133V29.2138H28.7939C29.2458 28.7155 29.685 28.1792 30.1073 27.6133H35.6985Z" fill="white"/>
<path d="M34.4991 35.0626L33.342 36.1648L29.7567 32.4148H25.5168C26.0827 31.9503 26.6739 31.414 27.2905 30.8143H30.0988C30.3184 30.8143 30.5253 30.903 30.6773 31.0593L34.4991 35.0626Z" fill="white"/>
<path d="M5.30136 28.4114C5.30136 29.2982 4.58345 30.0119 3.70085 30.0119C2.81825 30.0119 2.10034 29.2982 2.10034 28.4114C2.10034 27.5288 2.81825 26.8151 3.70085 26.8151C4.58345 26.8151 5.30136 27.5288 5.30136 28.4114Z" stroke="white" stroke-width="1.6" stroke-linecap="round"/>
<path d="M7.70004 37.2121C7.70004 38.0947 6.98214 38.8126 6.09953 38.8126C5.21693 38.8126 4.49902 38.0947 4.49902 37.2121C4.49902 36.3295 5.21693 35.6116 6.09953 35.6116C6.98214 35.6116 7.70004 36.3295 7.70004 37.2121Z" stroke="white" stroke-width="1.6" stroke-linecap="round"/>
<path d="M12.2061 29.2138H5.30151V27.6133H10.8927C11.315 28.1792 11.7542 28.7155 12.2061 29.2138Z" fill="white"/>
<path d="M15.483 32.4148H11.2431L7.65783 36.1648L6.50073 35.0626L10.3225 31.0593C10.4746 30.903 10.6815 30.8143 10.9011 30.8143H13.7094C14.3259 31.414 14.9171 31.9503 15.483 32.4148Z" fill="white"/>
<path d="M20.5001 32.8118C20.5001 32.8118 6.9021 26.5322 6.9021 7.69775C15.3312 5.89454 17.8565 2.81177 20.5001 2.81177C23.1437 2.81177 25.669 5.89454 34.0981 7.69775C34.0981 26.5322 20.5001 32.8118 20.5001 32.8118Z" stroke="white" stroke-width="1.6" stroke-linecap="round"/>
<path d="M20.5001 12.0389C19.3134 12.0389 18.3506 13.0018 18.3506 14.1884C18.3506 15.3751 19.3134 16.3379 20.5001 16.3379C21.6867 16.3379 22.6496 15.3751 22.6496 14.1884C22.6496 13.0018 21.6867 12.0389 20.5001 12.0389Z" fill="white"/>
<path d="M22.6496 20.6369H18.3506L19.4274 15.6243H21.5727L22.6496 20.6369Z" fill="white"/>
</g>
<defs>
<clipPath id="clip0_93_851">
<rect width="40.0001" height="40" fill="white" transform="translate(0.5 0.413086)"/>
</clipPath>
</defs>
</svg>
