<svg width="62" height="40" viewBox="0 0 62 40" fill="none" xmlns="http://www.w3.org/2000/svg">
<g filter="url(#filter0_dif_93_1425)">
<path d="M52.9402 25.9095C53.1596 26.0266 53.3535 26.1729 53.5217 26.3484C53.69 26.524 53.818 26.7252 53.9058 26.9519C54.0009 27.1714 54.0484 27.4055 54.0484 27.6542H52.9402V29.6292C52.9402 30.2656 52.7463 30.796 52.3586 31.2202C51.9709 31.6445 51.4516 31.8566 50.8005 31.8566V27.6542H49.2644C49.0742 27.6542 48.8877 27.6322 48.7048 27.5883C48.1635 27.5006 47.7319 27.2555 47.41 26.8532C47.0882 26.4509 46.9272 25.9717 46.9272 25.4158V21.5864C47.5929 21.5864 48.1196 21.7656 48.5073 22.124C48.9023 22.4751 49.0998 22.9543 49.0998 23.5614V25.3061C49.0998 25.4011 49.1327 25.4816 49.1986 25.5474C49.2717 25.6133 49.3558 25.6462 49.4509 25.6462H50.8005V23.5395C50.8005 22.9177 50.9907 22.4313 51.3711 22.0801C51.7515 21.7217 52.2745 21.5425 52.9402 21.5425V25.9095Z" fill="white"/>
<path d="M42.8142 29.8267H46.0292C46.0292 30.3827 45.8463 30.8618 45.4805 31.2641C45.1148 31.6591 44.6722 31.8566 44.1529 31.8566H40.3015V27.2153C40.3015 26.674 40.4807 26.2387 40.8392 25.9095C41.1976 25.5804 41.6438 25.4158 42.1778 25.4158H43.2092C43.3263 25.4158 43.425 25.3755 43.5055 25.2951C43.5859 25.2146 43.6262 25.1159 43.6262 24.9988V24.0113C43.6262 23.9089 43.5859 23.8211 43.5055 23.748C43.4323 23.6748 43.3446 23.6382 43.2421 23.6382H40.3015C40.3015 23.0677 40.4844 22.5776 40.8501 22.1679C41.2232 21.751 41.6658 21.5425 42.1778 21.5425H44.1968C44.5552 21.5425 44.8734 21.6449 45.1514 21.8497C45.4366 22.0545 45.6268 22.3252 45.7219 22.6617C45.7878 22.8226 45.8353 23.0274 45.8646 23.2761V23.32C45.8719 23.3712 45.8755 23.4224 45.8755 23.4736V25.1854C45.8609 25.6169 45.7256 26.0046 45.4696 26.3484C45.2135 26.6922 44.8917 26.9519 44.504 27.1275C44.1163 27.303 43.7103 27.3908 43.286 27.3908H42.8142C42.7045 27.3908 42.6131 27.4274 42.5399 27.5006C42.4668 27.5737 42.4302 27.6615 42.4302 27.7639V29.4427C42.4302 29.5451 42.4668 29.6365 42.5399 29.717C42.6131 29.7902 42.7045 29.8267 42.8142 29.8267Z" fill="white"/>
<path d="M36.7027 21.4438C37.4268 21.4438 38.045 21.6999 38.557 22.2119C39.0691 22.724 39.3251 23.3421 39.3251 24.0663V29.2234C39.3251 29.9475 39.0691 30.5657 38.557 31.0777C38.045 31.5898 37.4268 31.8458 36.7027 31.8458H35.6712C34.9471 31.8458 34.3253 31.5898 33.8059 31.0777C33.2939 30.5657 33.0378 29.9475 33.0378 29.2234V24.0663C33.0378 23.3421 33.2939 22.724 33.8059 22.2119C34.3253 21.6999 34.9471 21.4438 35.6712 21.4438H36.7027ZM35.6712 23.5615C35.5323 23.5615 35.4116 23.6127 35.3091 23.7152C35.2067 23.8103 35.1555 23.9273 35.1555 24.0663V26.8643L37.2074 24.1431V24.0663C37.2074 23.9273 37.1562 23.8103 37.0538 23.7152C36.9587 23.6127 36.8416 23.5615 36.7027 23.5615H35.6712ZM36.7027 29.7281C36.8416 29.7281 36.9587 29.6805 37.0538 29.5855C37.1562 29.483 37.2074 29.3623 37.2074 29.2234V26.5022L35.1555 29.2234C35.1555 29.3623 35.2067 29.483 35.3091 29.5855C35.4116 29.6805 35.5323 29.7281 35.6712 29.7281H36.7027Z" fill="white"/>
<path d="M29.3023 29.8267H32.5172C32.5172 30.3827 32.3343 30.8618 31.9686 31.2641C31.6028 31.6591 31.1603 31.8566 30.6409 31.8566H26.7896V27.2153C26.7896 26.674 26.9688 26.2387 27.3272 25.9095C27.6856 25.5804 28.1319 25.4158 28.6658 25.4158H29.6973C29.8143 25.4158 29.9131 25.3755 29.9935 25.2951C30.074 25.2146 30.1142 25.1159 30.1142 24.9988V24.0113C30.1142 23.9089 30.074 23.8211 29.9935 23.748C29.9204 23.6748 29.8326 23.6382 29.7302 23.6382H26.7896C26.7896 23.0677 26.9724 22.5776 27.3382 22.1679C27.7112 21.751 28.1538 21.5425 28.6658 21.5425H30.6848C31.0432 21.5425 31.3614 21.6449 31.6394 21.8497C31.9247 22.0545 32.1149 22.3252 32.21 22.6617C32.2758 22.8226 32.3233 23.0274 32.3526 23.2761V23.32C32.3599 23.3712 32.3636 23.4224 32.3636 23.4736V25.1854C32.349 25.6169 32.2136 26.0046 31.9576 26.3484C31.7016 26.6922 31.3797 26.9519 30.992 27.1275C30.6043 27.303 30.1983 27.3908 29.7741 27.3908H29.3023C29.1925 27.3908 29.1011 27.4274 29.0279 27.5006C28.9548 27.5737 28.9182 27.6615 28.9182 27.7639V29.4427C28.9182 29.5451 28.9548 29.6365 29.0279 29.717C29.1011 29.7902 29.1925 29.8267 29.3023 29.8267Z" fill="white"/>
<path d="M21.465 23.7918C21.465 23.1701 21.7027 22.6397 22.1782 22.2008C22.661 21.7619 23.2425 21.5425 23.9228 21.5425V29.7389C23.9228 30.368 23.6814 30.902 23.1986 31.3409C22.7232 31.7798 22.1453 31.9993 21.465 31.9993V27.8517H18.6231V29.7389C18.6231 30.368 18.3817 30.902 17.8989 31.3409C17.4161 31.7798 16.8382 31.9993 16.1653 31.9993V25.9534C16.1506 25.8657 16.1433 25.7779 16.1433 25.6901H16.1653V23.7918C16.1653 23.1701 16.403 22.6397 16.8785 22.2008C17.3613 21.7619 17.9428 21.5425 18.6231 21.5425V25.6901H21.465V23.7918Z" fill="white"/>
<path d="M14.5506 22.4094C14.8798 22.7167 15.1321 23.1007 15.3077 23.5615C15.4832 24.0151 15.571 24.5271 15.571 25.0977V25.1306C15.571 25.7451 15.4723 26.2864 15.2748 26.7545C15.0846 27.2154 14.8176 27.6067 14.4738 27.9286C14.1373 28.2431 13.7313 28.4809 13.2558 28.6418C12.7804 28.7954 12.2646 28.8722 11.7087 28.8722H10.4798V28.96C10.4798 29.7574 10.2347 30.4377 9.74463 31.0009C9.26184 31.5642 8.6803 31.8458 8 31.8458V23.8029C8 23.1738 8.24505 22.6252 8.73516 22.1571C9.22526 21.6816 9.76292 21.4438 10.3481 21.4438H11.8404C12.4036 21.4438 12.9157 21.528 13.3765 21.6962C13.8374 21.8571 14.2287 22.0949 14.5506 22.4094ZM13.0803 25.2513V25.2294C13.0803 24.7758 12.9523 24.432 12.6962 24.1979C12.4475 23.9639 12.0964 23.8468 11.6429 23.8468H10.4798V26.6119H11.6648C12.1037 26.6119 12.4475 26.4912 12.6962 26.2498C12.9523 26.0084 13.0803 25.6756 13.0803 25.2513Z" fill="white"/>
<path d="M49.2217 10.4357C49.2217 9.8212 49.4484 9.29452 49.902 8.85562C50.3555 8.41672 50.8931 8.19727 51.5149 8.19727V16.3169C51.5149 16.9387 51.2882 17.469 50.8346 17.9079C50.3811 18.3468 49.8471 18.5663 49.2326 18.5663V17.7653L45.0521 12.1803V16.3389C45.0521 16.9533 44.8327 17.48 44.3938 17.9189C43.9622 18.3505 43.4355 18.5663 42.8137 18.5663V10.4357C42.8137 9.81388 43.0332 9.2872 43.4721 8.85562C43.911 8.41672 44.4377 8.19727 45.0521 8.19727L49.2217 14.2102V10.4357Z" fill="white"/>
<path d="M41.6685 9.13017C41.8952 9.48129 42.0086 9.86167 42.0086 10.2713V16.4379C42.0086 17.0377 41.7855 17.5461 41.3393 17.963C40.9004 18.3727 40.3591 18.6068 39.7154 18.6653C39.313 18.7019 38.6693 18.7201 37.7842 18.7201C37.4184 18.7201 37.0234 18.7019 36.5992 18.6653C35.9042 18.6068 35.3629 18.3873 34.9752 18.0069C34.8143 17.8753 34.7046 17.7363 34.6461 17.59C34.4193 17.2315 34.3059 16.8475 34.3059 16.4379V10.2713C34.3059 9.67148 34.5254 9.16674 34.9643 8.7571C35.4105 8.34746 35.9554 8.11338 36.5992 8.05486C37.0015 8.01829 37.4148 8 37.8391 8C38.6656 8 39.2911 8.01829 39.7154 8.05486C40.4103 8.11338 40.9516 8.33283 41.3393 8.71321C41.5002 8.84488 41.6099 8.98387 41.6685 9.13017ZM39.7154 15.7356V10.9187C39.6861 10.7431 39.6166 10.6041 39.5069 10.5017C39.3972 10.392 39.2545 10.3371 39.0789 10.3371L37.2356 10.3262C37.06 10.3262 36.9174 10.381 36.8076 10.4908C36.6979 10.6005 36.6284 10.7431 36.5992 10.9187V15.7356C36.6284 15.9112 36.6979 16.0538 36.8076 16.1635C36.9174 16.266 37.06 16.3172 37.2356 16.3172L39.0789 16.3281V16.3172C39.2545 16.3172 39.3972 16.266 39.5069 16.1635C39.6166 16.0538 39.6861 15.9112 39.7154 15.7356Z" fill="white"/>
<path d="M27.2671 17.2062C27.1427 16.9282 27.0806 16.6356 27.0806 16.3284V10.4251C27.0806 10.4178 27.0806 10.4142 27.0806 10.4142C27.0806 10.4069 27.0806 10.3995 27.0806 10.3922C27.0806 9.74851 27.2598 9.22914 27.6182 8.83413C27.9767 8.43181 28.4521 8.21601 29.0446 8.18675V8.17578H33.4885V8.7683C33.4885 9.31692 33.3129 9.77045 32.9618 10.1289C32.6107 10.4873 32.1462 10.6665 31.5683 10.6665V10.3922H30.0541C29.9005 10.4142 29.7615 10.48 29.6372 10.5897C29.5128 10.6995 29.436 10.8348 29.4067 10.9957C29.4067 11.0323 29.4067 11.0652 29.4067 11.0945V11.8077C29.4067 11.8369 29.4067 11.8735 29.4067 11.9174V15.7907C29.436 15.9663 29.5055 16.1052 29.6152 16.2077C29.7249 16.3101 29.8639 16.3613 30.0322 16.3613H33.5434C33.5434 17.0196 33.3276 17.5536 32.896 17.9633C32.4644 18.3729 31.9304 18.5777 31.294 18.5777H29.319L29.308 18.5667C28.8106 18.5302 28.368 18.3656 27.9803 18.073C27.6584 17.8316 27.4207 17.5426 27.2671 17.2062Z" fill="white"/>
<path d="M24.0408 9.53639C24.3188 8.95119 24.7358 8.55252 25.2917 8.34038C25.8476 8.12093 26.4402 8.15385 27.0692 8.43913L22.779 17.3817C22.4937 17.9669 22.0731 18.3656 21.5172 18.5777C20.9685 18.7899 20.376 18.7533 19.7396 18.468L21.3416 15.1433L18.0828 8.41719C18.7119 8.12459 19.3409 8.09167 19.97 8.31844C20.6064 8.5452 21.0673 8.95119 21.3526 9.53639L22.6912 12.3234L24.0408 9.53639Z" fill="white"/>
<path d="M16.8865 9.08619C17.2157 9.39342 17.4681 9.77746 17.6436 10.2383C17.8192 10.6918 17.907 11.2039 17.907 11.7745V11.8074C17.907 12.4218 17.8082 12.9631 17.6107 13.4313C17.4205 13.8921 17.1535 14.2835 16.8097 14.6054C16.4732 14.9199 16.0672 15.1576 15.5918 15.3186C15.1163 15.4722 14.6006 15.549 14.0446 15.549H12.8157V15.6368C12.8157 16.4341 12.5707 17.1144 12.0806 17.6777C11.5978 18.2409 11.0162 18.5225 10.3359 18.5225V10.4797C10.3359 9.8506 10.581 9.30198 11.0711 8.83382C11.5612 8.35834 12.0989 8.12061 12.6841 8.12061H14.1763C14.7396 8.12061 15.2516 8.20473 15.7125 8.37297C16.1733 8.5339 16.5647 8.77164 16.8865 9.08619ZM15.4162 11.9281V11.9061C15.4162 11.4526 15.2882 11.1088 15.0322 10.8747C14.7835 10.6406 14.4323 10.5236 13.9788 10.5236H12.8157V13.2887H14.0008C14.4397 13.2887 14.7835 13.168 15.0322 12.9266C15.2882 12.6852 15.4162 12.3523 15.4162 11.9281Z" fill="white"/>
</g>
<defs>
<filter id="filter0_dif_93_1425" x="0.162495" y="0.162495" width="61.7233" height="39.6745" filterUnits="userSpaceOnUse" color-interpolation-filters="sRGB">
<feFlood flood-opacity="0" result="BackgroundImageFix"/>
<feColorMatrix in="SourceAlpha" type="matrix" values="0 0 0 0 0 0 0 0 0 0 0 0 0 0 0 0 0 0 127 0" result="hardAlpha"/>
<feOffset/>
<feGaussianBlur stdDeviation="3.91875"/>
<feComposite in2="hardAlpha" operator="out"/>
<feColorMatrix type="matrix" values="0 0 0 0 1 0 0 0 0 1 0 0 0 0 1 0 0 0 0.3 0"/>
<feBlend mode="normal" in2="BackgroundImageFix" result="effect1_dropShadow_93_1425"/>
<feBlend mode="normal" in="SourceGraphic" in2="effect1_dropShadow_93_1425" result="shape"/>
<feColorMatrix in="SourceAlpha" type="matrix" values="0 0 0 0 0 0 0 0 0 0 0 0 0 0 0 0 0 0 127 0" result="hardAlpha"/>
<feOffset dy="0.3135"/>
<feGaussianBlur stdDeviation="0.15675"/>
<feComposite in2="hardAlpha" operator="arithmetic" k2="-1" k3="1"/>
<feColorMatrix type="matrix" values="0 0 0 0 0 0 0 0 0 0 0 0 0 0 0 0 0 0 0.15 0"/>
<feBlend mode="normal" in2="shape" result="effect2_innerShadow_93_1425"/>
<feGaussianBlur stdDeviation="0.03135" result="effect3_foregroundBlur_93_1425"/>
</filter>
</defs>
</svg>
