<svg width="41" height="41" viewBox="0 0 41 41" fill="none" xmlns="http://www.w3.org/2000/svg">
<path d="M34.9005 8.41144V14.0111H29.3008" stroke="white" stroke-width="1.6" stroke-miterlimit="10" stroke-linecap="round"/>
<path d="M6.09961 32.4148V26.8152H11.6993" stroke="white" stroke-width="1.6" stroke-miterlimit="10" stroke-linecap="round"/>
<path d="M22.1807 29.2138H18.8994L18.4982 26.6547C18.1815 26.5745 17.9408 26.4942 17.6198 26.3338L15.4619 27.7738L13.059 25.3752L14.4991 23.213C14.3386 22.9723 14.2583 22.6513 14.1781 22.4149L11.6992 22.0137V18.6522L14.1781 18.2552C14.2583 17.9343 14.4188 17.6936 14.4991 17.3726L13.059 15.3752L15.4619 12.9723L17.6198 14.4926C17.8605 14.3321 18.1815 14.2518 18.418 14.1716L18.8994 11.6125H22.2609L22.6579 14.1716C22.8986 14.2518 23.2195 14.3321 23.4602 14.4926L25.5379 12.9723L27.8606 15.2949L26.4205 17.4529C26.581 17.6936 26.6612 18.0145 26.7415 18.2552L29.3006 18.6522V22.0137L26.8217 22.4951C26.7415 22.7316 26.6612 23.0525 26.5008 23.3735L28.021 25.4512L25.6182 27.854L23.4602 26.414C23.1393 26.5745 22.8986 26.6547 22.6579 26.735L22.1807 29.2138ZM23.059 16.0931C22.6579 15.8524 22.1807 15.6919 21.6992 15.5314L21.2178 15.3752L20.9011 13.213H20.2592L19.858 15.4512L19.3808 15.5314C18.8994 15.6919 18.418 15.9326 17.8605 16.1733L17.4594 16.3338L15.6181 15.0542L15.1409 15.5314L16.4205 17.3726L16.0996 17.7738C15.8589 18.175 15.6984 18.6522 15.6181 19.0534L15.5379 19.615L13.2997 20.012V20.6539L15.4619 21.0551L15.6181 21.5323C15.7786 21.9334 15.9391 22.4951 16.1798 22.9723L16.4205 23.3735L15.1409 25.2147L15.6181 25.6919L17.5396 24.4123L18.021 24.7333C18.418 24.974 18.8994 25.1344 19.3808 25.2949L19.858 25.4512L20.179 27.6133H20.8209L21.2178 25.3752L21.6992 25.2147C22.1807 25.0542 22.6579 24.8937 23.1393 24.653L23.5405 24.4123L25.3817 25.6919L25.8589 25.2147L24.4991 23.3735L24.82 22.892C25.0607 22.4951 25.2212 22.0137 25.3817 21.5323L25.5379 21.0551L27.7001 20.5736V19.9317L25.4619 19.615L25.3014 19.1336C25.141 18.6522 24.9805 18.175 24.7398 17.6936L24.4991 17.2924L25.7786 15.4512L25.3817 15.0542M20.4999 23.5339C18.7389 23.5339 17.2989 22.0939 17.2989 20.3329C17.2989 18.5719 18.7389 17.1319 20.4999 17.1319C22.2609 17.1319 23.7009 18.5719 23.7009 20.3329C23.7009 22.1741 22.2609 23.5339 20.4999 23.5339ZM20.4999 18.8127C19.6215 18.8127 18.8994 19.5348 18.8994 20.4132C18.8994 21.2915 19.6215 22.0137 20.4999 22.0137C21.3783 22.0137 22.1004 21.2915 22.1004 20.4132C22.1004 19.4545 21.3783 18.8127 20.4999 18.8127Z" fill="white"/>
<path d="M35.6985 20.4131C35.6985 28.8084 28.8953 35.6116 20.5 35.6116C14.3936 35.6116 9.12331 32.0094 6.70776 26.8152" stroke="white" stroke-width="1.6" stroke-miterlimit="10" stroke-linecap="round"/>
<path d="M5.30151 20.4131C5.30151 12.0179 12.1047 5.21466 20.5 5.21466C26.6064 5.21466 31.8767 8.81686 34.2923 14.0111" stroke="white" stroke-width="1.6" stroke-miterlimit="10" stroke-linecap="round"/>
</svg>
