<svg width="41" height="41" viewBox="0 0 41 41" fill="none" xmlns="http://www.w3.org/2000/svg">
<path d="M33.3001 28.4114C33.7477 29.3109 34.0982 30.1091 34.0982 30.8143C34.0982 34.0111 31.1802 34.8135 28.4986 34.8135C27.7807 37.7273 24.757 38.0229 23.4099 38.0145C21.7502 38.0018 20.5002 36.7814 20.5002 35.0795C20.5002 30.6792 20.5002 14.294 20.5002 6.96295C20.5002 3.64792 21.4589 2.81177 23.4099 2.81177C27.7807 2.81177 29.5923 5.02883 30.0991 6.81515C33.2452 7.19944 36.4293 10.2949 36.5011 14.8135C36.5265 16.5026 35.8677 18.3903 34.9006 20.4131C35.7283 21.2535 36.5011 22.0136 36.5011 23.6141C36.5011 25.5567 35.9944 27.5077 33.3001 28.4114Z" stroke="white" stroke-width="1.6" stroke-miterlimit="10" stroke-linecap="round"/>
<path d="M5.94353 20.2146C5.17494 21.055 4.49927 22.0136 4.49927 23.6141C4.49927 25.5525 5.80417 27.5077 8.49843 28.4114C6.31937 32.0812 9.13188 34.8135 12.5018 34.8135C13.2197 37.7273 16.1378 38.0145 17.5905 38.0145C19.2501 38.0145 20.5001 36.7814 20.5001 35.0795C20.5001 30.6792 20.5001 14.294 20.5001 6.96295C20.5001 3.64792 19.5415 2.81177 17.5905 2.81177C13.2197 2.81177 10.6099 5.02883 10.0989 6.81515C6.95282 7.19944 4.49927 10.8143 4.49927 14.8135C4.49927 16.5026 4.97646 18.1918 5.94353 20.2146Z" stroke="white" stroke-width="1.6" stroke-miterlimit="10" stroke-linecap="round"/>
<path d="M10.099 19.615H5.9436" stroke="white" stroke-width="1.6" stroke-miterlimit="10" stroke-linecap="round"/>
<path d="M13.2999 19.615C13.2999 20.4976 12.582 21.2113 11.6994 21.2113C10.8168 21.2113 10.0989 20.4976 10.0989 19.615C10.0989 18.7281 10.8168 18.0145 11.6994 18.0145C12.582 18.0145 13.2999 18.7281 13.2999 19.615Z" stroke="white" stroke-width="1.6" stroke-miterlimit="10" stroke-linecap="round"/>
<path d="M20.5001 23.6141H14.9004V28.4114" stroke="white" stroke-width="1.6" stroke-miterlimit="10" stroke-linecap="round"/>
<path d="M16.5011 30.0119C16.5011 30.8988 15.7832 31.6124 14.9006 31.6124C14.018 31.6124 13.3 30.8988 13.3 30.0119C13.3 29.1293 14.018 28.4114 14.9006 28.4114C15.7832 28.4114 16.5011 29.1293 16.5011 30.0119Z" stroke="white" stroke-width="1.6" stroke-miterlimit="10" stroke-linecap="round"/>
<path d="M20.5002 15.6116H16.5011V11.6124H13.3" stroke="white" stroke-width="1.6" stroke-miterlimit="10" stroke-linecap="round"/>
<path d="M13.2999 11.6125C13.2999 12.4951 12.582 13.213 11.6994 13.213C10.8168 13.213 10.0989 12.4951 10.0989 11.6125C10.0989 10.7299 10.8168 10.012 11.6994 10.012C12.582 10.012 13.2999 10.7299 13.2999 11.6125Z" stroke="white" stroke-width="1.6" stroke-miterlimit="10" stroke-linecap="round"/>
<path d="M31.6996 11.6125C31.6996 12.4951 30.9859 13.213 30.099 13.213C29.2164 13.213 28.4985 12.4951 28.4985 11.6125C28.4985 10.7299 29.2164 10.012 30.099 10.012C30.9859 10.012 31.6996 10.7299 31.6996 11.6125Z" stroke="white" stroke-width="1.6" stroke-miterlimit="10" stroke-linecap="round"/>
<path d="M20.5002 11.6124H28.4986" stroke="white" stroke-width="1.6" stroke-miterlimit="10" stroke-linecap="round"/>
<path d="M26.0999 20.4131V24.4123H33.3V28.4115" stroke="white" stroke-width="1.6" stroke-miterlimit="10" stroke-linecap="round"/>
<path d="M27.7003 18.8126C27.7003 19.6952 26.9824 20.4131 26.0998 20.4131C25.2172 20.4131 24.4993 19.6952 24.4993 18.8126C24.4993 17.93 25.2172 17.2121 26.0998 17.2121C26.9824 17.2121 27.7003 17.93 27.7003 18.8126Z" stroke="white" stroke-width="1.6" stroke-miterlimit="10" stroke-linecap="round"/>
<path d="M28.4986 30.0119C28.4986 30.8988 27.7849 31.6124 26.9023 31.6124C26.0154 31.6124 25.3018 30.8988 25.3018 30.0119C25.3018 29.1293 26.0154 28.4114 26.9023 28.4114C27.7849 28.4114 28.4986 29.1293 28.4986 30.0119Z" stroke="white" stroke-width="1.6" stroke-miterlimit="10" stroke-linecap="round"/>
<path d="M20.5002 30.012H25.3018" stroke="white" stroke-width="1.6" stroke-miterlimit="10" stroke-linecap="round"/>
</svg>
