<svg width="37" height="31" viewBox="0 0 37 31" fill="none" xmlns="http://www.w3.org/2000/svg">
<path d="M34.6234 1.01276H2.37672C1.56169 1.01276 0.898682 1.69265 0.898682 2.5288V29.8134H36.1014V2.5288C36.1014 1.69265 35.4384 1.01276 34.6234 1.01276Z" stroke="white" stroke-width="1.6" stroke-miterlimit="10" stroke-linejoin="round"/>
<path d="M11.2999 5.81425C11.2999 6.69685 10.582 7.41476 9.69939 7.41476C8.81678 7.41476 8.09888 6.69685 8.09888 5.81425C8.09888 4.92743 8.81678 4.21375 9.69939 4.21375C10.582 4.21375 11.2999 4.92743 11.2999 5.81425Z" fill="white"/>
<path d="M6.49831 5.81425C6.49831 6.69685 5.78463 7.41476 4.90202 7.41476C4.0152 7.41476 3.30151 6.69685 3.30151 5.81425C3.30151 4.92743 4.0152 4.21375 4.90202 4.21375C5.78463 4.21375 6.49831 4.92743 6.49831 5.81425Z" fill="white"/>
<path d="M0.898682 10.6116H36.1014" stroke="white" stroke-width="1.6" stroke-miterlimit="10" stroke-linejoin="round"/>
<path d="M24.9021 14.6149H32.0981V25.8143H24.9021V14.6149Z" stroke="white" stroke-width="1.6" stroke-miterlimit="10"/>
<path d="M4.9021 14.6149H20.8987V18.6141H4.9021V14.6149Z" stroke="white" stroke-width="1.6" stroke-miterlimit="10"/>
<path d="M4.9021 21.8151H20.8987V25.8143H4.9021V21.8151Z" stroke="white" stroke-width="1.6" stroke-miterlimit="10"/>
<path d="M14.501 4.21375H32.0981V7.41476H14.501V4.21375Z" stroke="white" stroke-width="1.6" stroke-miterlimit="10"/>
</svg>
