<svg width="25" height="25" viewBox="0 0 25 25" fill="none" xmlns="http://www.w3.org/2000/svg">
<path d="M10.8563 0.80467C5.30836 1.4077 0.845915 5.87015 0.242881 11.2975C-0.360152 16.966 2.89623 22.0314 7.8411 23.9612C8.20292 24.0818 8.56474 23.8405 8.56474 23.3581V21.4284C8.56474 21.4284 8.08231 21.549 7.47928 21.549C5.79079 21.549 5.06715 20.1017 4.94654 19.2575C4.82593 18.7751 4.58472 18.4132 4.2229 18.0514C3.86108 17.9308 3.74047 17.9308 3.74047 17.8102C3.74047 17.569 4.10229 17.569 4.2229 17.569C4.94654 17.569 5.54957 18.4132 5.79079 18.7751C6.39382 19.7399 7.11746 19.9811 7.47928 19.9811C7.96171 19.9811 8.32353 19.8605 8.56474 19.7399C8.68535 18.8957 9.04717 18.0514 9.77081 17.569C6.99685 16.966 4.94654 15.3981 4.94654 12.7447C4.94654 11.4181 5.54957 10.0914 6.39382 9.12653C6.27321 8.88532 6.15261 8.28228 6.15261 7.43804C6.15261 6.95561 6.15261 6.35258 6.39382 5.87015C6.39382 5.62894 6.63503 5.50833 6.75564 5.50833H6.87625C7.47928 5.62894 8.68535 5.99076 9.77081 7.07622C10.4944 6.835 11.3387 6.7144 12.1829 6.7144C13.0272 6.7144 13.8714 6.835 14.5951 7.07622C15.6805 5.99076 17.0072 5.62894 17.6102 5.50833H17.7308C17.9721 5.50833 18.0927 5.62894 18.2133 5.87015C18.2133 6.35258 18.2133 6.95561 18.2133 7.43804C18.2133 8.40289 18.0927 8.88532 17.9721 9.12653C18.8163 10.0914 19.4193 11.2975 19.4193 12.7447C19.4193 15.3981 17.369 16.966 14.5951 17.569C15.3187 18.172 15.8011 19.2575 15.8011 20.343V23.4787C15.8011 23.8405 16.163 24.2024 16.6454 24.0818C21.1078 22.2727 24.2436 17.9308 24.2436 12.8653C24.2436 5.62894 18.0927 -0.0395771 10.8563 0.80467Z" fill="white"/>
</svg>
