<svg width="41" height="41" viewBox="0 0 41 41" fill="none" xmlns="http://www.w3.org/2000/svg">
<g clip-path="url(#clip0_93_797)">
<path d="M33.3801 32.4148H31.6994V30.8143H33.3801C34.0769 30.8143 34.761 30.6834 35.4072 30.43C37.5271 29.5896 38.8996 27.5753 38.8996 25.2906C38.8996 22.1107 36.2137 19.2138 33.2661 19.2138H32.3582L32.4257 18.3185C32.4764 17.8962 32.5017 17.5457 32.5017 17.2121C32.5017 12.2797 28.6335 8.41141 23.6926 8.41141C19.9595 8.41141 16.8429 10.5609 15.5634 14.0153L15.1284 15.1893L14.2458 14.3025C13.5448 13.6014 12.5397 13.2129 11.4122 13.2129C9.29224 13.2129 7.68751 14.9317 7.68751 17.2121L7.7213 18.0187L7.11319 18.1834C5.24241 18.7028 2.10051 20.2315 2.10051 24.6783C2.10051 28.0609 4.85389 30.8143 8.2365 30.8143H9.30069V32.4148H8.2365C3.97129 32.4148 0.5 28.9435 0.5 24.6783C0.5 20.8607 2.53125 18.0271 6.09967 16.8236C6.28126 13.8253 8.50255 11.6124 11.4122 11.6124C12.5482 11.6124 13.6081 11.908 14.4907 12.4655C16.2053 8.95195 19.6428 6.81512 23.6926 6.81512C29.5288 6.81512 34.098 11.3802 34.098 17.2121C34.098 17.3641 34.098 17.5161 34.0896 17.6766C37.6073 18.158 40.5001 21.5111 40.5001 25.2906C40.5001 28.2383 38.7306 30.8354 35.9941 31.9165C35.158 32.2459 34.2796 32.4148 33.3801 32.4148Z" fill="white"/>
<path d="M31.6994 37.2121C31.6994 38.5381 30.6268 39.6149 29.3008 39.6149C27.9747 39.6149 26.9021 38.5381 26.9021 37.2121C26.9021 35.8861 27.9747 34.8134 29.3008 34.8134C30.6268 34.8134 31.6994 35.8861 31.6994 37.2121Z" stroke="white" stroke-width="1.6" stroke-miterlimit="10" stroke-linecap="round" stroke-linejoin="round"/>
<path d="M14.0981 37.2121C14.0981 38.5381 13.0254 39.6149 11.6994 39.6149C10.3734 39.6149 9.30078 38.5381 9.30078 37.2121C9.30078 35.8861 10.3734 34.8134 11.6994 34.8134C13.0254 34.8134 14.0981 35.8861 14.0981 37.2121Z" stroke="white" stroke-width="1.6" stroke-miterlimit="10" stroke-linecap="round" stroke-linejoin="round"/>
<path d="M15.6984 21.2112L12.9957 24.4545C12.1595 25.4638 11.6992 26.7307 11.6992 28.0398V34.8134" stroke="white" stroke-width="1.6" stroke-miterlimit="10" stroke-linecap="round" stroke-linejoin="round"/>
<path d="M29.3007 34.8134V28.0398C29.3007 26.7307 28.8404 25.4638 28.0042 24.4545L25.3015 21.2112" stroke="white" stroke-width="1.6" stroke-miterlimit="10" stroke-linecap="round" stroke-linejoin="round"/>
<path d="M22.8986 37.2121C22.8986 38.5381 21.826 39.6149 20.5 39.6149C19.174 39.6149 18.1013 38.5381 18.1013 37.2121C18.1013 35.8861 19.174 34.8134 20.5 34.8134C21.826 34.8134 22.8986 35.8861 22.8986 37.2121Z" stroke="white" stroke-width="1.6" stroke-miterlimit="10" stroke-linecap="round" stroke-linejoin="round"/>
<path d="M20.5 34.8134V21.2112" stroke="white" stroke-width="1.6" stroke-miterlimit="10" stroke-linecap="round" stroke-linejoin="round"/>
</g>
<defs>
<clipPath id="clip0_93_797">
<rect width="40.0001" height="40" fill="white" transform="translate(0.5 0.413086)"/>
</clipPath>
</defs>
</svg>
