<svg width="30" height="25" viewBox="0 0 30 25" fill="none" xmlns="http://www.w3.org/2000/svg">
<path d="M28.9432 0.767697C27.7519 1.33045 25.7245 2.3858 24.7057 2.58752C24.6662 2.59775 24.6341 2.6109 24.5961 2.62113C23.4077 1.44885 21.7794 0.722384 19.9771 0.722384C16.3448 0.722384 13.3994 3.66771 13.3994 7.30004C13.3994 7.49152 13.3834 7.84379 13.3994 8.03089C8.69568 8.03089 5.26069 5.5767 2.68955 2.42234C2.34605 1.99845 1.98063 2.21917 1.90462 2.52028C1.7336 3.20143 1.67513 4.3401 1.67513 5.1528C1.67513 7.20065 3.2757 9.21195 5.7679 10.4588C5.30892 10.5772 4.80317 10.662 4.27696 10.662C3.6572 10.662 2.94389 10.4997 2.31974 10.1723C2.08879 10.051 1.59035 10.0846 1.73799 10.6751C2.32997 13.0416 5.0312 14.7036 7.44447 15.1874C6.89633 15.5104 5.72697 15.4446 5.18906 15.4446C4.99027 15.4446 4.29889 15.3979 3.85161 15.3423C3.44379 15.2926 2.81672 15.3979 3.34147 16.193C4.46844 17.8988 7.01765 18.9703 9.21166 19.0112C7.19159 20.5957 3.88815 21.1745 0.723565 21.1745C0.0833395 21.1599 0.115497 21.8893 0.631478 22.1597C2.96581 23.3846 6.78962 24.1096 9.52154 24.1096C20.382 24.1096 26.5547 15.832 26.5547 8.02943C26.5547 7.90372 26.5518 7.64062 26.5474 7.37605C26.5474 7.34974 26.5547 7.32489 26.5547 7.29858C26.5547 7.25911 26.5431 7.22111 26.5431 7.18164C26.5387 6.98285 26.5343 6.79722 26.5299 6.70074C27.3908 6.07952 28.7093 5.00078 29.3758 4.17492C29.6024 3.89428 29.4197 3.5537 29.1113 3.6604C28.3176 3.93667 26.945 4.47165 26.0855 4.57397C27.806 3.4353 28.6567 2.44427 29.3875 1.34361C29.6375 0.96795 29.3247 0.586446 28.9432 0.767697Z" fill="white"/>
</svg>
