<svg width="24" height="25" viewBox="0 0 24 25" fill="none" xmlns="http://www.w3.org/2000/svg">
<path fill-rule="evenodd" clip-rule="evenodd" d="M0.477295 7.21797C0.477295 3.63045 3.38655 0.721191 6.97408 0.721191H17.3689C20.9565 0.721191 23.8657 3.63045 23.8657 7.21797V17.6128C23.8657 21.2003 20.9565 24.1096 17.3689 24.1096H6.97408C3.38655 24.1096 0.477295 21.2003 0.477295 17.6128V7.21797ZM21.267 4.61891C21.267 3.90167 20.6849 3.31956 19.9676 3.31956C19.2504 3.31956 18.6683 3.90167 18.6683 4.61891C18.6683 5.33616 19.2504 5.91827 19.9676 5.91827C20.6849 5.91827 21.267 5.33616 21.267 4.61891ZM12.1715 5.91899C15.759 5.91899 18.6683 8.82825 18.6683 12.4158C18.6683 16.0033 15.759 18.9126 12.1715 18.9126C8.58396 18.9126 5.67471 16.0033 5.67471 12.4158C5.67471 8.82825 8.58396 5.91899 12.1715 5.91899ZM8.27345 12.4154C8.27345 10.2626 10.0187 8.51733 12.1715 8.51733C14.3244 8.51733 16.0696 10.2626 16.0696 12.4154C16.0696 14.5682 14.3244 16.3135 12.1715 16.3135C10.0187 16.3135 8.27345 14.5682 8.27345 12.4154Z" fill="white"/>
</svg>
