<svg width="22" height="22" viewBox="0 0 22 22" fill="none" xmlns="http://www.w3.org/2000/svg">
<g opacity="0.7">
<path fill-rule="evenodd" clip-rule="evenodd" d="M9.95026 4.86333V3.32328C9.95026 2.22214 9.19737 1.2006 8.11061 1.02371C6.72534 0.799282 5.52801 1.86173 5.52801 3.20498C5.52801 4.42663 6.51749 5.41611 7.73914 5.41611H9.40079C9.70593 5.41611 9.95026 5.16846 9.95026 4.86333ZM2.21133 6.52167H7.73914C8.96078 6.52167 9.95026 7.51114 9.95026 8.73279C9.95026 9.95443 8.96078 10.9439 7.73914 10.9439H2.21133C0.989686 10.9439 0.000208616 9.95443 0.000208616 8.73279C0.000208616 7.51114 0.989686 6.52167 2.21133 6.52167ZM5.52801 14.2606V19.7884C5.52801 21.01 6.51749 21.9995 7.73914 21.9995C8.96078 21.9995 9.95026 21.01 9.95026 19.7884V14.2606C9.95026 13.0389 8.96078 12.0495 7.73914 12.0495C6.51749 12.0495 5.52801 13.0389 5.52801 14.2606ZM3.86967 12.0495H2.32963C1.22738 12.0495 0.206949 12.8013 0.0300588 13.8891C-0.19437 15.2744 0.868074 16.4717 2.21133 16.4717C3.43298 16.4717 4.42245 15.4822 4.42245 14.2606V12.5989C4.42245 12.2938 4.17481 12.0495 3.86967 12.0495ZM13.2669 16.4717H18.7947C20.0164 16.4717 21.0059 15.4822 21.0059 14.2606C21.0059 13.0389 20.0164 12.0495 18.7947 12.0495H13.2669C12.0453 12.0495 11.0558 13.0389 11.0558 14.2606C11.0558 15.4811 12.0453 16.4717 13.2669 16.4717ZM11.0558 18.1301V19.6701C11.0558 20.7712 11.8076 21.7917 12.8955 21.9697C14.2807 22.1941 15.4781 21.1317 15.4781 19.7884C15.4781 18.5668 14.4886 17.5773 13.2669 17.5773H11.6053C11.3001 17.5773 11.0558 17.8249 11.0558 18.1301ZM15.4781 8.73279V3.20498C15.4781 1.98334 14.4886 0.993861 13.2669 0.993861C12.0453 0.993861 11.0558 1.98334 11.0558 3.20498V8.73279C11.0558 9.95443 12.0453 10.9439 13.2669 10.9439C14.4875 10.9439 15.4781 9.95333 15.4781 8.73279ZM17.1364 10.9439H18.6765C19.7776 10.9439 20.798 10.191 20.976 9.10426C21.2004 7.71899 20.138 6.52167 18.7947 6.52167C17.5731 6.52167 16.5836 7.51114 16.5836 8.73279V10.3944C16.5836 10.6996 16.8313 10.9439 17.1364 10.9439Z" fill="white"/>
</g>
</svg>
