<svg width="23" height="23" viewBox="0 0 23 23" fill="none" xmlns="http://www.w3.org/2000/svg">
<g opacity="0.7">
<path fill-rule="evenodd" clip-rule="evenodd" d="M0.980804 6.94904C0.980804 3.66047 3.64763 0.993652 6.93619 0.993652H16.4648C19.7534 0.993652 22.4202 3.66047 22.4202 6.94904V16.4777C22.4202 19.7662 19.7534 22.433 16.4648 22.433H6.93619C3.64763 22.433 0.980804 19.7662 0.980804 16.4777V6.94904ZM20.038 4.56688C20.038 3.90941 19.5044 3.37581 18.847 3.37581C18.1895 3.37581 17.6559 3.90941 17.6559 4.56688C17.6559 5.22436 18.1895 5.75796 18.847 5.75796C19.5044 5.75796 20.038 5.22436 20.038 4.56688ZM11.7005 5.75796C14.9891 5.75796 17.6559 8.42478 17.6559 11.7133C17.6559 15.0019 14.9891 17.6687 11.7005 17.6687C8.41193 17.6687 5.74511 15.0019 5.74511 11.7133C5.74511 8.42478 8.41193 5.75796 11.7005 5.75796ZM8.12726 11.7133C8.12726 9.7399 9.72705 8.14011 11.7005 8.14011C13.6739 8.14011 15.2737 9.7399 15.2737 11.7133C15.2737 13.6868 13.6739 15.2866 11.7005 15.2866C9.72705 15.2866 8.12726 13.6868 8.12726 11.7133Z" fill="white"/>
</g>
</svg>
